<?xml version="1.0" standalone="no"?>
<!DOCTYPE svg PUBLIC "-//W3C//DTD SVG 1.1//EN" "http://www.w3.org/Graphics/SVG/1.1/DTD/svg11.dtd" >
<svg xmlns="http://www.w3.org/2000/svg">
<metadata></metadata>
<defs>
<font id="AbyssinicaSILRegular" horiz-adv-x="2" >
<font-face units-per-em="2048" ascent="1638" descent="-410" />
<missing-glyph horiz-adv-x="922" />
<glyph unicode="&#xd;" horiz-adv-x="922" />
<glyph unicode=" "  horiz-adv-x="922" />
<glyph unicode="&#x09;" horiz-adv-x="922" />
<glyph unicode="&#xa0;" horiz-adv-x="922" />
<glyph unicode="!" horiz-adv-x="1106" d="M352 1108q0 229 140 229q103 0 126 -121q9 -45 9 -91.5t-2 -72.5t-5 -53.5t-7.5 -57.5t-8.5 -64l-65 -467h-97l-65 469q-5 35 -9 65t-8 57q-8 54 -8 107zM649 158q0 -33 -12 -62t-33 -50q-46 -46 -94.5 -46t-77.5 12.5t-50 33.5q-46 46 -46 112q0 64 46 110q45 45 112 45 q65 0 110 -45t45 -110z" />
<glyph unicode="&#x22;" horiz-adv-x="930" d="M549 1247q0 125 106 125q48 0 69 -24q36 -40 36 -86q0 -66 -23 -193l-57 -303h-51l-56 303q-24 132 -24 178zM170 1247q0 125 102 125q47 0 77 -30.5t30 -65.5q0 -52 -29 -205l-57 -305h-43l-57 307q-23 111 -23 174z" />
<glyph unicode="#" horiz-adv-x="1522" d="M1073 862l-96 -293h330v-102h-367l-172 -514l-102 33l159 481h-297l-174 -514l-100 35l164 479h-291v102h324l100 293h-332v105h367l164 483l104 -33l-158 -450h299l162 483l109 -33l-156 -450h287v-105h-324zM664 862l-101 -293h297l101 293h-297z" />
<glyph unicode="$" horiz-adv-x="1106" d="M688 707q299 -102 299 -353q0 -109 -81 -201q-83 -96 -218 -133v-124h-110v106q-13 -2 -26 -2h-54v-104h-111v122q-132 37 -213 134q-84 102 -84 249h189q0 -140 108 -213v449q-219 71 -277 207q-22 52 -22 118.5t22 118.5t62 93q77 79 215 110v121h111v-107h49t31 -2 v109h110v-125q187 -48 258 -200q24 -51 31 -113h-168q-19 108 -121 163v-423zM578 584q-38 12 -80 24v-461q8 -2 15 -2h36t29 2v437zM578 1165q-26 4 -50 4h-30v-403q18 -8 38 -14t42 -13v426zM387 1143q-104 -50 -104 -172q0 -79 53 -125q20 -18 51 -35v332zM688 186 q96 60 96 181q0 101 -96 163v-344z" />
<glyph unicode="%" horiz-adv-x="1616" d="M1528 328q0 -85 -24.5 -147.5t-66.5 -104.5q-83 -82 -220 -82q-136 0 -219 82q-91 90 -91 252t91 252q83 82 219 82q137 0 220 -82q91 -90 91 -252zM547 -25h-203l741 1307h203zM709 930q0 -162 -91 -252q-85 -82 -221 -82q-135 0 -218 82q-91 90 -91 252t91 252 q83 82 218 82q136 0 221 -82q91 -90 91 -252zM1358 328q0 97 -22.5 134.5t-50 51.5t-68 14t-68 -14t-43.5 -40q-31 -49 -31 -146t23 -133q40 -66 119 -66q114 0 135 117q6 37 6 82zM539 930q0 98 -23 135t-50 51t-68 14t-68 -14t-44 -40q-30 -49 -30 -146q0 -96 22 -133 q39 -66 119 -66q115 0 135 117q7 37 7 82z" />
<glyph unicode="&#x26;" horiz-adv-x="1432" d="M80 381q0 246 274 360q-73 73 -102 114q-70 101 -70 189t29.5 151.5t82.5 109.5q109 96 277 96q155 0 258 -88t103 -221q0 -191 -191 -302q-54 -32 -110 -57l344 -371q101 132 115 240q1 9 -10.5 23t-24.5 16l-111 16v86h420v-86l-147 -22q-48 -167 -175 -346l166 -191 l183 -10v-88h-377v49l-92 103q-107 -85 -166 -115q-124 -62 -231 -62t-184.5 30.5t-135.5 84.5q-125 116 -125 291zM743 1076q0 47 -11.5 87t-35.5 71q-52 66 -145 66q-82 0 -134 -56q-50 -54 -50 -120.5t19.5 -111t48 -82t61.5 -69t61 -58.5q186 91 186 273zM434 682 q-147 -100 -147 -254q0 -137 86 -228q85 -91 211 -91q85 0 137 25q72 36 135 89z" />
<glyph unicode="'" horiz-adv-x="385" d="M88 1247q0 125 98 125q53 0 84 -37q27 -31 27 -62q0 -40 -29 -202l-55 -305h-47l-55 307q-23 115 -23 174z" />
<glyph unicode="(" horiz-adv-x="680" d="M526 1407q31 0 31 -35q0 -19 -16 -38.5t-40 -50t-52.5 -76t-52.5 -115.5q-56 -165 -56 -412q0 -351 108 -520q29 -45 53 -75t40 -50.5t16 -42.5q0 -33 -39 -33q-55 0 -148 108q-163 189 -225 439q-22 88 -22 178q0 167 77 348q66 152 168 268q94 107 158 107z" />
<glyph unicode=")" horiz-adv-x="680" d="M123 1374q0 33 39 33q55 0 148 -108q163 -189 225 -439q22 -88 22 -178q0 -167 -77 -348q-66 -152 -168 -268q-94 -107 -156 -107q-33 0 -33 35q0 19 16 38.5t40 50t52.5 76t52.5 115.5q56 165 56 412q0 351 -108 520q-29 45 -53 75t-40 50.5t-16 42.5z" />
<glyph unicode="*" horiz-adv-x="997" d="M858 1142q0 -88 -80 -116q-21 -7 -47.5 -7t-50 3.5t-44 7.5t-35 7t-26.5 -1q-28 -9 -8 -41q4 -6 25.5 -14t49.5 -20q73 -32 92 -57q28 -36 28 -71t-15.5 -63t-28.5 -38q-31 -21 -63 -21q-97 0 -125 99q-12 46 -17 89t-11.5 54t-19 11t-20 -10.5t-8 -33.5t-3.5 -53 q-8 -79 -31 -110q-36 -50 -96 -50q-45 0 -66 15q-51 36 -51 101q0 64 65 105q32 21 75.5 40.5t50.5 31.5q19 27 -17 38q-5 1 -20 -3t-36 -9q-55 -15 -90 -15t-56.5 7t-36 20.5t-23.5 29.5q-17 30 -17 57t3.5 38.5t13 25.5t23.5 26q33 28 62.5 28t52 -7.5t47.5 -27t45 -40.5 t35 -37.5t27 -20.5t21.5 4t9.5 20t-13 31t-28 45q-41 69 -41 115q0 52 44 87q37 28 73 28q35 0 62 -21q53 -41 53 -96q0 -44 -25 -91t-36 -66.5t-11 -31.5t7.5 -21t21.5 -4t28 23t34 40q72 81 130 81q40 0 78.5 -33t38.5 -78z" />
<glyph unicode="+" horiz-adv-x="1202" d="M707 479v-368h-215v368h-367v217h367v367h215v-367h374v-217h-374z" />
<glyph unicode="," horiz-adv-x="696" d="M176 -342q-26 0 -26 25q0 8 52 59q111 109 111 258q-103 0 -137 82q-12 28 -12 65q0 116 90 154q29 12 65 12q170 0 170 -223q0 -179 -122 -314q-107 -118 -191 -118z" />
<glyph unicode="-" horiz-adv-x="752" d="M123 395v150h504v-150h-504z" />
<glyph unicode="." horiz-adv-x="653" d="M436 158q0 -104 -96 -146q-28 -12 -61 -12q-65 0 -113 46q-45 44 -45 112q0 66 45.5 111.5t112.5 45.5q66 0 111.5 -45.5t45.5 -111.5z" />
<glyph unicode="/" horiz-adv-x="834" d="M223 -12l-223 2l610 1444h221z" />
<glyph unicode="0" horiz-adv-x="1106" d="M983 649q0 -458 -240 -600q-86 -51 -210 -51t-209 51t-138 139q-102 168 -102 461q0 455 241 600q85 51 208 51t209 -51t140 -139q101 -167 101 -461zM760 649q0 236 -42 349q-52 143 -186 143q-188 0 -218 -300q-9 -90 -9 -192q0 -237 42 -349q54 -144 185 -144 q189 0 219 301q9 90 9 192z" />
<glyph unicode="1" horiz-adv-x="1106" d="M526 0v1012q-72 -66 -223 -128q-40 -17 -70 -26v197q102 42 241 163q34 29 46 46l215 -2v-1262h-209z" />
<glyph unicode="2" horiz-adv-x="1106" d="M109 911q24 389 450 389q193 0 302 -96q106 -94 106 -256q0 -197 -183 -384q-87 -89 -210 -179t-273 -190h641v-195h-856v180q373 294 524 472q138 162 138 294q0 127 -99 178q-38 19 -96.5 19t-100 -22t-68.5 -55q-49 -63 -56 -155h-219z" />
<glyph unicode="3" horiz-adv-x="1106" d="M967 379q0 -154 -109 -259q-125 -120 -350 -120q-219 0 -326 118q-84 94 -84 238h219q4 -86 57 -141q55 -57 144 -57q93 0 160 60q70 62 70 159q0 67 -33.5 118.5t-76 79t-108.5 27.5h-112v139q190 0 261 73q46 47 46 144q0 132 -93 180q-34 17 -85 17 q-100 0 -149.5 -45.5t-55.5 -138.5h-219q8 158 127 247q110 82 287 82q178 0 288 -86q119 -93 119 -256q0 -174 -147 -244q-41 -19 -82 -34q165 -45 228 -180q24 -52 24 -121z" />
<glyph unicode="4" horiz-adv-x="1106" d="M883 270v-270h-207v270h-602v244l522 748h287v-809h135v-183h-135zM676 1110l-447 -657h447v657z" />
<glyph unicode="5" horiz-adv-x="1106" d="M502 690q-184 0 -219 -174h-160l24 748h709v-195h-555l-14 -348q92 92 195 109q36 6 103.5 6t139.5 -34.5t121 -91.5q98 -112 98 -278q0 -175 -108 -294q-128 -138 -355 -138q-271 0 -357 204q-28 64 -28 126h197q14 -123 119 -170q35 -15 87.5 -15t96.5 22.5t72 60.5 q57 77 57 204q0 258 -223 258z" />
<glyph unicode="6" horiz-adv-x="1106" d="M301 727q101 121 297 121q149 0 262 -90q133 -106 133 -318q0 -214 -142 -334q-126 -106 -319 -106q-201 0 -312 125q-136 154 -136 498q0 354 136 525q120 152 345 152q168 0 275 -88q104 -85 104 -215h-217q0 111 -84 154q-31 16 -81.5 16t-93.5 -17t-75 -65 q-63 -95 -92 -358zM776 430q0 118 -68 202q-69 83 -167 83q-96 0 -167 -83q-69 -83 -69 -202q0 -120 69 -203q70 -84 167 -84q99 0 167 84q68 85 68 203z" />
<glyph unicode="7" horiz-adv-x="1106" d="M526 0h-274l514 1069h-655v195h833v-195z" />
<glyph unicode="8" horiz-adv-x="1106" d="M946 979q0 -241 -254 -295q206 -51 260 -218q17 -51 17 -117t-32.5 -132t-90.5 -114q-126 -103 -316 -103q-202 0 -326 104q-120 100 -120 256q0 178 159 272q54 32 128 50q-197 43 -249 196q-16 47 -16 107.5t29.5 119t84.5 101.5q117 94 306 94q199 0 313 -94 q107 -87 107 -227zM741 964q0 49 -17 87.5t-46 63.5q-58 50 -150 50q-90 0 -149 -53q-62 -57 -62 -151q0 -92 62 -149q60 -54 149 -54q90 0 150 54q63 58 63 152zM764 375q0 57 -18 99t-50 70q-62 56 -166 56q-164 0 -219 -128q-18 -42 -18 -99t20 -101t53 -72 q65 -57 160 -57q96 0 164 58q74 64 74 174z" />
<glyph unicode="9" horiz-adv-x="1106" d="M778 573q-100 -120 -299 -120q-149 0 -261 89q-134 107 -134 318q0 215 142 335q124 105 319 105q448 0 448 -622q0 -355 -135 -526q-120 -152 -346 -152q-168 0 -274 88q-103 87 -103 215h217q0 -109 83 -152q31 -16 81 -16t93 16.5t75 64.5q66 96 94 357zM772 872 q0 118 -68 202q-69 83 -167 83q-97 0 -165 -83q-69 -84 -69 -202q0 -117 69 -202q67 -84 165 -84q99 0 167 84q68 85 68 202z" />
<glyph unicode=":" horiz-adv-x="573" d="M401 874q0 -57 -41 -96q-42 -41 -84.5 -41t-67 11t-43.5 30q-40 38 -40 96q0 90 83 127q25 11 53.5 11t54 -11t44.5 -29q41 -40 41 -98zM390 166q11 -25 11 -53.5t-11 -53.5t-30 -43q-42 -41 -84.5 -41t-67 11t-43.5 30q-40 38 -40 81.5t10.5 68.5t29.5 44q42 40 83.5 40 t67 -11t44.5 -29.5t30 -43.5z" />
<glyph unicode=";" horiz-adv-x="573" d="M399 874q0 -89 -84 -126q-25 -11 -53.5 -11t-53 11t-43.5 30q-40 38 -40 96t41 98q42 40 84 40t67 -11t43 -29q39 -41 39 -98zM162 14q-37 37 -37 79.5t9.5 67.5t26.5 45q37 44 86 44t81 -17.5t53 -48.5q41 -59 41 -150t-29.5 -155.5t-78.5 -112.5q-104 -102 -248 -114 v74q116 26 168 86q59 70 57 202h-129z" />
<glyph unicode="&#x3c;" horiz-adv-x="1706" d="M264 557v105l1178 483v-127l-1000 -408l1000 -405v-129z" />
<glyph unicode="=" horiz-adv-x="1214" d="M150 698v215h913v-215h-913zM150 262v215h913v-215h-913z" />
<glyph unicode="&#x3e;" horiz-adv-x="1706" d="M264 76v129l1000 405l-1000 408v127l1178 -483v-105z" />
<glyph unicode="?" horiz-adv-x="1200" d="M424 1120q-96 0 -125 -82h-74q-23 20 -36 50t-13 56.5t17.5 61t54.5 63.5q88 68 239 68q160 0 255 -97q89 -90 89 -216q0 -142 -139 -304q-87 -101 -113 -156t-26 -84.5t8 -69.5l-125 2q-41 84 -41 151t12 106.5t30 77t39 72.5t39 67q42 73 42 118.5t-35 80.5t-98 35z M649 158q0 -33 -12 -62t-33 -50q-46 -46 -94.5 -46t-77.5 12.5t-50 33.5q-46 46 -46 112q0 64 46 110q45 45 112 45q65 0 110 -45t45 -110z" />
<glyph unicode="@" horiz-adv-x="1917" d="M1583 -133q-336 -180 -618 -180q-341 0 -572 215q-154 142 -213 355q-30 108 -30 246t36.5 265.5t100.5 230.5t151.5 181t189.5 130q206 105 441 105q313 0 502 -167q198 -176 198 -484q0 -291 -173 -480q-100 -111 -218 -150q-57 -19 -125 -19t-105.5 42.5t-37.5 127.5 q-166 -168 -297 -168q-113 0 -184 91q-72 92 -72 226t43.5 236t115 177t163 118t187 43t202.5 -56l37 47h114q-12 -35 -57.5 -240.5t-68 -304.5t-22.5 -128q0 -95 85 -95q45 0 100 37t102 106q111 163 111 388q0 271 -179 426q-159 137 -394 137q-348 0 -574 -228 q-143 -144 -198 -353q-27 -104 -27 -239t48.5 -270t140.5 -234q197 -212 528 -212q265 0 540 152zM745 469q0 -221 160 -221q103 0 209 133l82 424q7 31 -19 60q-51 57 -114.5 57t-124.5 -35.5t-104 -96.5q-89 -128 -89 -321z" />
<glyph unicode="A" horiz-adv-x="1380" d="M883 0v88l118 10q10 0 17 13.5t4 21.5l-141 375h-473l-136 -369q-7 -20 18 -37q6 -4 11 -4l121 -10v-88h-412v88l119 25l477 1294h154l475 -1264q7 -21 13.5 -28t29.5 -11l92 -16v-88h-487zM643 1143l-199 -537h400z" />
<glyph unicode="B" horiz-adv-x="1239" d="M1075 1044q0 -236 -295 -315q253 0 346 -171q33 -62 33 -148.5t-23.5 -149t-63.5 -107.5t-92.5 -74.5t-109.5 -46.5q-104 -32 -231 -32h-573v88l108 8q22 2 32.5 16t10.5 29v1092q0 15 -10.5 29t-32.5 16l-108 8v88h548q461 0 461 -330zM539 1280l-117 -6v-518 q14 -1 27 -1.5t25 -0.5h22q283 0 340 158q18 52 18 118q0 121 -78 185.5t-237 64.5zM422 106q75 -6 155 -6t153.5 18t119.5 54q86 67 86 212t-83 210t-247 65l-184 -12v-541z" />
<glyph unicode="C" horiz-adv-x="1284" d="M1204 47q-75 -38 -203 -59t-224.5 -21t-194 27.5t-177 76.5t-140 117t-101.5 148q-84 161 -84 337t52 308t146 227q198 199 519 199q129 0 292 -46q53 -15 115 -34v-321h-123l-30 186q-2 14 -14 28t-22.5 19t-30 14t-46.5 17q-68 22 -152 22t-174 -39t-156 -115 q-141 -162 -141 -448q0 -285 138 -448q137 -162 381 -162q95 0 165 35q32 12 39 41l47 223h119v-332z" />
<glyph unicode="D" horiz-adv-x="1425" d="M1346 690q0 -294 -162 -480q-185 -210 -549 -210h-569v88l108 8q22 2 33.5 16t11.5 29v1092q0 15 -11.5 29t-33.5 16l-108 8v88h528q340 0 538 -165q214 -179 214 -519zM1114 688q0 159 -37.5 271.5t-106.5 182.5q-132 134 -388 134h-156v-1178l166 2q522 4 522 588z" />
<glyph unicode="E" horiz-adv-x="1194" d="M66 0v88l106 8q22 2 33.5 16t11.5 29v1092q0 15 -11.5 29t-33.5 16l-106 8v88h995v-305h-123l-31 168q-2 15 -12.5 27t-24.5 12h-444v-510h307q14 0 25.5 12t11.5 23l21 141h104v-457h-104l-21 142q0 11 -12 24t-25 13h-307v-564h518q13 0 24 14t13 25l37 203h110v-342 h-1062z" />
<glyph unicode="F" horiz-adv-x="1108" d="M926 1049l-29 188q-7 37 -35 37h-436v-533h313q14 0 24.5 13t12.5 24l19 144h102v-461h-102l-19 143q-2 11 -13 24t-24 13h-313v-500q0 -15 10.5 -29t32.5 -16l137 -8v-88h-538v88l108 8q22 2 32.5 16t10.5 29v1092q0 15 -10.5 29t-32.5 16l-125 8v88h996v-325h-121z" />
<glyph unicode="G" horiz-adv-x="1423" d="M1225 49q-221 -82 -430 -82q-331 0 -529 219q-186 206 -186 504q0 326 198 520q201 197 543 197q137 0 308 -45q47 -13 94 -25v-331h-123l-33 184q-6 34 -41 49q-15 6 -36.5 15t-48.5 18q-65 20 -152 20t-179 -39t-158 -114q-139 -158 -139 -439q0 -292 143 -456 q140 -162 382 -162q77 0 126.5 15.5t53.5 15.5v409q0 39 -43 43l-137 10v89h534v-89l-104 -10q-43 -4 -43 -43v-473z" />
<glyph unicode="H" horiz-adv-x="1522" d="M938 0v88l117 8q21 2 32 16t11 29v529h-674v-529q0 -15 10.5 -29t32.5 -16l117 -8v-88h-518v88l106 8q22 2 33.5 16t11.5 29v1092q0 15 -11.5 28t-33.5 15l-106 8v90h518v-90l-117 -8q-43 -4 -43 -43v-461h674v461q0 15 -11 28t-32 15l-117 8v90h518v-90l-106 -8 q-22 -2 -33.5 -15t-11.5 -28v-1092q0 -15 11.5 -29t33.5 -16l106 -8v-88h-518z" />
<glyph unicode="I" horiz-adv-x="676" d="M68 0v88l122 8q22 2 32.5 16t10.5 29v1092q0 39 -43 43l-122 8v90h540v-90l-125 -8q-21 -2 -32 -15t-11 -28v-1092q0 -15 11 -29t32 -16l125 -8v-88h-540z" />
<glyph unicode="J" horiz-adv-x="993" d="M821 1278q-21 -2 -32 -16t-11 -29v-715q0 -405 -240 -512q-86 -39 -210 -39q-114 0 -248 47q-25 9 -29 11v350h123l45 -250q11 -53 87.5 -53t125.5 27t80 81q59 103 59 324v729q0 15 -10.5 29t-32.5 16l-129 8v88h541v-88z" />
<glyph unicode="K" horiz-adv-x="1307" d="M948 0v63l-381 547h-143v-469q0 -15 11.5 -29t33.5 -16l117 -8v-88h-520v88l108 8q22 2 32.5 16t10.5 29v1092q0 15 -10.5 29t-32.5 16l-108 8v88h520v-88l-117 -8q-22 -2 -33.5 -16t-11.5 -29v-537h74l446 545q7 9 0.5 21t-16.5 14l-105 10v88h434v-88q-36 -3 -63 -6.5 t-49 -6t-27 -3.5l-418 -500l459 -672l148 -10v-88h-359z" />
<glyph unicode="L" horiz-adv-x="1087" d="M55 0v88l119 8q22 2 32.5 16t10.5 29v1092q0 15 -10.5 29t-32.5 16l-119 8v88h523v-88l-109 -8q-22 -2 -33.5 -16t-11.5 -29v-1133h430q14 0 28.5 10.5t16.5 24.5l33 246h119v-381h-996z" />
<glyph unicode="M" horiz-adv-x="1794" d="M1214 0v88l109 8q22 2 33.5 16t11.5 29v1129l-471 -1270h-102l-455 1251v-1110q0 -15 11.5 -29t33.5 -16l117 -8v-88h-443v88l117 8q22 2 32.5 16t10.5 29v1092q0 15 -10.5 29t-32.5 16l-117 8v88h459v-55l371 -1006l371 1000v61h471v-88l-111 -8q-22 -2 -33.5 -16 t-11.5 -29v-1092q0 -15 11.5 -29t33.5 -16l111 -8v-88h-517z" />
<glyph unicode="N" horiz-adv-x="1477" d="M1303 1278q-22 -2 -32.5 -16t-10.5 -29v-1233h-160l-762 1147v-1006q0 -15 10.5 -29t32.5 -16l117 -8v-88h-443v88l117 8q22 2 33.5 16t11.5 29v1092q0 15 -11.5 29t-33.5 16l-121 8v88h406v-51l682 -1030v940q0 15 -11 29t-32 16l-117 8v88h438v-88z" />
<glyph unicode="O" horiz-adv-x="1497" d="M1417 686q0 -304 -183 -508q-189 -211 -484 -211q-299 0 -486 206q-184 203 -184 515q0 307 181 510q187 209 487 209q297 0 486 -212q183 -204 183 -509zM1180 686q0 123 -27 233.5t-81 192.5q-116 178 -322 178q-212 0 -329 -178q-106 -162 -106 -424t107 -427 q116 -181 323 -181q210 0 328 180q107 164 107 426z" />
<glyph unicode="P" horiz-adv-x="1186" d="M570 514q-112 0 -144 8v-381q0 -15 10.5 -29t32.5 -16l135 -8v-88h-538v88l108 8q22 2 33.5 16t11.5 29v1092q0 15 -11.5 29t-33.5 16l-123 8v88h490q296 0 427 -93q138 -97 138 -320q0 -218 -156 -337q-146 -112 -380 -110zM426 627l115 -11q253 -3 327 188 q25 65 25 147t-20 140.5t-63 98.5q-90 84 -280 84l-66 -1q-18 -1 -38 -1v-645z" />
<glyph unicode="Q" horiz-adv-x="1513" d="M1348 -336q-192 -35 -302 -35t-185 24t-123 69q-89 85 -89 251q-252 37 -407 223q-162 196 -162 490q0 307 183 510q190 211 491 211q305 0 496 -209q184 -202 184 -512q0 -280 -150 -471q-153 -194 -416 -238q2 -115 71.5 -181t200.5 -66t208 22v-88zM1192 686 q0 121 -26 230.5t-80 193.5q-116 182 -330 182t-331 -178q-106 -162 -106 -424q0 -257 109 -426q118 -184 328 -184q211 0 329 182q107 166 107 424z" />
<glyph unicode="R" horiz-adv-x="1329" d="M516 612l-92 -4v-467q0 -15 10.5 -29t32.5 -16l108 -8v-88h-509v88l106 8q22 2 33.5 16t11.5 29v1092q0 15 -11.5 29t-33.5 16l-106 8v88h534q371 0 468 -194q34 -69 34 -160t-28 -149t-74 -98q-82 -70 -234 -105q204 -49 255 -232q14 -50 25 -99.5t25 -94.5t43 -80 q65 -76 215 -76v-92q-7 -1 -20 -5t-31 -9q-129 -36 -233 14q-105 51 -148 177q-20 58 -37 118.5t-37.5 118.5t-57.5 104q-82 100 -249 100zM466 712l60 -1q179 0 262 63q91 69 91 227q0 273 -361 273h-94v-561z" />
<glyph unicode="S" horiz-adv-x="1067" d="M691 3q-103 -36 -277.5 -36t-333.5 76v363h129l27 -232q2 -12 12.5 -26t17 -17t21.5 -10.5t41 -16.5q69 -22 141.5 -22t128 16.5t95.5 47.5q85 66 85 178q0 146 -241 257q-159 73 -228 111.5t-113 80.5q-94 91 -94 233q0 179 136 292q132 109 337 109q138 0 289 -47 q38 -12 72 -23v-319h-117l-31 196q-4 21 -30 35q-2 1 -13 9t-33 16q-59 22 -127.5 22t-117.5 -18t-83 -50q-71 -68 -71 -173q0 -131 163 -217q53 -28 134 -58.5t153.5 -68.5t122.5 -85q101 -96 101 -241q0 -173 -127 -287q-66 -59 -169 -95z" />
<glyph unicode="T" horiz-adv-x="1227" d="M1073 1047l-29 192q-7 35 -34 35h-293v-1133q0 -15 10.5 -29t32.5 -16l131 -8v-88h-555v88l131 8q22 2 32.5 16t10.5 29v1133h-295q-31 0 -35 -35l-28 -192h-119v327h1161v-327h-121z" />
<glyph unicode="U" horiz-adv-x="1458" d="M715 -33q-500 0 -500 488v778q0 15 -10.5 29t-32.5 16l-109 8v88h521v-88l-117 -8q-22 -2 -32.5 -16t-10.5 -29v-725q0 -200 66 -292q80 -112 280 -112q285 0 335 245q15 74 15 159v725q0 15 -11.5 29t-33.5 16l-117 8v88h445v-88l-119 -8q-22 -2 -32.5 -16t-10.5 -29 v-778q0 -488 -526 -488z" />
<glyph unicode="V" horiz-adv-x="1364" d="M1225 1264l-459 -1297h-156l-469 1299l-121 20v88h490v-88l-121 -10q-11 -2 -16 -15t-2 -22l360 -1012l346 1008q4 12 -5.5 25.5t-22.5 15.5l-113 10v88h407v-88z" />
<glyph unicode="W" horiz-adv-x="1907" d="M1761 1262l-313 -1295h-150l-342 1135l-335 -1135h-148l-334 1295l-119 24v88h469v-88l-122 -12q-29 -4 -21 -41l244 -924l321 1065h158l330 -1098l227 957q3 14 -5 26.5t-24 14.5l-129 12v88h418v-88z" />
<glyph unicode="X" horiz-adv-x="1298" d="M752 0v88l118 12q16 2 25 15t0 28l-272 428l-316 -434q-8 -11 -4 -24t29 -15l123 -10v-88h-435v88l123 25l412 565l-373 584l-135 24v88h514v-88l-104 -10q-25 -2 -29 -15.5t4 -25.5l250 -385l276 379q11 15 2 28t-24 15l-105 14v88h429v-88l-132 -20l-380 -523l403 -630 l127 -25v-88h-526z" />
<glyph unicode="Y" horiz-adv-x="1282" d="M1151 1266l-412 -682v-443q0 -15 11 -29t32 -16l131 -8v-88h-553v88l127 8q22 2 33.5 16t11.5 29v412l-393 709l-119 24v88h486v-88l-103 -10q-42 -5 -24 -41l289 -535l317 529q9 15 0 28t-24 15l-115 14v88h416v-88z" />
<glyph unicode="Z" horiz-adv-x="1178" d="M80 0v90l762 1182h-533q-26 0 -35 -35l-30 -190h-121v327h964v-94l-763 -1176h583q28 0 35 37l35 238h121v-379h-1018z" />
<glyph unicode="[" horiz-adv-x="680" d="M176 -158v1645h408v-123h-217v-1405h217v-117h-408z" />
<glyph unicode="\" horiz-adv-x="831" d="M608 -12l-608 1446l221 -2l613 -1444h-226z" />
<glyph unicode="]" horiz-adv-x="680" d="M82 -158v123h217v1405h-217v117h407v-1645h-407z" />
<glyph unicode="^" horiz-adv-x="1962" d="M1386 23l-405 999l-408 -999h-127l484 1177h104l482 -1177h-130z" />
<glyph unicode="_" horiz-adv-x="1229" d="M0 -682v203h1229v-203h-1229z" />
<glyph unicode="`" horiz-adv-x="717" d="M358 1128l-311 199q-47 30 -47 82q0 60 49 83q18 9 42 9t39.5 -3.5t27.5 -10.5q16 -10 43 -41l274 -318h-117z" />
<glyph unicode="a" horiz-adv-x="1042" d="M193 711q-76 0 -76 61t38 106.5t99 75.5q118 58 289 58q259 0 308 -184q15 -56 15 -123v-574q0 -19 12.5 -31t30.5 -14l99 -6v-80h-303l-27 121q-192 -146 -342 -146q-115 0 -189 74q-77 77 -77 203q0 85 30.5 127.5t72 72t109.5 58.5q136 59 396 115v88q0 103 -46 152.5 t-135.5 49.5t-154.5 -26v-178h-149zM426 96q106 0 252 97v354q-357 -90 -394 -207q-12 -36 -12 -71t10.5 -65.5t29.5 -54.5q44 -53 114 -53z" />
<glyph unicode="b" horiz-adv-x="1137" d="M375 936q171 76 277 76t182.5 -38t128.5 -103q104 -130 104 -330q0 -244 -139 -386q-152 -155 -449 -155h-295v1362h-155v68l264 79h82v-573zM545 891q-71 0 -170 -33v-760q17 -1 33.5 -1.5t33.5 -0.5h33q190 0 282 90q101 99 101 303t-82.5 303t-230.5 99z" />
<glyph unicode="c" horiz-adv-x="954" d="M885 193v-117q-139 -72 -216.5 -86.5t-157.5 -14.5t-166.5 38.5t-147.5 106.5q-127 143 -127 367q0 247 148 391q137 134 345 134q218 0 293 -117q25 -38 25 -78t-10.5 -62.5t-27.5 -38.5q-33 -30 -82 -30t-104 35v178q-47 27 -100.5 27t-108 -31t-92.5 -86 q-77 -114 -77 -295q0 -179 85 -290q92 -120 240 -120t281 89z" />
<glyph unicode="d" horiz-adv-x="1155" d="M362 966q98 46 208 46t210 -25v375h-155v68l264 79h82v-1378q0 -40 43 -45l88 -6v-80h-322v109q-174 -134 -317 -134q-191 0 -300 159q-93 137 -93 333q0 226 129 377q65 76 163 122zM580 115q82 0 200 71v697q-98 30 -174 30t-138 -29.5t-106 -83.5q-90 -111 -90 -298 q0 -170 78 -277q80 -110 230 -110z" />
<glyph unicode="e" horiz-adv-x="1004" d="M445 138q66 -38 181 -38t308 127v-125q-202 -127 -389 -127q-199 0 -331 126q-144 139 -144 382q0 237 136 385q133 144 345 144q185 0 287 -118q96 -112 96 -302v-27q0 -16 -2 -30h-664q0 -293 177 -397zM729 672q0 166 -111 220q-37 19 -88 19q-104 0 -172 -76 q-71 -78 -79 -208h450v45z" />
<glyph unicode="f" horiz-adv-x="668" d="M514 1409q-121 -66 -121 -307v-131h254v-105h-254v-735q0 -19 12.5 -31t30.5 -14l121 -6v-80h-498v80l101 6q18 2 30.5 14t12.5 31v735h-131v72l131 37q0 173 69 307q86 167 250 213q49 14 95.5 14t79.5 -10t55 -27q45 -34 45 -75.5t-12.5 -62t-28.5 -32.5 q-29 -22 -54 -26z" />
<glyph unicode="g" horiz-adv-x="1075" d="M358.5 988q75.5 24 171.5 24t234 -62h276v-100h-204q55 -88 55 -174.5t-33 -146.5t-88 -102q-114 -86 -281 -86h-20t-20 1q-22 -36 -22 -72q0 -55 5 -65q46 -5 105 -11t120.5 -17.5t121 -30.5t105.5 -50q103 -68 103 -178q0 -73 -41.5 -142.5t-113.5 -123.5 q-159 -121 -377 -121q-180 0 -284 83q-101 80 -101 208q0 145 120 214q41 24 97 34q-21 56 -21 94q0 87 103 192q-172 41 -233 194q-21 52 -21 123.5t30 136t84 109.5t129.5 69zM696 676q0 50 -12.5 95.5t-36.5 80.5q-53 76 -141 76q-135 0 -180 -146q-15 -47 -15 -102 t12.5 -100.5t36.5 -79.5q54 -74 146 -74q89 0 141 74q49 69 49 176zM811 -134q0 39 -21 68.5t-55.5 48.5t-78 30.5t-88 19t-86.5 12t-72 10.5q-156 -55 -156 -192q0 -87 65 -156q77 -82 203 -82q134 0 218 82q71 69 71 159z" />
<glyph unicode="h" horiz-adv-x="1176" d="M375 885q209 127 338 127q123 0 197 -76q81 -82 81 -234v-571q0 -19 13.5 -31t31.5 -14l92 -6v-80h-456v80l84 6q18 2 31.5 14t13.5 31v528q0 203 -203 203q-115 0 -223 -59v-672q0 -41 41 -45l88 -6v-80h-461v80l98 6q43 5 43 45v1231h-153v68l262 79h82v-624z" />
<glyph unicode="i" horiz-adv-x="621" d="M446 1325q0 -54 -26 -81q-47 -46 -98 -46q-53 0 -80 27q-47 47 -47 100q0 52 27 79q46 46 100 46q52 0 78 -26q46 -46 46 -99zM70 0v80l100 6q43 5 43 45v731h-141v72l250 78h81v-881q0 -19 12.5 -31t30.5 -14l105 -6v-80h-481z" />
<glyph unicode="j" horiz-adv-x="598" d="M436 1325q0 -54 -26 -81q-47 -46 -99 -46q-51 0 -79 27q-48 46 -48 100q0 53 28 79q47 46 99 46q53 0 79 -26q46 -46 46 -99zM125 -375q98 56 98 332v909h-145v68l252 78h84v-881q0 -284 -80 -410q-63 -97 -153 -143.5t-187 -46.5q-107 0 -144 63q-12 21 -12 48.5t8 47 t20 34.5q23 26 60 38z" />
<glyph unicode="k" horiz-adv-x="1094" d="M745 0v80l-256 385h-114v-334q0 -40 43 -45l88 -6v-80h-465v80l100 6q43 5 43 45v1231h-155v68l262 79h84v-985h41l301 340q8 10 2.5 21.5t-19.5 13.5l-84 8v80h398v-80l-131 -14l-271 -289l353 -512l108 -12v-80h-328z" />
<glyph unicode="l" horiz-adv-x="608" d="M55 0v80l109 6q14 0 29.5 14.5t15.5 28.5v1233h-156v68l262 79h84v-1380q0 -14 14.5 -28.5t28.5 -14.5l111 -6v-80h-498z" />
<glyph unicode="m" horiz-adv-x="1741" d="M934 870q232 142 356 142q145 0 212 -104q52 -80 52 -210v-567q0 -19 12.5 -31t30.5 -14l99 -6v-80h-459v80l86 6q43 5 43 45v522q0 209 -182 209q-105 0 -219 -57v-674q0 -40 43 -45l86 -6v-80h-449v80l86 6q43 5 43 45v535q0 196 -180 196q-113 0 -219 -59v-672 q0 -40 43 -45l86 -6v-80h-463v80l100 6q43 5 43 45v711h-141v67l248 78h84v-102q206 127 334 127q151 0 225 -142z" />
<glyph unicode="n" horiz-adv-x="1161" d="M375 885q228 127 350 127t192 -83t70 -233v-565q0 -19 12.5 -31t30.5 -14l90 -6v-80h-452v80l86 6q18 2 30.5 14t12.5 31v533q0 97 -45 147.5t-152 50.5t-225 -59v-672q0 -40 43 -45l86 -6v-80h-463v80l100 6q43 5 43 45v711h-143v67l250 78h84v-102z" />
<glyph unicode="o" horiz-adv-x="1114" d="M1044 492q0 -109 -34.5 -203.5t-97.5 -164.5q-137 -149 -357 -149t-355 148q-130 142 -130 369q0 224 132 370q137 150 359 150t356 -152q127 -145 127 -368zM831 494q0 181 -67 297q-74 129 -205 129q-135 0 -209 -129q-65 -115 -65 -297q0 -180 67 -296 q75 -130 205 -130q134 0 207 129q67 117 67 297z" />
<glyph unicode="p" horiz-adv-x="1145" d="M375 885q160 127 309 127q163 0 274 -138q117 -144 117 -366q0 -244 -137 -388q-140 -145 -381 -145q-84 0 -182 19v-305q0 -38 45 -43l121 -13v-79h-498v79l98 13q43 5 43 43v1153h-141v67l252 78h80v-102zM375 102q85 -32 167.5 -32t144.5 34t103 90q80 113 80 285 q0 165 -73 273q-78 116 -213 116q-94 0 -209 -61v-705z" />
<glyph unicode="q" horiz-adv-x="1124" d="M662 1012q139 0 290 -33v-1294q0 -36 43 -43l99 -11v-77h-496v77l121 11q43 5 43 43v370q-166 -80 -274 -80t-183 39t-127 106q-108 139 -108 349q0 252 156 397q158 146 436 146zM444 130q59 -34 139 -34t179 29v772q-98 21 -161.5 21t-128 -30t-108.5 -84 q-88 -111 -88 -302q0 -274 168 -372z" />
<glyph unicode="r" horiz-adv-x="801" d="M580.5 989q38.5 23 88 23t111.5 -31v-203h-80q-49 56 -110 56q-93 0 -205 -127v-576q0 -40 43 -45l135 -6v-80h-512v78l101 8q18 2 30.5 14t12.5 31v711h-148v67l254 78h84v-182q22 24 53.5 59.5t67.5 68.5t74.5 56z" />
<glyph unicode="s" horiz-adv-x="815" d="M518 -3q-73 -22 -195.5 -22t-252.5 52v272h104l25 -174q88 -57 182 -57q83 0 135 49q49 45 49 99t-17 84.5t-49 55.5q-33 25 -136.5 75.5t-146.5 77t-72 57.5q-60 61 -60 139t24.5 133t71.5 94q98 80 273 80q161 0 262 -47v-242h-107l-16 143q-61 47 -151 47 t-130.5 -38.5t-40.5 -86t11.5 -73.5t38.5 -49q45 -40 138.5 -82.5t138.5 -68.5t78 -58q70 -68 70 -151.5t-27 -143.5t-77 -101.5t-123 -63.5z" />
<glyph unicode="t" horiz-adv-x="696" d="M470 102q30 -12 88 -12t124 35v-82q-136 -68 -264 -68t-180 54t-52 176v680h-131v67l140 66l92 217h90v-248h289v-102h-289v-572q0 -175 93 -211z" />
<glyph unicode="u" horiz-adv-x="1165" d="M575 115q100 0 222 61v686h-144v70l250 80h84v-881q0 -19 13.5 -31t31.5 -14l90 -6v-80h-325v117q-185 -142 -328 -142q-283 0 -283 332v555h-143v70l252 80h82v-666q0 -172 106 -216q38 -15 92 -15z" />
<glyph unicode="v" horiz-adv-x="1083" d="M954 895l-358 -895h-133l-330 895l-113 12v80h453v-80l-98 -6q-17 -2 -27 -15t-4 -30l229 -641l252 641q7 16 -2 29.5t-26 15.5l-92 6v80h358v-80z" />
<glyph unicode="w" horiz-adv-x="1604" d="M1479 895l-281 -895h-145l-242 766l-270 -766h-146l-262 895l-113 12v80h449v-80l-96 -6q-17 -2 -26.5 -15t-4.5 -30l170 -637l264 768h146l237 -768l189 637q5 16 -3.5 29.5t-25.5 15.5l-94 6v80h358v-80z" />
<glyph unicode="x" horiz-adv-x="1044" d="M584 0v80l69 8q14 2 19.5 14t-0.5 23l-176 262l-201 -262q-8 -9 -5 -22t17 -15l103 -8v-80h-390v80l117 16l293 381l-278 412l-121 18v80h450v-80l-71 -10q-14 -2 -20.5 -14t-0.5 -23l162 -229l178 229q8 9 4 22t-18 15l-88 10v80h368v-80l-110 -18l-275 -350l303 -443 l111 -16v-80h-440z" />
<glyph unicode="y" horiz-adv-x="1085" d="M958 895l-393 -958q-95 -237 -186 -328q-78 -78 -178 -78q-106 0 -140 73q-10 21 -10 50q0 62 66 117l192 -88q69 69 142 241q19 44 30 78l-348 893l-113 12v80h453v-80l-98 -6q-17 -2 -27 -15t-4 -30l238 -604l243 604q7 16 -2 29.5t-26 15.5l-97 6v80h365v-80z" />
<glyph unicode="z" horiz-adv-x="946" d="M70 0v109l542 782h-356q-15 0 -26.5 -14.5t-14.5 -28.5l-20 -152h-105v291h758v-84l-561 -805h413q22 0 40 32q4 9 5 17l21 162h111v-309h-807z" />
<glyph unicode="{" horiz-adv-x="999" d="M858 -252q-273 0 -356 90q-53 57 -66 118q-18 79 -18 187v106q0 131 -19 178t-38 66t-42 29.5t-51 16.5q-48 10 -145 10v92q182 0 237 55q58 55 58 245v106q0 159 38 239q38 78 110 110q104 46 292 46v-84q-196 0 -236 -105q-22 -59 -22 -183v-77q0 -143 -19 -198.5 t-50 -94.5q-55 -70 -207 -104q204 -45 250 -178q26 -78 26 -221v-77q0 -124 16 -166t34 -61.5t48 -32t62 -18.5q52 -10 98 -10v-84z" />
<glyph unicode="|" horiz-adv-x="1024" d="M440 -483v2048h144v-2048h-144z" />
<glyph unicode="}" horiz-adv-x="999" d="M399 993l1 83q0 120 -17 161t-34.5 60.5t-47.5 32t-61 18.5q-53 10 -99 10v84q270 0 357 -90q53 -57 67 -118q17 -80 17 -187v-112q0 -130 18.5 -175t47.5 -72q49 -47 229 -47v-92q-89 0 -145 -10t-84.5 -37t-40 -55t-17.5 -60q-8 -49 -8 -132v-112q0 -159 -38 -239 q-37 -77 -110 -110q-103 -46 -293 -46v84q192 0 235 104q24 58 24 178l-1 83q0 145 19.5 199.5t40.5 80.5q64 85 217 119q-203 44 -250 176q-27 76 -27 221z" />
<glyph unicode="~" horiz-adv-x="1706" d="M1147 602q165 0 383 158v-133q-167 -116 -298 -137q-43 -7 -101.5 -7t-130.5 21.5t-145 47.5t-148 47.5t-154 21.5q-157 0 -377 -160v133q204 145 389 145q75 0 150 -21.5t149 -47t145 -47t138 -21.5z" />
<glyph unicode="&#xa1;" horiz-adv-x="1106" d="M645 1182q0 -33 -12.5 -62t-33.5 -50q-46 -46 -94.5 -46t-77 12.5t-49.5 33.5q-46 44 -46 112q0 66 46 110q46 45 111 45t110 -45q46 -46 46 -110zM629 229q0 -229 -140 -229q-103 0 -127 122q-8 44 -8 104t7 113t16 122l65 467h97l65 -469q4 -35 8.5 -65t8.5 -58 q8 -54 8 -107z" />
<glyph unicode="&#xa2;" horiz-adv-x="1153" d="M702 1036q138 0 295 -51v-301h-98l-29 178q-8 37 -21.5 43t-25.5 11.5t-29 9.5q-33 8 -92 10v-838q85 3 144 29q15 8 24 33l27 196h100v-309q-23 -23 -123 -35t-172 -12v-203h-98v207q-208 24 -328 163t-120 349q0 203 124 344q122 140 324 168v209h98v-201zM604 930 q-94 -21 -166 -117q-86 -115 -86 -291q0 -174 74 -288q69 -104 178 -130v826z" />
<glyph unicode="&#xa3;" horiz-adv-x="1153" d="M864 1391q-60 16 -105.5 16t-89 -17t-74 -46.5t-49.5 -69.5t-30 -85q-18 -79 -18 -151q0 -116 1.5 -170t2.5 -94h381v-100h-381q0 -208 -32.5 -291.5t-75 -133.5t-109.5 -93q37 3 67 6q80 6 103 6h606v-168h-973v125q177 45 212 251q12 66 12 108q1 57 -1 118l-2 72h-143 v100h141q-1 47 -1.5 87t-0.5 77v61q0 226 106 361q117 149 330 149q118 0 209 -49q115 -61 115 -168q0 -49 -39 -84q-36 -32 -77.5 -32t-84.5 10v205z" />
<glyph unicode="&#xa4;" horiz-adv-x="1241" d="M952 1141q86 -109 86 -256.5t-90 -257.5l207 -207l-72 -72l-206 207q-114 -86 -259 -86t-251 86l-207 -207l-74 74l209 207q-90 116 -90 258q0 140 86 254l-205 205l74 71l202 -205q112 91 257.5 91t259.5 -89l204 203l72 -71zM936 887q0 130 -91.5 221.5t-221.5 91.5 t-223 -92q-93 -91 -93 -221t93 -223t223 -93t221 93q92 93 92 223z" />
<glyph unicode="&#xa5;" horiz-adv-x="1221" d="M1085 1262l-219 -388h289v-90h-340l-119 -209h459v-90h-457v-344q0 -11 13 -27t41 -18l118 -10v-86h-534v86l121 10q28 2 39.5 18t11.5 27v344h-442v90h438l-111 209h-327v90h278l-203 390l-121 24v86h459v-86l-88 -14q-17 -3 -24.5 -16.5t0.5 -28.5l270 -529l297 527 q15 19 1 31t-28 14l-98 16v86h391v-86z" />
<glyph unicode="&#xa6;" horiz-adv-x="1024" d="M442 674v760h140v-760h-140zM442 -350v760h140v-760h-140z" />
<glyph unicode="&#xa7;" horiz-adv-x="1024" d="M362 946q-204 102 -204 262q0 219 222 280q75 21 147.5 21t116.5 -5t82 -12q79 -16 114 -32v-266h-97l-20 166q-111 59 -175 59t-101.5 -13t-64.5 -36q-56 -48 -56 -123q0 -68 90 -128q41 -27 92.5 -53t106 -54t106 -60.5t91.5 -73.5q91 -92 91 -212q0 -169 -157 -282 q-44 -32 -91 -50q211 -98 211 -271q0 -137 -108 -225q-106 -88 -273 -88q-130 0 -264 46q-32 11 -51 20v268h102q3 -19 5 -30t3.5 -19.5t3 -17.5t4 -23t5.5 -36t8 -58q81 -54 193 -54q145 0 195 97q16 31 16 72.5t-25 76t-66 63.5t-93.5 55.5t-107.5 54.5t-107.5 61 t-93.5 76q-91 94 -91 223q0 179 147 271q44 27 94 50zM743 614q0 93 -74 163t-208 126q-89 -30 -139 -98q-46 -62 -46 -121t18 -98t54 -74q68 -65 223 -137q102 56 153 161q19 38 19 78z" />
<glyph unicode="&#xa8;" horiz-adv-x="647" d="M647 1313q0 -47 -23 -72q-41 -43 -87 -43q-47 0 -71 25q-42 44 -42 77.5t9.5 54t24.5 35.5q35 35 68.5 35t53.5 -9t35 -24q32 -32 32 -79zM223 1313q0 -46 -24 -71q-41 -44 -88 -44q-71 0 -102 70q-9 20 -9 42.5t9 43t24 36.5q33 35 78 35q46 0 70 -24q42 -42 42 -88z " />
<glyph unicode="&#xa9;" horiz-adv-x="1778" d="M1655 739q0 -207 -105 -387q-100 -173 -274 -276q-178 -105 -387 -105t-387 105q-267 157 -352 459q-27 98 -27 204q0 207 105 387q100 173 274 276q178 105 387 105t387 -105q267 -157 352 -459q27 -98 27 -204zM1552 739q0 138 -52 259t-142 211.5t-211 143 t-235.5 52.5t-199 -24t-158.5 -67.5t-134.5 -104t-103.5 -134.5q-91 -154 -91 -336q0 -276 194.5 -470.5t469.5 -194.5q137 0 258 52t211 142.5t142 211.5t52 259zM1288 592q-20 -235 -222 -310q-71 -26 -161.5 -26t-168 21t-138.5 75q-137 120 -137 383q0 352 225 453 q79 35 197.5 35t196.5 -29t122 -74q78 -78 78 -209h-164q0 94 -59.5 147.5t-190.5 53.5q-99 0 -164 -90q-73 -100 -73 -287q3 -276 160 -334q49 -18 109 -18t102.5 21t68.5 52q47 58 55 136h164z" />
<glyph unicode="&#xaa;" horiz-adv-x="698" d="M135 1210q-49 0 -49 37t24.5 64.5t63.5 44.5q78 35 164 35t127 -13.5t65 -37.5q43 -44 43 -134v-344q0 -21 27 -26l66 -5v-47h-197l-18 72q-120 -86 -224 -86q-117 0 -159 96q-13 31 -13 67.5t12.5 65.5t54.5 56q86 56 329 104v53q0 121 -123 121q-38 0 -97 -16v-107h-96 zM451 899v213q-233 -54 -257 -124q-8 -22 -8 -42.5t7 -39t19 -32.5q29 -32 88.5 -32t150.5 57zM63 623v61h596v-61h-596z" />
<glyph unicode="&#xab;" horiz-adv-x="1229" d="M852 662l252 -396l-236 -33l-252 414l261 471l258 31zM442 662l252 -396l-235 -33l-252 414l260 471l258 31z" />
<glyph unicode="&#xac;" horiz-adv-x="1706" d="M1319 387v350h-1055v123h1178v-473h-123z" />
<glyph unicode="&#xad;" horiz-adv-x="655" d="M90 416v153h475v-153h-475z" />
<glyph unicode="&#xae;" horiz-adv-x="1714" d="M1645 717q0 -215 -107 -399q-105 -179 -284 -284q-185 -108 -400 -108q-211 0 -394 108q-178 106 -282 284q-108 184 -108 399q0 326 230 559q145 147 348 204q101 29 209 29t208.5 -28t188 -80t159.5 -124t123 -160q109 -185 109 -400zM1556 718q0 97 -25 187 t-70.5 168.5t-109 143t-141.5 110.5q-161 96 -352 96q-288 0 -494 -205q-130 -130 -180 -314q-26 -91 -26 -189t25 -187t70 -167t108.5 -142t141.5 -110q164 -97 353 -97q190 0 354 97q157 93 250 254q96 164 96 355zM1182 950q0 -172 -240 -223q151 -35 183 -152 q9 -33 17 -65.5t18.5 -62t33.5 -51.5q52 -50 172 -50v-55q-50 -10 -118.5 -10t-110.5 17.5t-67.5 46.5t-39 65.5t-25 75t-25 75t-38.5 65.5q-57 64 -178 64l-68 -2v-305q0 -9 8 -18t23 -11l78 -6v-57h-363v57l78 6q16 2 23.5 11t7.5 18v713q0 24 -31 28l-78 6v58h381 q266 0 335 -126q24 -46 24 -112zM727 755l45 -1q188 0 234 100q16 36 16 90q0 180 -256 180h-70v-368z" />
<glyph unicode="&#xaf;" horiz-adv-x="686" d="M0 1198v131h686v-131h-686z" />
<glyph unicode="&#xb0;" horiz-adv-x="655" d="M575 1249q0 -103 -72.5 -175.5t-174.5 -72.5q-103 0 -175.5 72.5t-72.5 175.5t72.5 175.5t175.5 72.5q102 0 174.5 -72.5t72.5 -175.5zM455 1249q0 52 -27 79q-48 48 -100 48q-83 0 -117 -78q-10 -23 -10 -49q0 -51 27 -79q46 -48 100 -48q52 0 80 28q47 47 47 99z" />
<glyph unicode="&#xb1;" horiz-adv-x="1706" d="M913 719v-344h-118v344h-541v117h541v344h118v-344h539v-117h-539zM254 41v117h1198v-117h-1198z" />
<glyph unicode="&#xb2;" horiz-adv-x="829" d="M82 1206q18 254 338 254q222 0 285 -134q20 -43 20 -103.5t-36 -121.5t-101 -119q-104 -94 -361 -241h482v-127h-643v117q405 279 472 411q23 45 23 76t-6.5 53.5t-22.5 42.5q-38 44 -118 44t-125 -50q-36 -41 -43 -102h-164z" />
<glyph unicode="&#xb3;" horiz-adv-x="829" d="M410 1366q-146 0 -152 -121h-166q6 105 94 161q84 54 215 54q212 0 284 -126q24 -42 24 -92t-15.5 -80t-39.5 -50q-34 -27 -117 -55q122 -28 170 -117q18 -33 18 -78q0 -101 -81 -170q-93 -78 -263 -78q-163 0 -244 78q-63 60 -63 154h164q2 -56 42.5 -92.5t91.5 -36.5 t82 10t55 29q52 40 52 104q0 44 -25 77q-54 69 -139 69h-84v90q204 0 225 93q5 25 5 48q0 86 -69 117q-26 12 -64 12z" />
<glyph unicode="&#xb4;" horiz-adv-x="719" d="M672 1327l-314 -199h-114l270 318q23 26 46 40.5t57.5 14.5t52.5 -8.5t29 -22.5q20 -24 20 -68t-47 -75z" />
<glyph unicode="&#xb5;" horiz-adv-x="1120" d="M440 -25q-128 0 -182 91v-50q0 -75 17 -158q32 -156 32 -189t-8 -54t-21 -37q-28 -33 -57.5 -33t-45.5 8.5t-29 23.5q-27 33 -27 73t5 66t12 54.5t15.5 63t15.5 84.5q17 123 17 289v780h191v-584q0 -146 12 -183.5t24 -55t29 -30.5q36 -30 89 -30t104 36.5t112 105.5v741 h191v-706q0 -125 15 -153.5t27.5 -32t28 -3.5t28 6t22.5 21q20 30 35 102h41q-14 -188 -131 -233q-36 -13 -76 -13q-154 0 -181 199q-91 -106 -141 -140q-85 -59 -164 -59z" />
<glyph unicode="&#xb6;" horiz-adv-x="1147" d="M901 1399v-1399h-102v1399h-185v-1399h-102v782q-142 0 -254 74q-135 91 -135 277q0 235 218 316q81 30 171 30h512v-80h-123z" />
<glyph unicode="&#xb7;" horiz-adv-x="575" d="M415 739.5q11 -25.5 11 -54t-11 -53.5t-30 -44q-41 -39 -84 -39t-67.5 10.5t-43.5 29.5q-40 40 -40 82.5t10.5 68t29.5 44.5q41 41 83 41t67.5 -11t44.5 -30t30 -44.5z" />
<glyph unicode="&#xb8;" horiz-adv-x="473" d="M276 -129q44 8 61.5 8t44.5 -8t47 -25q44 -39 44 -99.5t-18 -96.5t-49 -61q-63 -50 -158 -50t-164 21v80q71 -17 109 -17t62 4.5t43 14.5q42 20 42 61t-28 60.5t-55.5 19.5t-59.5 -12v229h79v-129z" />
<glyph unicode="&#xb9;" horiz-adv-x="829" d="M395 614v658q-92 -69 -219 -98v126q83 30 180 106q25 19 33 30h162v-822h-156z" />
<glyph unicode="&#xba;" horiz-adv-x="733" d="M684 1078q0 -64 -22.5 -120.5t-63.5 -97.5q-88 -90 -231 -90q-146 0 -232 88q-86 87 -86 221t87 222q88 90 235 90q145 0 231 -91q82 -88 82 -222zM55 623v61h625v-61h-625zM536 983q11 46 11 96.5t-11 96.5t-33 82q-48 77 -134 77q-88 0 -136 -77q-43 -70 -43 -179 q0 -168 99 -233q33 -21 78.5 -21t79 21t56 56t33.5 81z" />
<glyph unicode="&#xbb;" horiz-adv-x="1229" d="M762 264l-258 -31l282 488l-251 395l235 33l252 -414zM352 264l-258 -31l283 488l-252 395l235 33l252 -414z" />
<glyph unicode="&#xbc;" horiz-adv-x="1792" d="M1542 233v-276h-115v276h-426v86l451 512h90v-514h152v-84h-152zM506 0h-131l909 1430h129zM141 604v55l135 5q29 4 29 26v649l-207 -32v55l289 82h49v-754q0 -21 31 -26l125 -5v-55h-451zM1427 688l-319 -371h319v371z" />
<glyph unicode="&#xbd;" horiz-adv-x="1792" d="M1245 610q-23 -20 -60 -20q-85 0 -85 72q0 76 86 128q83 50 203 50q129 0 204.5 -64t75.5 -172q0 -161 -281 -372q-81 -62 -171 -128h393l22 107h68v-211h-625v82q102 78 185.5 143.5t143.5 126.5q124 126 124 242q0 131 -104 167q-32 11 -78.5 11t-100.5 -27v-135z M489 0h-129l910 1430h129zM137 604v55l135 5q29 4 29 26v649l-207 -32v55l289 82h49v-754q0 -21 31 -26l125 -5v-55h-451z" />
<glyph unicode="&#xbe;" horiz-adv-x="1792" d="M1565 233v-276h-115v276h-426v86l451 512h90v-514h151v-84h-151zM236 1227q-34 -17 -53 -17t-32.5 3.5t-24.5 11.5q-28 19 -28 54.5t22.5 66t61.5 52.5q81 48 203 48q186 0 248 -121q20 -39 20 -98t-52.5 -110t-151.5 -77q155 -7 215 -109q22 -36 22 -89.5t-26 -99.5 t-72 -79q-95 -69 -242 -69q-126 0 -202 46q-66 41 -66 91q0 45 43 63q15 7 29 7q35 0 51 -10l41 -109q50 -27 102 -27t89 15.5t63 41.5q55 55 55 116t-18 90t-45 46q-51 31 -110 31t-95 -4v76h34q141 0 185 85q16 30 16 69.5t-13.5 68.5t-36.5 48q-47 40 -118.5 40 t-113.5 -28v-123zM526 0h-129l910 1430h129zM1450 688l-320 -371h320v371z" />
<glyph unicode="&#xbf;" horiz-adv-x="995" d="M711 1280q0 -52 -27 -79q-46 -46 -85.5 -46t-62.5 10t-40 27q-37 35 -37 90q0 52 27 79q46 46 100 46q52 0 78 -27q47 -49 47 -100zM882.5 226.5q10.5 -21.5 10.5 -54t-19.5 -68.5t-59.5 -64q-91 -65 -247 -65q-184 0 -303 100q-123 102 -123 267q0 172 135 294 q85 76 254 150v230h115v-297q-192 -64 -269 -225q-28 -60 -28 -136q0 -280 293 -280l84 207l27 3q6 1 21 1t39 -6.5t42 -20.5t28.5 -35.5z" />
<glyph unicode="&#xc0;" horiz-adv-x="1380" d="M664 1524l-312 198q-49 33 -49 82q0 59 51 84q18 8 42 8t39.5 -3.5t27.5 -10.5q16 -10 43 -41l272 -317h-114zM883 0v88l118 10q10 0 17 13.5t4 21.5l-141 375h-473l-136 -369q-7 -20 18 -37q6 -4 11 -4l121 -10v-88h-412v88l119 25l477 1294h154l475 -1264 q7 -21 13.5 -28t29.5 -11l92 -16v-88h-487zM643 1143l-199 -537h400z" />
<glyph unicode="&#xc1;" horiz-adv-x="1380" d="M981 1722l-309 -198h-117l272 317q22 26 45 40.5t57 14.5t51.5 -8.5t27.5 -21.5q20 -26 20 -70t-47 -74zM883 0v88l118 10q10 0 17 13.5t4 21.5l-141 375h-473l-136 -369q-7 -20 18 -37q6 -4 11 -4l121 -10v-88h-412v88l119 25l477 1294h154l475 -1264q7 -21 13.5 -28 t29.5 -11l92 -16v-88h-487zM643 1143l-199 -537h400z" />
<glyph unicode="&#xc2;" horiz-adv-x="1380" d="M870 1524l-211 205l-213 -205h-122l258 348h153l258 -348h-123zM883 0v88l118 10q10 0 17 13.5t4 21.5l-141 375h-473l-136 -369q-7 -20 18 -37q6 -4 11 -4l121 -10v-88h-412v88l119 25l477 1294h154l475 -1264q7 -21 13.5 -28t29.5 -11l92 -16v-88h-487zM643 1143 l-199 -537h400z" />
<glyph unicode="&#xc3;" horiz-adv-x="1380" d="M317 1587q60 225 238 225q41 0 72 -15.5t61 -33.5q84 -49 152 -49q39 0 62 22q40 37 44 76h82q-27 -102 -68 -145q-76 -80 -169 -80q-41 0 -71.5 15.5t-61.5 33.5q-81 50 -150 50q-63 0 -96 -63q-10 -18 -13 -36h-82zM883 0v88l118 10q10 0 17 13.5t4 21.5l-141 375h-473 l-136 -369q-7 -20 18 -37q6 -4 11 -4l121 -10v-88h-412v88l119 25l477 1294h154l475 -1264q7 -21 13.5 -28t29.5 -11l92 -16v-88h-487zM643 1143l-199 -537h400z" />
<glyph unicode="&#xc4;" horiz-adv-x="1380" d="M993 1702q0 -46 -24 -71q-41 -44 -88 -44t-71 25q-42 44 -42 77.5t9.5 54t24.5 36.5q34 35 68 35t54.5 -9t35.5 -24q33 -35 33 -80zM569 1702q0 -46 -24 -71q-41 -44 -88 -44q-45 0 -70 25q-43 43 -43 76.5t9 54.5t25 37q35 35 79 35q47 0 70 -25q42 -43 42 -88zM883 0 v88l118 10q10 0 17 13.5t4 21.5l-141 375h-473l-136 -369q-7 -20 18 -37q6 -4 11 -4l121 -10v-88h-412v88l119 25l477 1294h154l475 -1264q7 -21 13.5 -28t29.5 -11l92 -16v-88h-487zM643 1143l-199 -537h400z" />
<glyph unicode="&#xc5;" horiz-adv-x="1380" d="M926 1780q0 -108 -75 -182q-76 -74 -181 -74q-106 0 -180 74t-74 182q0 106 74 180t180 74q105 0 181 -74q75 -74 75 -180zM883 0v88l118 10q10 0 17 13.5t4 21.5l-141 375h-473l-136 -369q-7 -20 18 -37q6 -4 11 -4l121 -10v-88h-412v88l119 25l477 1294h154l475 -1264 q7 -21 13.5 -28t29.5 -11l92 -16v-88h-487zM792.5 1728q10.5 24 10.5 51.5t-10.5 52t-28.5 42.5q-39 39 -80.5 39t-65.5 -10.5t-42 -28.5q-39 -39 -39 -80.5t10.5 -65.5t28.5 -42q39 -39 80 -39t65.5 10.5t42.5 28.5t28.5 42zM643 1143l-199 -537h400z" />
<glyph unicode="&#xc6;" horiz-adv-x="1911" d="M831 0v88l101 8q22 2 37.5 16.5t15.5 28.5v371h-473l-229 -371q-11 -17 -5.5 -29t19.5 -14l117 -10v-88h-404v88l109 16l696 1131q9 15 -3 28t-26 15l-100 10v86h1086v-305h-119l-29 168q-8 39 -35 39h-397v-510l258 -2q14 0 24.5 13t12.5 24l18 141h101v-457h-101 l-18 144q-2 11 -13.5 23t-23.5 12h-258v-564h469q19 0 33 27q3 7 4 12l31 203h116v-342h-1014zM985 1280l-416 -668h416v668z" />
<glyph unicode="&#xc7;" horiz-adv-x="1284" d="M844 -236.5q-28 19.5 -55.5 19.5t-59.5 -12v198q-302 23 -481 238q-168 201 -168 483q0 318 198 518q198 199 519 199q129 0 292 -46q53 -15 115 -34v-321h-123l-30 186q-2 14 -14 28t-22.5 19t-30 14t-46.5 17q-68 22 -152 22t-174 -37.5t-156 -112.5 q-141 -160 -141 -446t138 -451t381 -165q95 0 165 35q32 12 39 41l47 223h119v-332q-74 -37 -195.5 -58t-197.5 -22v-96q44 8 61 8t44 -8t48 -25q44 -38 44 -99t-18 -97t-50 -61q-66 -50 -160.5 -50t-163.5 21v80q71 -17 125 -17q131 0 131 84q0 37 -28 56.5z" />
<glyph unicode="&#xc8;" horiz-adv-x="1194" d="M635 1524l-311 198q-48 31 -48 84q0 58 50 82q18 8 52 8t55 -14.5t44 -40.5l275 -317h-117zM66 0v88l106 8q22 2 33.5 16t11.5 29v1092q0 15 -11.5 29t-33.5 16l-106 8v88h995v-305h-123l-31 168q-2 15 -12.5 27t-24.5 12h-444v-510h307q14 0 25.5 12t11.5 23l21 141h104 v-457h-104l-21 142q0 11 -12 24t-25 13h-307v-564h518q13 0 24 14t13 25l37 203h110v-342h-1062z" />
<glyph unicode="&#xc9;" horiz-adv-x="1194" d="M911 1722l-311 -198h-115l275 317q21 26 42 40.5t55 14.5t53 -8.5t30 -21.5q23 -27 23 -69t-52 -75zM66 0v88l106 8q22 2 33.5 16t11.5 29v1092q0 15 -11.5 29t-33.5 16l-106 8v88h995v-305h-123l-31 168q-2 15 -12.5 27t-24.5 12h-444v-510h307q14 0 25.5 12t11.5 23 l21 141h104v-457h-104l-21 142q0 11 -12 24t-25 13h-307v-564h518q13 0 24 14t13 25l37 203h110v-342h-1062z" />
<glyph unicode="&#xca;" horiz-adv-x="1194" d="M823 1524l-211 205l-211 -205h-120l258 348h151l256 -348h-123zM66 0v88l106 8q22 2 33.5 16t11.5 29v1092q0 15 -11.5 29t-33.5 16l-106 8v88h995v-305h-123l-31 168q-2 15 -12.5 27t-24.5 12h-444v-510h307q14 0 25.5 12t11.5 23l21 141h104v-457h-104l-21 142 q0 11 -12 24t-25 13h-307v-564h518q13 0 24 14t13 25l37 203h110v-342h-1062z" />
<glyph unicode="&#xcb;" horiz-adv-x="1194" d="M950 1702q0 -46 -23 -72q-39 -43 -85 -43q-47 0 -72 25q-43 43 -43 77t10 54.5t26 36.5q35 35 68.5 35t53 -9t33.5 -24q32 -34 32 -80zM526 1702q0 -47 -24 -72q-40 -43 -86 -43q-45 0 -70 25q-43 43 -43 76.5t9 54.5t25 37q35 35 79 35q46 0 69 -25q41 -42 41 -88zM66 0 v88l106 8q22 2 33.5 16t11.5 29v1092q0 15 -11.5 29t-33.5 16l-106 8v88h995v-305h-123l-31 168q-2 15 -12.5 27t-24.5 12h-444v-510h307q14 0 25.5 12t11.5 23l21 141h104v-457h-104l-21 142q0 11 -12 24t-25 13h-307v-564h518q13 0 24 14t13 25l37 203h110v-342h-1062z " />
<glyph unicode="&#xcc;" horiz-adv-x="676" d="M356 1524l-311 198q-47 30 -47 84q0 58 49 82q18 8 42 8t39 -3.5t27 -10.5q18 -11 44 -41l274 -317h-117zM68 0v88l122 8q22 2 32.5 16t10.5 29v1092q0 39 -43 43l-122 8v90h540v-90l-125 -8q-21 -2 -32 -15t-11 -28v-1092q0 -15 11 -29t32 -16l125 -8v-88h-540z" />
<glyph unicode="&#xcd;" horiz-adv-x="676" d="M614 1722l-311 -198h-117l275 317q23 26 44 40.5t55 14.5t52 -8.5t30 -21.5q20 -23 20 -68t-48 -76zM68 0v88l122 8q22 2 32.5 16t10.5 29v1092q0 39 -43 43l-122 8v90h540v-90l-125 -8q-21 -2 -32 -15t-11 -28v-1092q0 -15 11 -29t32 -16l125 -8v-88h-540z" />
<glyph unicode="&#xce;" horiz-adv-x="676" d="M551 1524l-211 205l-211 -205h-127l258 348h158l256 -348h-123zM68 0v88l122 8q22 2 32.5 16t10.5 29v1092q0 39 -43 43l-122 8v90h540v-90l-125 -8q-21 -2 -32 -15t-11 -28v-1092q0 -15 11 -29t32 -16l125 -8v-88h-540z" />
<glyph unicode="&#xcf;" horiz-adv-x="676" d="M662 1702q0 -46 -24 -71q-41 -44 -87 -44q-47 0 -71 25q-42 44 -42 77.5t9.5 54t24.5 36.5q34 35 67 35t53.5 -9t35.5 -24q34 -34 34 -80zM238 1702q0 -46 -24 -72q-42 -43 -76.5 -43t-54.5 9t-35 25q-34 35 -34 68t9 54t25 37q33 35 66.5 35t54 -9t35.5 -24 q34 -34 34 -80zM68 0v88l122 8q22 2 32.5 16t10.5 29v1092q0 39 -43 43l-122 8v90h540v-90l-125 -8q-21 -2 -32 -15t-11 -28v-1092q0 -15 11 -29t32 -16l125 -8v-88h-540z" />
<glyph unicode="&#xd0;" horiz-adv-x="1425" d="M1287 1001q59 -131 59 -296t-44.5 -290.5t-133.5 -217.5q-191 -197 -531 -197h-571v88l108 8q20 2 31.5 16.5t11.5 28.5v527h-186v104h186v461q0 15 -13.5 28t-29.5 15l-108 10v88h526q527 0 695 -373zM1114 686q0 590 -532 590h-158v-504h328v-104h-328v-570h160 q391 0 495 328q35 110 35 260z" />
<glyph unicode="&#xd1;" horiz-adv-x="1477" d="M1114 1812q-60 -225 -235 -225q-41 0 -72 15.5t-61 33.5q-82 50 -152 50q-39 0 -63 -22q-37 -37 -44 -77h-81q38 156 146 207q39 18 84.5 18t76.5 -15.5t61 -33.5q84 -49 152 -49q39 0 62 22q40 37 44 76h82zM1303 1278q-22 -2 -32.5 -16t-10.5 -29v-1233h-160l-762 1147 v-1006q0 -15 10.5 -29t32.5 -16l117 -8v-88h-443v88l117 8q22 2 33.5 16t11.5 29v1092q0 15 -11.5 29t-33.5 16l-121 8v88h406v-51l682 -1030v940q0 15 -11 29t-32 16l-117 8v88h438v-88z" />
<glyph unicode="&#xd2;" horiz-adv-x="1497" d="M739 1524l-311 198q-47 30 -47 84q0 58 49 82q18 8 42 8t39 -3.5t27 -10.5q18 -11 44 -41l274 -317h-117zM1417 686q0 -304 -183 -508q-189 -211 -484 -211q-299 0 -486 206q-184 203 -184 515q0 307 181 510q187 209 487 209q297 0 486 -212q183 -204 183 -509z M1180 686q0 123 -27 233.5t-81 192.5q-116 178 -322 178q-212 0 -329 -178q-106 -162 -106 -424t107 -427q116 -181 323 -181q210 0 328 180q107 164 107 426z" />
<glyph unicode="&#xd3;" horiz-adv-x="1497" d="M1059 1722l-311 -198h-117l274 317q37 44 61.5 49.5t48.5 5.5t42 -8.5t29 -21.5q20 -24 20 -68.5t-47 -75.5zM1417 686q0 -304 -183 -508q-189 -211 -484 -211q-299 0 -486 206q-184 203 -184 515q0 307 181 510q187 209 487 209q297 0 486 -212q183 -204 183 -509z M1180 686q0 123 -27 233.5t-81 192.5q-116 178 -322 178q-212 0 -329 -178q-106 -162 -106 -424t107 -427q116 -181 323 -181q210 0 328 180q107 164 107 426z" />
<glyph unicode="&#xd4;" horiz-adv-x="1497" d="M958 1524l-210 205l-211 -205h-123l256 348h153l258 -348h-123zM1417 686q0 -304 -183 -508q-189 -211 -484 -211q-299 0 -486 206q-184 203 -184 515q0 307 181 510q187 209 487 209q297 0 486 -212q183 -204 183 -509zM1180 686q0 123 -27 233.5t-81 192.5 q-116 178 -322 178q-212 0 -329 -178q-106 -162 -106 -424t107 -427q116 -181 323 -181q210 0 328 180q107 164 107 426z" />
<glyph unicode="&#xd5;" horiz-adv-x="1497" d="M389 1587q60 225 238 225q58 0 131.5 -49t150.5 -49q65 0 97 62q10 18 12 36h82q-41 -155 -149 -206q-39 -19 -84.5 -19t-76 15.5t-60.5 33.5q-82 50 -152 50q-40 0 -64 -22q-39 -38 -43 -77h-82zM1417 686q0 -304 -183 -508q-189 -211 -484 -211q-299 0 -486 206 q-184 203 -184 515q0 307 181 510q187 209 487 209q297 0 486 -212q183 -204 183 -509zM1180 686q0 123 -27 233.5t-81 192.5q-116 178 -322 178q-212 0 -329 -178q-106 -162 -106 -424t107 -427q116 -181 323 -181q210 0 328 180q107 164 107 426z" />
<glyph unicode="&#xd6;" horiz-adv-x="1499" d="M1069 1702q0 -47 -23 -72q-41 -43 -88 -43q-73 0 -103 71q-9 21 -9 43t9 42.5t25 36.5q33 35 66 35t53.5 -9t36.5 -24q33 -34 33 -80zM645 1702q0 -46 -25 -72q-41 -43 -75.5 -43t-54.5 9t-35 25q-33 35 -33 68t9 54t24 37q33 35 66.5 35t54 -9t36.5 -24q33 -34 33 -80z M1417 686q0 -304 -183 -508q-189 -211 -484 -211q-299 0 -486 206q-184 203 -184 515q0 307 181 510q187 209 487 209q297 0 486 -212q183 -204 183 -509zM1180 686q0 123 -27 233.5t-81 192.5q-116 178 -322 178q-212 0 -329 -178q-106 -162 -106 -424t107 -427 q116 -181 323 -181q210 0 328 180q107 164 107 426z" />
<glyph unicode="&#xd7;" horiz-adv-x="1202" d="M911 158l-303 295l-301 -297l-153 153l301 297l-299 305l151 152l299 -305l299 303l154 -154l-299 -303l303 -295z" />
<glyph unicode="&#xd8;" horiz-adv-x="1497" d="M1268 1475l-119 -199q194 -149 250 -414q18 -85 18 -205t-48 -251t-135 -228q-189 -211 -484 -211q-184 0 -330 82q-21 -35 -127 -211l-94 58l129 217q-178 145 -231 403q-17 82 -17 202t47 251t134 229q187 209 487 209q167 0 307 -72l116 197zM496 174q102 -94 231 -94 t210.5 49t135.5 131q107 164 107 424q0 279 -117 444q-421 -707 -567 -954zM981 1212q-94 78 -218 78t-206 -48t-136 -130q-106 -162 -106 -424q0 -256 105 -422z" />
<glyph unicode="&#xd9;" horiz-adv-x="1458" d="M750 1524l-312 198q-47 31 -47 84q0 58 49 82q18 8 42 8t39.5 -3.5t27.5 -10.5q16 -10 43 -41l274 -317h-116zM715 -33q-500 0 -500 488v778q0 15 -10.5 29t-32.5 16l-109 8v88h521v-88l-117 -8q-22 -2 -32.5 -16t-10.5 -29v-725q0 -200 66 -292q80 -112 280 -112 q285 0 335 245q15 74 15 159v725q0 15 -11.5 29t-33.5 16l-117 8v88h445v-88l-119 -8q-22 -2 -32.5 -16t-10.5 -29v-778q0 -488 -526 -488z" />
<glyph unicode="&#xda;" horiz-adv-x="1458" d="M1067 1722l-311 -198h-117l272 317q22 26 45 40.5t57 14.5t52 -8.5t29 -21.5q20 -24 20 -69t-47 -75zM715 -33q-500 0 -500 488v778q0 15 -10.5 29t-32.5 16l-109 8v88h521v-88l-117 -8q-22 -2 -32.5 -16t-10.5 -29v-725q0 -200 66 -292q80 -112 280 -112q285 0 335 245 q15 74 15 159v725q0 15 -11.5 29t-33.5 16l-117 8v88h445v-88l-119 -8q-22 -2 -32.5 -16t-10.5 -29v-778q0 -488 -526 -488z" />
<glyph unicode="&#xdb;" horiz-adv-x="1458" d="M967 1524l-213 205l-211 -205h-123l258 348h153l259 -348h-123zM715 -33q-500 0 -500 488v778q0 15 -10.5 29t-32.5 16l-109 8v88h521v-88l-117 -8q-22 -2 -32.5 -16t-10.5 -29v-725q0 -200 66 -292q80 -112 280 -112q285 0 335 245q15 74 15 159v725q0 15 -11.5 29 t-33.5 16l-117 8v88h445v-88l-119 -8q-22 -2 -32.5 -16t-10.5 -29v-778q0 -488 -526 -488z" />
<glyph unicode="&#xdc;" horiz-adv-x="1458" d="M1085 1702q0 -47 -23 -72q-41 -43 -87 -43q-47 0 -71 25q-42 44 -42 77.5t9 54t25 36.5q33 35 66.5 35t54 -9t35.5 -24q33 -35 33 -80zM662 1702q0 -46 -24 -72q-42 -43 -89 -43q-70 0 -102 70q-9 20 -9 42.5t9 43.5t24 37q33 35 78 35q46 0 71 -25q42 -42 42 -88z M715 -33q-500 0 -500 488v778q0 15 -10.5 29t-32.5 16l-109 8v88h521v-88l-117 -8q-22 -2 -32.5 -16t-10.5 -29v-725q0 -200 66 -292q80 -112 280 -112q285 0 335 245q15 74 15 159v725q0 15 -11.5 29t-33.5 16l-117 8v88h445v-88l-119 -8q-22 -2 -32.5 -16t-10.5 -29v-778 q0 -488 -526 -488z" />
<glyph unicode="&#xdd;" horiz-adv-x="1280" d="M928 1722l-312 -198h-116l272 317q22 26 44.5 40.5t57 14.5t52.5 -8.5t29 -21.5q20 -24 20 -68.5t-47 -75.5zM1151 1266l-412 -682v-443q0 -15 11 -29t32 -16l131 -8v-88h-553v88l127 8q22 2 33.5 16t11.5 29v412l-393 709l-119 24v88h486v-88l-103 -10q-42 -5 -24 -41 l289 -535l317 529q9 15 0 28t-24 15l-115 14v88h416v-88z" />
<glyph unicode="&#xde;" horiz-adv-x="1184" d="M785 297.5q-98 -28.5 -183.5 -28t-177.5 11.5v-140q0 -18 13 -30.5t32 -14.5l119 -8v-88h-522v88l104 8q19 2 32 14.5t13 30.5v1092q0 18 -13 30.5t-32 14.5l-104 8v88h522v-88l-119 -8q-19 -2 -32 -14.5t-13 -30.5v-115l139 -2q283 -4 411 -98q130 -96 130 -309 q0 -209 -150 -327q-71 -56 -169 -84.5zM424 383q92 -8 119 -8q164 -2 245.5 79t81.5 255q0 233 -168 291q-61 21 -151 21l-31 -1q-2 2 -17.5 1t-34 -2.5t-44.5 -2.5v-633z" />
<glyph unicode="&#xdf;" horiz-adv-x="1286" d="M1024 956l-45 5q-144 0 -181 -97q-10 -28 -10 -62.5t18.5 -64t48.5 -54t68.5 -47t79 -46t79 -50.5t68.5 -60q67 -75 67 -162.5t-28.5 -148.5t-76.5 -104q-102 -90 -252 -90q-93 0 -242 52v274h111l19 -178q54 -51 107.5 -51t85 14.5t53.5 38.5q48 51 48 114.5t-32.5 104 t-81 73.5t-105.5 63.5t-105 66.5q-114 84 -114 194q0 107 71 184q66 72 177 97q18 97 18 145t-12.5 91t-37.5 76q-57 73 -156 73q-214 0 -270 -275q-19 -90 -19 -184v-813q0 -43 31 -49l104 -8v-78h-465v78l98 10q19 2 30 17.5t11 29.5v793q0 234 123 396q140 185 393 185 q263 0 336 -199q23 -63 23 -138.5t-35 -215.5z" />
<glyph unicode="&#xe0;" horiz-adv-x="1042" d="M193 711q-76 0 -76 61t38 106.5t99 75.5q118 58 289 58q259 0 308 -184q15 -56 15 -123v-574q0 -19 12.5 -31t30.5 -14l99 -6v-80h-303l-27 121q-192 -146 -342 -146q-115 0 -189 74q-77 77 -77 203q0 85 30.5 127.5t72 72t109.5 58.5q136 59 396 115v88q0 103 -46 152.5 t-135.5 49.5t-154.5 -26v-178h-149zM426 96q106 0 252 97v354q-357 -90 -394 -207q-12 -36 -12 -71t10.5 -65.5t29.5 -54.5q44 -53 114 -53zM526 1128l-311 199q-47 30 -47 82q0 60 49 83q18 9 42 9t39 -3.5t27 -10.5q18 -11 44 -41l274 -318h-117z" />
<glyph unicode="&#xe1;" horiz-adv-x="1042" d="M193 711q-76 0 -76 61t38 106.5t99 75.5q118 58 289 58q259 0 308 -184q15 -56 15 -123v-574q0 -19 12.5 -31t30.5 -14l99 -6v-80h-303l-27 121q-192 -146 -342 -146q-115 0 -189 74q-77 77 -77 203q0 85 30.5 127.5t72 72t109.5 58.5q136 59 396 115v88q0 103 -46 152.5 t-135.5 49.5t-154.5 -26v-178h-149zM426 96q106 0 252 97v354q-357 -90 -394 -207q-12 -36 -12 -71t10.5 -65.5t29.5 -54.5q44 -53 114 -53zM813 1327l-311 -199h-117l274 318q23 26 44.5 40.5t55.5 14.5t52 -8.5t29 -22.5q20 -24 20 -68.5t-47 -74.5z" />
<glyph unicode="&#xe2;" horiz-adv-x="1042" d="M193 711q-76 0 -76 61t38 106.5t99 75.5q118 58 289 58q259 0 308 -184q15 -56 15 -123v-574q0 -19 12.5 -31t30.5 -14l99 -6v-80h-303l-27 121q-192 -146 -342 -146q-115 0 -189 74q-77 77 -77 203q0 85 30.5 127.5t72 72t109.5 58.5q136 59 396 115v88q0 103 -46 152.5 t-135.5 49.5t-154.5 -26v-178h-149zM426 96q106 0 252 97v354q-357 -90 -394 -207q-12 -36 -12 -71t10.5 -65.5t29.5 -54.5q44 -53 114 -53zM705 1128l-211 203l-211 -203h-125l258 347h155l256 -347h-122z" />
<glyph unicode="&#xe3;" horiz-adv-x="1042" d="M193 711q-76 0 -76 61t38 106.5t99 75.5q118 58 289 58q259 0 308 -184q15 -56 15 -123v-574q0 -19 12.5 -31t30.5 -14l99 -6v-80h-303l-27 121q-192 -146 -342 -146q-115 0 -189 74q-77 77 -77 203q0 85 30.5 127.5t72 72t109.5 58.5q136 59 396 115v88q0 103 -46 152.5 t-135.5 49.5t-154.5 -26v-178h-149zM426 96q106 0 252 97v354q-357 -90 -394 -207q-12 -36 -12 -71t10.5 -65.5t29.5 -54.5q44 -53 114 -53zM864 1423q-38 -154 -148 -207q-39 -18 -84.5 -18t-76.5 15.5t-61 33.5q-84 49 -152 49q-39 0 -62 -22q-40 -37 -44 -76h-82 q38 156 148 207q39 18 84.5 18t76 -15.5t61.5 -33.5q83 -49 150 -49q40 0 63 22q41 38 45 76h82z" />
<glyph unicode="&#xe4;" horiz-adv-x="1042" d="M193 711q-76 0 -76 61t38 106.5t99 75.5q118 58 289 58q259 0 308 -184q15 -56 15 -123v-574q0 -19 12.5 -31t30.5 -14l99 -6v-80h-303l-27 121q-192 -146 -342 -146q-115 0 -189 74q-77 77 -77 203q0 85 30.5 127.5t72 72t109.5 58.5q136 59 396 115v88q0 103 -46 152.5 t-135.5 49.5t-154.5 -26v-178h-149zM426 96q106 0 252 97v354q-357 -90 -394 -207q-12 -36 -12 -71t10.5 -65.5t29.5 -54.5q44 -53 114 -53zM840 1313q0 -46 -24 -72q-42 -43 -89 -43q-46 0 -70 25q-41 44 -41 77.5t9.5 54t24.5 35.5q35 35 67.5 35t53 -9t35.5 -24 q34 -32 34 -79zM414 1313q0 -46 -24 -72q-42 -43 -76.5 -43t-54 9t-34.5 25q-32 34 -32 67.5t9 54t24 36.5q33 35 66.5 35t54 -9t35.5 -24q32 -32 32 -79z" />
<glyph unicode="&#xe5;" horiz-adv-x="1042" d="M193 711q-76 0 -76 61t38 106.5t99 75.5q118 58 289 58q259 0 308 -184q15 -56 15 -123v-574q0 -19 12.5 -31t30.5 -14l99 -6v-80h-303l-27 121q-192 -146 -342 -146q-115 0 -189 74q-77 77 -77 203q0 85 30.5 127.5t72 72t109.5 58.5q136 59 396 115v88q0 103 -46 152.5 t-135.5 49.5t-154.5 -26v-178h-149zM766 1372q0 -102 -71 -173t-173 -71q-101 0 -172 71t-71 173t71 173t172 71q102 0 173 -71t71 -173zM426 96q106 0 252 97v354q-357 -90 -394 -207q-12 -36 -12 -71t10.5 -65.5t29.5 -54.5q44 -53 114 -53zM666 1372q0 59 -42.5 101.5 t-101.5 42.5t-102 -42q-41 -42 -41 -102t41.5 -101.5t101.5 -41.5t102 41q42 43 42 102z" />
<glyph unicode="&#xe6;" horiz-adv-x="1477" d="M836 252q139 -139 297 -139q120 0 217 69q29 20 57 43v-123q-175 -127 -340 -127q-151 0 -276 78q-56 34 -97 78q-191 -156 -360 -156q-125 0 -196 77q-68 74 -68 173.5t31.5 154.5t100 96t178 75t265.5 74v84q0 158 -93 193q-34 13 -91.5 13t-122.5 -26v-178h-143 q-41 0 -59.5 12t-18.5 50.5t17 73t46 61t68 46.5t84 32q90 26 174 26t131.5 -12.5t77.5 -31.5q38 -23 76 -77q60 75 171 107q46 14 121 14t140 -34t105 -92q79 -111 79 -290q0 -16 -4 -72h-567v-272zM645 193v354q-221 -61 -303 -122q-76 -58 -76 -153q0 -74 28 -110 q113 -142 351 31zM1204 674q0 161 -96 220q-33 21 -84 21t-88 -26.5t-60 -69.5q-40 -77 -40 -207h368v62z" />
<glyph unicode="&#xe7;" horiz-adv-x="954" d="M618 104q122 0 267 97v-117q-178 -100 -322 -109v-104q44 8 61 8t44 -8t48 -25q44 -38 44 -99t-18 -97t-50 -61q-62 -50 -156.5 -50t-166.5 21v80q71 -17 110 -17t63 4.5t43 14.5q42 20 42 61t-29 60.5t-58 19.5t-57 -12v206q-188 18 -301 161q-112 141 -112 349 q0 247 148 391q137 134 345 134q218 0 293 -118q25 -39 25 -79t-10.5 -62.5t-27.5 -36.5q-35 -30 -86.5 -30t-99.5 33v180q-47 27 -100.5 27t-108 -31t-92.5 -86q-77 -114 -77 -295q0 -179 85 -290q92 -120 254 -120z" />
<glyph unicode="&#xe8;" horiz-adv-x="1004" d="M539 1128l-312 199q-47 31 -47 82q0 60 49 83q18 9 42 9t39.5 -3.5t27.5 -10.5q16 -10 43 -41l274 -318h-116zM445 138q66 -38 181 -38t308 127v-125q-202 -127 -389 -127q-199 0 -331 126q-144 139 -144 382q0 237 136 385q133 144 345 144q185 0 287 -118 q96 -112 96 -302v-27q0 -16 -2 -30h-664q0 -293 177 -397zM729 672q0 166 -111 220q-37 19 -88 19q-104 0 -172 -76q-71 -78 -79 -208h450v45z" />
<glyph unicode="&#xe9;" horiz-adv-x="1004" d="M844 1327l-312 -199h-116l272 318q22 26 44.5 40.5t57 14.5t52.5 -8.5t29 -22.5q20 -24 20 -68t-47 -75zM445 138q66 -38 181 -38t308 127v-125q-202 -127 -389 -127q-199 0 -331 126q-144 139 -144 382q0 237 136 385q133 144 345 144q185 0 287 -118q96 -112 96 -302 v-27q0 -16 -2 -30h-664q0 -293 177 -397zM729 672q0 166 -111 220q-37 19 -88 19q-104 0 -172 -76q-71 -78 -79 -208h450v45z" />
<glyph unicode="&#xea;" horiz-adv-x="1004" d="M727 1128l-211 203l-211 -203h-123l256 347h154l258 -347h-123zM445 138q66 -38 181 -38t308 127v-125q-202 -127 -389 -127q-199 0 -331 126q-144 139 -144 382q0 237 136 385q133 144 345 144q185 0 287 -118q96 -112 96 -302v-27q0 -16 -2 -30h-664q0 -293 177 -397z M729 672q0 166 -111 220q-37 19 -88 19q-104 0 -172 -76q-71 -78 -79 -208h450v45z" />
<glyph unicode="&#xeb;" horiz-adv-x="1004" d="M846 1313q0 -46 -24 -72q-42 -43 -89 -43q-73 0 -103 71q-9 21 -9 43t9 42.5t24 35.5q35 35 67.5 35t53.5 -9t37 -24q34 -33 34 -79zM420 1313q0 -46 -24 -72q-42 -43 -76.5 -43t-54.5 9t-35 25q-33 35 -33 68t9 53.5t24 36.5q33 35 66.5 35t54 -9t35.5 -24 q34 -32 34 -79zM445 138q66 -38 181 -38t308 127v-125q-202 -127 -389 -127q-199 0 -331 126q-144 139 -144 382q0 237 136 385q133 144 345 144q185 0 287 -118q96 -112 96 -302v-27q0 -16 -2 -30h-664q0 -293 177 -397zM729 672q0 166 -111 220q-37 19 -88 19 q-104 0 -172 -76q-71 -78 -79 -208h450v45z" />
<glyph unicode="&#xec;" horiz-adv-x="621" d="M332 1128l-312 199q-49 33 -49 82q0 60 51 83q19 9 43 9t39 -3.5t27 -10.5q16 -10 43 -41l272 -318h-114zM70 0v80l100 6q43 5 43 45v731h-141v70l250 78h81v-879q0 -19 12.5 -31t30.5 -14l105 -6v-80h-481z" />
<glyph unicode="&#xed;" horiz-adv-x="621" d="M506 1327l-311 -199h-117l272 318q22 26 44.5 40.5t57 14.5t52.5 -8.5t29 -22.5q20 -24 20 -68.5t-47 -74.5zM70 0v80l100 6q43 5 43 45v731h-141v70l250 78h81v-879q0 -19 12.5 -31t30.5 -14l105 -6v-80h-481z" />
<glyph unicode="&#xee;" horiz-adv-x="621" d="M522 1128l-213 203l-211 -203h-123l258 347h154l258 -347h-123zM72 0v80l98 6q43 4 43 45v731h-139v70l250 78h79v-879q0 -19 12.5 -31t30.5 -14l107 -6v-80h-481z" />
<glyph unicode="&#xef;" horiz-adv-x="621" d="M633 1313q0 -46 -25 -72q-41 -43 -88 -43q-46 0 -70 25q-40 43 -40 77t9 54.5t25 35.5q34 35 66.5 35t53 -9t36.5 -24q33 -32 33 -79zM209 1313q0 -46 -25 -72q-41 -43 -75.5 -43t-54.5 9t-35 25q-33 35 -33 68t9 53.5t24 36.5q33 35 66.5 35t54 -9t36.5 -24 q33 -32 33 -79zM70 0v80l100 6q43 5 43 45v731h-141v70l250 78h81v-879q0 -19 12.5 -31t30.5 -14l105 -6v-80h-481z" />
<glyph unicode="&#xf0;" horiz-adv-x="1104" d="M1034 532q0 -109 -35.5 -216t-99.5 -183q-133 -158 -346 -158q-216 0 -351 148q-132 146 -132 377q0 226 142 370q140 142 353 142q52 0 94 -14.5t43 -14.5q-39 70 -97 144.5t-60 76.5l-260 -155l-45 81l235 142l-72 82l-172 22v58l252 75l148 -151l223 133l47 -82 l-209 -127q342 -380 342 -750zM756 881q-101 41 -169 41t-128 -33t-99 -90q-77 -113 -77 -301q0 -290 149 -394q52 -36 127 -36q140 0 214 142q63 121 63 329.5t-80 341.5z" />
<glyph unicode="&#xf1;" horiz-adv-x="1182" d="M229 1198q60 225 238 225q40 0 71 -15.5t62 -33.5q83 -49 152 -49q39 0 62 22q40 37 44 76h82q-27 -103 -69 -145q-77 -80 -169 -80q-41 0 -71 15.5t-61 33.5q-83 49 -150 49q-39 0 -64 -22q-41 -37 -45 -76h-82zM375 885q228 127 350 127t192 -83t70 -233v-565 q0 -19 12.5 -31t30.5 -14l90 -6v-80h-452v80l86 6q18 2 30.5 14t12.5 31v533q0 97 -45 147.5t-152 50.5t-225 -59v-672q0 -40 43 -45l86 -6v-80h-463v80l100 6q43 5 43 45v711h-143v67l250 78h84v-102z" />
<glyph unicode="&#xf2;" horiz-adv-x="1114" d="M559 1128l-311 199q-47 30 -47 82q0 60 49 83q18 9 52 9q55 0 99 -55l275 -318h-117zM1044 492q0 -109 -34.5 -203.5t-97.5 -164.5q-137 -149 -357 -149t-355 148q-130 142 -130 369q0 224 132 370q137 150 359 150t356 -152q127 -145 127 -368zM831 494q0 181 -67 297 q-74 129 -205 129q-135 0 -209 -129q-65 -115 -65 -297q0 -180 67 -296q75 -130 205 -130q134 0 207 129q67 117 67 297z" />
<glyph unicode="&#xf3;" horiz-adv-x="1114" d="M879 1327l-312 -199h-116l272 318q37 43 62 49t49 6t42 -8.5t30 -22.5q20 -24 20 -68t-47 -75zM1044 492q0 -109 -34.5 -203.5t-97.5 -164.5q-137 -149 -357 -149t-355 148q-130 142 -130 369q0 224 132 370q137 150 359 150t356 -152q127 -145 127 -368zM831 494 q0 181 -67 297q-74 129 -205 129q-135 0 -209 -129q-65 -115 -65 -297q0 -180 67 -296q75 -130 205 -130q134 0 207 129q67 117 67 297z" />
<glyph unicode="&#xf4;" horiz-adv-x="1114" d="M770 1128l-211 203l-213 -203h-123l258 347h154l258 -347h-123zM1044 492q0 -109 -34.5 -203.5t-97.5 -164.5q-137 -149 -357 -149t-355 148q-130 142 -130 369q0 224 132 370q137 150 359 150t356 -152q127 -145 127 -368zM831 494q0 181 -67 297q-74 129 -205 129 q-135 0 -209 -129q-65 -115 -65 -297q0 -180 67 -296q75 -130 205 -130q134 0 207 129q67 117 67 297z" />
<glyph unicode="&#xf5;" horiz-adv-x="1114" d="M213 1198q60 225 238 225q40 0 71 -15.5t62 -33.5q83 -49 151 -49q63 0 95 62q10 18 12 36h82q-41 -155 -149 -207q-39 -18 -84.5 -18t-75.5 15.5t-61 33.5q-83 49 -151 49q-40 0 -63 -22q-41 -38 -45 -76h-82zM1044 492q0 -109 -34.5 -203.5t-97.5 -164.5 q-137 -149 -357 -149t-355 148q-130 142 -130 369q0 224 132 370q137 150 359 150t356 -152q127 -145 127 -368zM831 494q0 181 -67 297q-74 129 -205 129q-135 0 -209 -129q-65 -115 -65 -297q0 -180 67 -296q75 -130 205 -130q134 0 207 129q67 117 67 297z" />
<glyph unicode="&#xf6;" horiz-adv-x="1114" d="M887 1313q0 -46 -25 -72q-41 -43 -88 -43q-46 0 -70 25q-40 43 -40 77t9 54.5t25 35.5q34 35 66.5 35t53 -9t36.5 -24q33 -32 33 -79zM463 1313q0 -46 -25 -72q-41 -43 -75.5 -43t-54.5 9t-35 25q-33 35 -33 68t9 53.5t24 36.5q33 35 66.5 35t54 -9t36.5 -24 q33 -32 33 -79zM1044 492q0 -109 -34.5 -203.5t-97.5 -164.5q-137 -149 -357 -149t-355 148q-130 142 -130 369q0 224 132 370q137 150 359 150t356 -152q127 -145 127 -368zM831 494q0 181 -67 297q-74 129 -205 129q-135 0 -209 -129q-65 -115 -65 -297q0 -180 67 -296 q75 -130 205 -130q134 0 207 129q67 117 67 297z" />
<glyph unicode="&#xf7;" horiz-adv-x="1706" d="M967.5 1014.5q9.5 -22.5 9.5 -48t-9.5 -48t-26.5 -38.5q-37 -36 -75 -36t-60.5 9.5t-39.5 26.5q-37 35 -37 73.5t10 61t27 39.5q38 36 75.5 36t60 -10t39.5 -26.5t26.5 -39zM254 553v117h1198v-117h-1198zM977 256q0 -80 -75 -112q-23 -9 -48.5 -9t-48 9.5t-39.5 25.5 q-37 35 -37 86q0 52 27 79q46 46 84.5 46t61 -9.5t39.5 -26.5q36 -36 36 -89z" />
<glyph unicode="&#xf8;" horiz-adv-x="1114" d="M559 1012q113 0 205 -41l102 178l74 -41l-102 -178q151 -105 192 -304q14 -64 14 -153.5t-34.5 -184t-97.5 -164.5q-137 -149 -357 -149q-123 0 -233 56l-113 -199l-72 43l115 201q-182 143 -182 416q0 224 132 370q137 150 357 150zM705 866q-63 54 -140 54t-129 -35 t-86 -94q-65 -115 -65 -297q0 -153 53 -269zM389 145q70 -77 154 -77t136 35t85 94q67 117 67 297q0 185 -69 303z" />
<glyph unicode="&#xf9;" horiz-adv-x="1165" d="M612 1128l-311 199q-47 30 -47 82q0 60 49 83q18 9 52 9q55 0 102 -55l272 -318h-117zM575 115q102 0 224 61v686h-144v70l250 80h82v-881q0 -19 13.5 -31t31.5 -14l90 -6v-80h-323v117q-185 -142 -330 -142q-283 0 -283 332v555h-143v70l252 80h84v-666q0 -172 105 -216 q37 -15 91 -15z" />
<glyph unicode="&#xfa;" horiz-adv-x="1165" d="M897 1327l-311 -199h-117l272 318q22 26 45 40.5t57 14.5t51.5 -8.5t27.5 -22.5q20 -25 20 -69.5t-45 -73.5zM575 115q102 0 224 61v686h-144v70l250 80h82v-881q0 -19 13.5 -31t31.5 -14l90 -6v-80h-323v117q-185 -142 -330 -142q-283 0 -283 332v555h-143v70l252 80h84 v-666q0 -172 105 -216q37 -15 91 -15z" />
<glyph unicode="&#xfb;" horiz-adv-x="1165" d="M797 1128l-211 203l-213 -203h-123l258 347h154l258 -347h-123zM575 115q102 0 224 61v686h-144v70l250 80h82v-881q0 -19 13.5 -31t31.5 -14l90 -6v-80h-323v117q-185 -142 -330 -142q-283 0 -283 332v555h-143v70l252 80h84v-666q0 -172 105 -216q37 -15 91 -15z" />
<glyph unicode="&#xfc;" horiz-adv-x="1165" d="M905 1313q0 -46 -24 -71q-41 -44 -88 -44t-71 25q-40 43 -40 77t9 54.5t25 35.5q34 35 67 35t53.5 -9t35.5 -24q33 -33 33 -79zM481 1313q0 -47 -25 -72q-43 -43 -89 -43q-45 0 -69 25q-40 43 -40 76.5t9 54t24 36.5q33 35 78 35q46 0 70 -24q42 -42 42 -88zM575 115 q102 0 224 61v686h-144v70l250 80h82v-881q0 -19 13.5 -31t31.5 -14l90 -6v-80h-323v117q-185 -142 -330 -142q-283 0 -283 332v555h-143v70l252 80h84v-666q0 -172 105 -216q37 -15 91 -15z" />
<glyph unicode="&#xfd;" horiz-adv-x="1085" d="M854 1327l-309 -199h-117l272 318q22 26 45 40.5t57 14.5t52 -8.5t29 -22.5q20 -24 20 -68t-49 -75zM958 895l-393 -958q-95 -237 -186 -328q-78 -78 -178 -78q-106 0 -140 73q-10 21 -10 50q0 62 66 117l192 -88q69 69 142 241q19 44 30 78l-348 893l-113 12v80h453v-80 l-98 -6q-17 -2 -27 -15t-4 -30l238 -604l243 604q7 16 -2 29.5t-26 15.5l-97 6v80h365v-80z" />
<glyph unicode="&#xfe;" horiz-adv-x="1145" d="M375 885q160 127 309 127q163 0 274 -138q117 -144 117 -366q0 -244 -137 -388q-140 -145 -381 -145q-84 0 -182 19v-305q0 -38 45 -43l121 -13v-79h-498v79l98 13q43 5 43 43v1675h-141v68l252 77h80v-624zM375 102q85 -32 167.5 -32t144.5 34t103 90q80 113 80 285 q0 165 -73 273q-78 116 -213 116q-94 0 -209 -61v-705z" />
<glyph unicode="&#xff;" horiz-adv-x="1085" d="M899 1313q0 -47 -23 -72q-41 -43 -88 -43q-73 0 -103 71q-9 21 -9 43t9.5 42.5t24.5 35.5q35 35 68 35t53.5 -9t35.5 -24q32 -32 32 -79zM475 1313q0 -46 -25 -72q-41 -43 -75.5 -43t-54.5 9t-35 25q-33 35 -33 68t9 53.5t24 36.5q33 35 66.5 35t54 -9t36.5 -24 q33 -32 33 -79zM958 895l-393 -958q-95 -237 -186 -328q-78 -78 -178 -78q-106 0 -140 73q-10 21 -10 50q0 62 66 117l192 -88q69 69 142 241q19 44 30 78l-348 893l-113 12v80h453v-80l-98 -6q-17 -2 -27 -15t-4 -30l238 -604l243 604q7 16 -2 29.5t-26 15.5l-97 6v80h365 v-80z" />
<glyph unicode="&#x152;" horiz-adv-x="2046" d="M678 1407q242 0 391 -145v112h844v-305h-123l-31 168q-2 15 -12.5 27t-24.5 12h-444v-510h307q14 0 25.5 12t11.5 23l20 141h105v-457h-105l-20 142q0 11 -12 24t-25 13h-307v-564h518q12 0 24 14t15 25l35 203h110v-342h-911v113q-148 -146 -389 -146q-291 0 -450 206 q-150 194 -150 515q0 317 146 510q159 209 452 209zM1024 452q16 110 16 233.5t-16 234t-56 192.5q-88 178 -288 178q-297 0 -350 -370q-15 -110 -15 -232.5t15.5 -233t55.5 -193.5q89 -181 290 -181q296 0 348 372z" />
<glyph unicode="&#x153;" horiz-adv-x="1679" d="M1257 -25q-225 0 -362 203q-69 -91 -127 -129q-110 -74 -227 -74t-203.5 41.5t-145.5 112.5q-122 145 -122 365q0 221 123 366q130 152 346 152q131 0 237 -62q87 -52 131 -133q84 139 240 181q50 14 120.5 14t138 -31t112.5 -87q92 -111 92 -302v-27q0 -16 -2 -30h-617 q0 -283 176 -385q64 -37 158 -37q129 0 283 114v-125q-177 -127 -351 -127zM1403 672q0 164 -99 222q-32 19 -78 19t-85.5 -22.5t-68.5 -60.5q-58 -76 -71 -203h402v45zM797 492q0 85 -15.5 162t-47.5 134q-68 125 -193 125q-127 0 -197 -125q-61 -111 -61 -288 q0 -182 65 -300q70 -130 193 -130q125 0 193 127q63 115 63 295z" />
<glyph unicode="&#x160;" horiz-adv-x="1067" d="M631 1524h-154l-258 348h123l213 -205l211 205h123zM691 3q-103 -36 -277.5 -36t-333.5 76v363h129l27 -232q2 -12 12.5 -26t17 -17t21.5 -10.5t41 -16.5q69 -22 141.5 -22t128 16.5t95.5 47.5q85 66 85 178q0 146 -241 257q-159 73 -228 111.5t-113 80.5q-94 91 -94 233 q0 179 136 292q132 109 337 109q138 0 289 -47q38 -12 72 -23v-319h-117l-31 196q-4 21 -30 35q-2 1 -13 9t-33 16q-59 22 -127.5 22t-117.5 -18t-83 -50q-71 -68 -71 -173q0 -131 163 -217q53 -28 134 -58.5t153.5 -68.5t122.5 -85q101 -96 101 -241q0 -173 -127 -287 q-66 -59 -169 -95z" />
<glyph unicode="&#x161;" horiz-adv-x="815" d="M483 1128h-151l-256 347h121l211 -203l210 203h123zM518 -3q-73 -22 -195.5 -22t-252.5 52v272h104l25 -174q88 -57 182 -57q83 0 135 49q49 45 49 99t-17 84.5t-49 55.5q-33 25 -136.5 75.5t-146.5 77t-72 57.5q-60 61 -60 139t24.5 133t71.5 94q98 80 273 80 q161 0 262 -47v-242h-107l-16 143q-61 47 -151 47t-130.5 -38.5t-40.5 -86t11.5 -73.5t38.5 -49q45 -40 138.5 -82.5t138.5 -68.5t78 -58q70 -68 70 -151.5t-27 -143.5t-77 -101.5t-123 -63.5z" />
<glyph unicode="&#x178;" horiz-adv-x="1280" d="M991 1702q0 -46 -24 -71q-41 -44 -88 -44t-71 25q-40 43 -40 77t9 54.5t25 36.5q33 35 66.5 35t54 -9t35.5 -24q33 -35 33 -80zM565 1702q0 -46 -24 -71q-41 -44 -88 -44q-71 0 -102 70q-9 20 -9 42.5t9 43.5t25 37q35 35 79 35q46 0 69 -25q41 -42 41 -88zM1149 1268 l-412 -684v-443q0 -15 11 -29t32 -16l131 -8v-88h-551v88l127 8q22 2 33.5 16t11.5 29v412l-393 711l-119 24v86h486v-86l-103 -10q-42 -5 -24 -41l287 -537l317 531q9 15 0 28t-25 15l-114 14v86h416v-86z" />
<glyph unicode="&#x17d;" horiz-adv-x="1178" d="M80 0v90l762 1182h-533q-26 0 -35 -35l-30 -190h-121v327h964v-94l-763 -1176h583q28 0 35 37l35 238h121v-379h-1018zM687 1528h-154l-258 347h123l213 -203l211 203h123z" />
<glyph unicode="&#x17e;" horiz-adv-x="946" d="M70 0v109l542 782h-356q-15 0 -26.5 -14.5t-14.5 -28.5l-20 -152h-105v291h758v-84l-561 -805h413q22 0 40 32q4 9 5 17l21 162h111v-309h-807zM560 1128h-154l-258 347h123l213 -203l211 203h123z" />
<glyph unicode="&#x192;" horiz-adv-x="877" d="M1008 1280q0 -93 -129 -111l-160 129q-98 -80 -133 -362h231v-102h-246q-45 -348 -82 -553t-51.5 -263.5t-57.5 -146t-102 -157.5q-135 -160 -278 -160q-67 0 -104 44q-25 31 -25 65q0 54 53 93l209 -53q93 112 150 424q24 150 57 381.5t47 325.5h-178v102h192 q48 328 237 431q74 40 153.5 40t115.5 -13t59 -32q42 -37 42 -82z" />
<glyph unicode="&#x2c6;" horiz-adv-x="670" d="M547 1128l-211 203l-213 -203h-123l258 347h154l258 -347h-123z" />
<glyph unicode="&#x2dc;" horiz-adv-x="711" d="M0 1198q60 225 238 225q58 0 131.5 -49t150.5 -49q39 0 64 22q41 37 45 76h82q-41 -155 -149 -207q-39 -18 -77.5 -18t-61 7.5t-43 18t-40.5 23.5t-42 23q-55 26 -93 26t-56 -8.5t-33 -21.5q-30 -29 -34 -68h-82z" />
<glyph unicode="&#x300;" d="M-842 1558l-311 199q-47 30 -47 82q0 60 50 83q18 9 42 9t39 -3.5t27 -10.5q16 -10 43 -41l274 -318h-117z" />
<glyph unicode="&#x301;" d="M-620 1757l-312 -199h-116l272 318q31 33 43 41q25 14 59 14t52 -8.5t29 -21.5q20 -24 20 -67.5t-47 -76.5z" />
<glyph unicode="&#x302;" d="M-658 1589l-211 203l-213 -203h-123l258 347h154l258 -347h-123z" />
<glyph unicode="&#x303;" d="M-1230 1587q60 225 238 225q58 0 131.5 -49t150.5 -49q39 0 64 22q41 37 45 76h82q-41 -155 -149 -206q-39 -19 -84.5 -19t-76 15.5t-61.5 33.5q-83 50 -152 50q-39 0 -63 -22q-39 -38 -43 -77h-82z" />
<glyph unicode="&#x304;" d="M-1210 1610v130h686v-130h-686z" />
<glyph unicode="&#x307;" d="M-911 1790q21 8 56 8t64.5 -31t29.5 -80.5t-29.5 -80.5t-79 -31t-82.5 31t-33 68t10 57.5t26.5 35.5t37.5 23z" />
<glyph unicode="&#x308;" d="M-1038.5 1768q20.5 8 56 8t65 -30.5t29.5 -80t-29.5 -80.5t-79 -31t-82.5 31t-33 68t10 57.5t26.5 35t37 22.5zM-718 1790q21 8 56 8t64.5 -31t29.5 -80.5t-29.5 -80.5t-79 -31t-82.5 31t-33 68t10 57.5t26.5 35.5t37.5 23z" />
<glyph unicode="&#x30b;" d="M-373 1757l-311 -199h-117l275 318q21 26 43 40.5t56 14.5t52 -8.5t29 -21.5q20 -24 20 -67.5t-47 -76.5zM-774 1757l-309 -199h-117l272 318q41 44 64.5 49.5t47 5.5t41.5 -8.5t29 -21.5q21 -25 21 -69t-49 -75z" />
<glyph unicode="&#x30c;" d="M-792 1578h-154l-258 347h123l213 -203l211 203h123z" />
<glyph unicode="&#x30f;" d="M-672 1558l-311 199q-50 32 -50 82q0 60 51 83q19 9 43 9t39 -3.5t27 -10.5q16 -10 43 -41l272 -318h-114zM-1074 1558l-311 199q-47 33 -47 82q0 60 50 83q18 9 42 9t39.5 -3.5t27.5 -10.5q13 -8 44 -41l272 -318h-117z" />
<glyph unicode="&#x1200;" horiz-adv-x="1092" d="M709 1157q235 43 253.5 43t31.5 -8.5t22 -34.5q18 -52 18 -241t-49.5 -367t-136.5 -300q-178 -249 -457 -249q-207 0 -275 181q-20 53 -20 89.5t8 87.5t20 118t26.5 142t26.5 141q28 154 28 179q0 57 -41 72v24q217 56 258.5 56t54 -22t12.5 -52t-9 -78.5t-22.5 -115.5 t-29.5 -145.5t-30 -152.5q-31 -173 -31 -258t26 -128.5t77 -43.5t80.5 18.5t51.5 54.5q64 104 134 531q28 170 28 263t-55 163v33z" />
<glyph unicode="&#x1201;" horiz-adv-x="1597" d="M1495 853q-14 -91 -14 -152t13 -95t50 -52q-46 -35 -151 -35q-146 0 -185 99q-15 38 -16 97l-170 -30q-30 -184 -115 -354q-54 -107 -159 -193q-167 -138 -357 -138q-209 0 -275 155q-20 47 -20 80t5 67.5t12.5 82t17.5 104.5t20.5 115t20.5 114.5t18 103.5 q17 108 17 127t-3.5 31.5t-9 18.5t-13 7.5t-15.5 3.5v25q93 18 139 26t66 11q43 8 69 8q52 0 52 -84q0 -30 -25.5 -149.5t-37 -177.5l-23 -116t-20.5 -110q-19 -119 -19 -196q0 -163 112 -163q139 0 225 392q40 187 50 313.5t10 166.5q0 82 -18.5 117.5t-32.5 41.5v33 q235 43 256 43q76 0 76 -226q0 -97 -11 -198z" />
<glyph unicode="&#x1202;" horiz-adv-x="1243" d="M1120 223q-26 -42 -26 -136.5t67 -133.5q-62 -62 -203 -62q-184 0 -180 150l-305 -35q-36 -6 -59 -6t-48.5 4t-49.5 17q-56 31 -56 104q0 40 25 96l241 570l-237 -59q-14 -3 -32.5 -7t-31.5 -4q-91 0 -94 101l-8 258q-4 67 -41 82v35q231 66 266 66q79 0 76 -99l-6 -318 l143 31l92 205q31 79 31 109q0 44 -29 55v23l179 51q53 16 88 16t58.5 -25t23.5 -59q0 -51 -41 -149l-381 -882q-13 -31 -13 -45t2.5 -26t8.5 -24q13 -30 36 -30q37 0 170 17q41 63 76 83q65 35 170 35q33 0 53.5 -3t34.5 -5z" />
<glyph unicode="&#x1203;" horiz-adv-x="1024" d="M877 1281q92 0 92 -123q0 -104 -37 -178l-385 -773q-15 -33 -15 -76t41 -68v-32l-211 -25q-36 -6 -61 -6t-42 3.5t-29 12.5q-23 18 -23 68q0 16 11 44l13 32l287 582l-219 -55q-38 -11 -74 -11t-66 30.5t-30 92.5l21 201q0 93 -68 109v35q63 18 101.5 28t61.5 16t43 10 q47 11 61.5 11t30.5 -5.5t28 -17.5q28 -26 28 -78t-7.5 -87t-16.5 -69q-23 -96 -23 -167l168 39l23 45q90 194 90 248.5t-39 85.5v23l164 43q48 12 82 12z" />
<glyph unicode="&#x1204;" horiz-adv-x="1159" d="M901 526q186 0 186 -164q0 -65 -34.5 -106.5t-84.5 -66.5t-85.5 -36.5t-70.5 -20.5t-69 -17.5t-64.5 -19t-71.5 -26.5t-83 -31q-103 -38 -139.5 -38t-62 4t-48.5 17q-57 31 -57 104q0 57 25 111l254 526l-232 -61q-47 -10 -78.5 -10t-54.5 25t-25 75l-10 275 q-4 67 -41 82v35q63 18 101.5 28t61.5 16t44 11q47 10 60 10q78 0 75 -98l-6 -336l135 32l101 222q30 70 30 109q0 44 -28 55v22l178 52q53 16 82 16q88 0 88 -98q0 -50 -41 -136l-307 -609q181 47 272 47zM782 251.5q23 34.5 23 67t-2 47.5t-9 26q-17 26 -48.5 26 t-50.5 -3.5t-39 -8.5q-39 -12 -74 -27l-58 -121q-12 -24 -12 -50q0 -58 68 -58q79 0 129 33.5t73 68z" />
<glyph unicode="&#x1205;" horiz-adv-x="1133" d="M739 1143q225 59 254 59t44.5 -29t24.5 -80q13 -81 13 -239t-12.5 -260.5t-37.5 -183.5q-106 -344 -485 -400q-63 -10 -126 -10q-204 0 -240 161q-8 33 -8 70t2 55.5t6 44.5t8 57q18 119 37 226l-145 -26q10 58 21 115t20 105q20 105 20 128q0 57 -41 72v24 q227 55 264 55t49.5 -21.5t12.5 -49t-4 -52.5t-11 -62t-15.5 -82.5t-18.5 -96.5l153 31q-90 -471 -90 -510q0 -148 121 -148q181 0 229 554q9 111 9 202q0 229 -54 258v33z" />
<glyph unicode="&#x1206;" horiz-adv-x="1419" d="M94 1038q220 64 260.5 64t54 -23.5t13.5 -53.5t-4.5 -83t-11.5 -126.5t-15 -159.5t-15 -166q-16 -184 -16 -239t10.5 -85t27.5 -49q33 -35 92 -35t98.5 62t50.5 181.5t18 196.5t11 125t8 91q5 51 10 116t7.5 91.5t2.5 54.5q0 58 -23.5 87.5t-41.5 36.5v33 q268 58 325.5 70.5t95.5 20.5q89 19 99 20l35 7q15 2 31 4.5t37.5 2.5t52 -9.5t55.5 -32.5q55 -54 55 -163q0 -110 -103 -187q-112 -83 -289 -83q-35 0 -75 4l-30 -330q-20 -205 -146 -333q-146 -148 -383 -148q-214 0 -273 200q-20 65 -20 115.5t4 95.5t10 103t13 122.5 t13 121.5q14 131 14 167.5t-19 59.5t-39 29v24zM1133 1052q0 27 -5 45.5t-15 32.5q-22 31 -52 31t-43.5 -4.5t-23.5 -19.5q-20 -32 -27 -125l-13 -140q86 -2 136 58q43 52 43 122z" />
<glyph unicode="&#x1207;" horiz-adv-x="1810" d="M485 1038q220 64 260.5 64t54 -23.5t13.5 -53.5t-4.5 -83t-11.5 -126.5t-15 -159.5t-15 -166q-16 -184 -16 -239t10.5 -85t28.5 -49q32 -35 91 -35t98.5 62t50.5 181.5t18 196.5t11 125t8 91q5 51 10 116t7.5 91.5t2.5 54.5q0 58 -23.5 87.5t-41.5 36.5v33 q268 58 325.5 70.5t95.5 20.5q89 19 99 20l35 7q15 2 31 4.5t37.5 2.5t52 -9.5t54.5 -32.5q56 -54 56 -163q0 -110 -102 -187q-113 -83 -290 -83q-35 0 -75 4l-30 -330q-20 -205 -147 -333q-145 -148 -382 -148q-214 0 -274 200q-19 65 -19 114t2.5 82.5t6.5 77.5 q12 113 22 199l-112 -17q-11 -156 -98 -232q-70 -61 -169 -61q-61 0 -86 19q54 40 54 135t-33 168l452 62q15 150 15 182.5t-19 55.5t-39 29v24zM1524 1052q0 27 -5 45.5t-15 32.5q-22 31 -52 31t-43.5 -4.5t-22.5 -19.5q-21 -32 -28 -125l-13 -140q86 -2 136 58 q43 52 43 122z" />
<glyph unicode="&#x1208;" horiz-adv-x="1159" d="M195 1q-99 0 -99 141.5t12.5 264.5t50.5 235q80 238 294 415l-84 153l252 86l94 -213q177 -92 223 -388q20 -127 28 -264.5t19 -198.5q24 -135 90 -154v-37l-213 -35q-12 -2 -39.5 -2t-53 27t-40 73.5t-21 108.5t-10.5 131.5t-7.5 142.5t-13.5 141q-23 160 -79 234 q-117 -91 -169 -216q-62 -147 -62 -402q0 -79 9 -105q16 -50 60 -65v-31l-207 -39q-18 -3 -34 -3z" />
<glyph unicode="&#x1209;" horiz-adv-x="1583" d="M1427 807q0 -127 105 -199q-76 -76 -174 -76q-150 0 -186 118q-12 37 -17 83l-203 -67q11 -70 20 -197.5t15 -183t17 -98.5q25 -93 81 -109v-37l-213 -35q-60 -10 -89 21t-43.5 77.5t-21 108.5t-10.5 131.5t-7.5 142.5t-13.5 141q-23 160 -79 234q-117 -91 -169 -216 q-62 -147 -62 -402q0 -79 9 -105q16 -50 60 -65v-31l-206 -39q-18 -3 -34 -3q-52 0 -76 35t-24 141.5t12.5 229.5t51.5 235q81 238 293 415l-84 153l252 86l94 -213q158 -81 215 -340l506 158q-19 -32 -19 -94z" />
<glyph unicode="&#x120a;" horiz-adv-x="1638" d="M1526 209q-31 -70 -31 -138.5t55 -138.5q-91 -51 -190 -51q-80 0 -109 23q-52 43 -65 125l-326 -29q-130 -13 -156 192q-9 77 -14.5 212.5t-14.5 207.5q-21 165 -77 250q-117 -91 -169 -216q-62 -147 -62 -402q0 -79 9 -105q16 -50 60 -65v-31l-207 -39q-18 -3 -34 -3 q-99 0 -99 141.5t12.5 264.5t50.5 235q80 238 294 415l-84 153l252 86l94 -213q176 -92 223 -399q17 -109 26.5 -257t20 -206t30.5 -92.5t51 -34.5t44.5 0.5t24 2t22.5 4t33 5.5q73 79 194 106q34 7 58 7q34 0 54 -4z" />
<glyph unicode="&#x120b;" horiz-adv-x="1065" d="M193 341q-99 0 -99 146q0 162 82 317q90 173 236 253l-84 153l252 86l94 -213q180 -126 218 -421q16 -132 17 -261.5t7 -188.5q11 -127 65 -146v-31l-199 -33q-10 -2 -21 -2q-98 0 -107 212q-2 62 -3 132.5t-4.5 145t-14.5 144.5q-26 158 -102 243q-118 -106 -141 -274 q-8 -58 -8 -123.5t31 -76.5v-26l-185 -33q-18 -3 -34 -3z" />
<glyph unicode="&#x120c;" horiz-adv-x="1475" d="M187 -1q-91 0 -91 185q0 416 157 674q85 139 206 189l-99 155l242 94l113 -213q161 -96 211 -383q17 -99 24 -223q52 13 114 39q103 43 147.5 43t76 -18t54.5 -49q49 -64 49 -158q0 -124 -91 -182q-32 -20 -102.5 -34.5t-108.5 -22t-66.5 -18t-55 -24t-51.5 -25.5 q-116 -55 -180 -4q-53 42 -62 162q-4 55 -4 120v110q0 310 -92 452q-175 -143 -204 -488q-5 -52 -5 -91t3 -64t12 -43q17 -36 65 -53v-31l-213 -88q-26 -11 -49 -11zM955 350l-3 -153q0 -16 18.5 -33t43 -17t43 8.5t33.5 24.5q34 38 34 99q0 69 -16 93q-29 42 -94 42 q-10 0 -60 -11q1 -12 1 -25v-28z" />
<glyph unicode="&#x120d;" horiz-adv-x="1516" d="M688 518q117 0 117 -153q0 -119 -115 -189q-25 -15 -87 -25q-126 -20 -147.5 -29t-48 -26.5t-59.5 -35.5q-86 -46 -143 -46q-50 0 -70 18q-39 34 -39 115q0 406 246 705q83 101 199 197l-111 125l223 122l154 -198q222 -108 335 -414q37 -103 79 -251.5t67 -204.5 q54 -122 137 -122v-34l-215 -68q-18 -6 -46.5 -6t-58.5 31t-53.5 83.5t-43.5 121t-40.5 143.5t-44 150.5t-54.5 142.5q-70 151 -167 202q-177 -80 -264 -282q-30 -71 -43 -156q188 76 225 80t68 4zM520.5 372q-26.5 21 -54.5 21q-43 0 -83 -10q-14 -73 -14 -131t49 -73 q47 -15 94 36q35 39 35 87.5t-26.5 69.5z" />
<glyph unicode="&#x120e;" horiz-adv-x="1761" d="M195 1q-99 0 -99 141.5t12.5 264.5t50.5 235q80 238 294 415l-84 153l252 86l94 -213q131 -69 188 -241l154 39q29 8 64 21t74.5 20t80.5 10.5t75.5 11.5t75 20.5t92 12.5t89 -20t60.5 -51q40 -54 40 -142q0 -123 -127 -170q-28 -11 -73 -14t-92 -12.5t-88 -21t-81 -11.5 q-196 0 -196 225q0 23 2 49l-131 -35q26 -104 36 -239l15 -202.5t16 -120.5q24 -116 86 -134v-37l-213 -35q-12 -2 -39.5 -2t-53 27t-40 73.5t-21 108.5t-10.5 131.5t-7.5 142.5t-13.5 141q-23 160 -79 234q-117 -91 -169 -216q-62 -147 -62 -402q0 -79 9 -105 q16 -50 60 -65v-31l-207 -39q-18 -3 -34 -3zM1391 633q45 0 45 49q0 122 -46 174q-16 18 -35.5 18t-31.5 -14.5t-12 -36.5q0 -108 42 -169q15 -21 38 -21z" />
<glyph unicode="&#x120f;" horiz-adv-x="1446" d="M1333 94q0 -124 39 -170q-32 -28 -89.5 -28t-99.5 12.5t-75 37.5q-70 56 -74 158l-520 -32q3 -15 3 -44.5t-22 -67t-59 -65.5q-78 -59 -180 -59q-31 0 -50 1.5t-32 2.5q47 86 47 223q0 24 -12 64l438 27q-23 47 -28 124.5t-5 171.5v54q0 265 -39 388q-18 56 -49 99 q-164 -148 -164 -407q0 -60 21 -74v-27l-160 -26q-19 -4 -38 -4q-48 0 -68.5 33t-20.5 108q0 393 322 575l-84 142l246 84l108 -219q158 -114 188 -399q13 -129 13 -258t5 -189q9 -132 56 -160l396 25q-13 -45 -13 -101z" />
<glyph unicode="&#x1210;" horiz-adv-x="1624" d="M997 1241q64 0 64 -51q0 -16 -7 -55q-12 -77 -14 -97l-43 -315l189 33q45 8 85.5 8t73 -11t57.5 -37q55 -57 64 -175l29 -381q3 -42 15.5 -66t43.5 -41v-24l-182 -23q-42 -5 -63.5 -5t-39.5 4t-31 14q-28 22 -30 73l-22 397q-10 164 -199 164l-59 -426q-6 -42 -6 -81 t21.5 -63.5t53.5 -27.5v-32l-192 -19q-26 -4 -70 -4q-108 0 -108 70q0 10 4.5 42.5t6.5 48.5t3 21l59 422q-194 -7 -264 -224q-26 -81 -26 -202q0 -78 13 -95t28 -20v-32l-201 -27q-24 -3 -60 -3t-65 25t-29 97t14 143t45 134t79.5 115t117.5 89q145 80 361 80l47 338 q6 42 6 72q0 59 -55 75v35l225 31q40 6 61 6z" />
<glyph unicode="&#x1211;" horiz-adv-x="1993" d="M1892 590q-24 -41 -24 -89.5t1.5 -75t8.5 -49.5q16 -46 66 -79q-64 -64 -185 -64q-172 0 -172 158q0 25 4 53l-116 -24l20 -260q3 -42 15.5 -66t43.5 -41v-24l-182 -23q-42 -5 -63.5 -5t-39.5 4t-31 14q-28 22 -30 73l-22 397q-10 164 -199 164l-59 -426q-6 -42 -6 -81 t21.5 -63.5t53.5 -27.5v-32l-192 -19q-26 -4 -70 -4q-108 0 -108 70q0 10 4.5 42.5t6.5 48.5t3 21l59 422q-194 -7 -264 -224q-26 -81 -26 -202q0 -78 13 -95t28 -20v-32l-201 -27q-24 -3 -60 -3t-65 25t-29 97t14 143t45 134t79.5 115t117.5 89q145 80 361 80l47 338 q6 42 6 72q0 59 -55 75v35l225 31q40 6 61 6q64 0 64 -51q0 -16 -7 -55q-12 -77 -14 -97l-43 -315l189 33q45 8 85.5 8t73 -11t57.5 -37q55 -57 64 -175l4 -43z" />
<glyph unicode="&#x1212;" horiz-adv-x="2101" d="M1978 264q-30 -60 -30 -142.5t77 -154.5q-107 -63 -215 -63q-113 0 -154 76q-17 31 -16 79l-268 -53q-38 -8 -73 -8t-61.5 20.5t-29.5 73.5l-22 397q-10 164 -199 164l-59 -426q-6 -42 -6 -81t21.5 -63.5t53.5 -27.5v-32l-192 -19q-26 -4 -70 -4q-108 0 -108 70 q0 10 4.5 42.5t6.5 48.5t3 21l59 422q-194 -7 -264 -224q-26 -81 -26 -202q0 -78 13 -95t28 -20v-32l-201 -27q-24 -3 -60 -3t-65 25t-29 97t14 143t45 134t79.5 115t117.5 89q145 80 361 80l47 338q6 42 6 63.5t-4 36t-11 28.5q-16 31 -40 38v26q137 38 269 38q81 0 81 -62 q0 -16 -7 -55q-12 -77 -14 -97l-43 -315l189 33q45 8 85.5 8t73 -11t57.5 -37q55 -57 64 -175l27 -340q3 -45 19 -64.5t30 -19.5q26 0 100 14q39 95 164 128q42 11 74 11q41 0 64 -2.5t34 -3.5z" />
<glyph unicode="&#x1213;" horiz-adv-x="1583" d="M940 1239q64 0 64 -51q0 -17 -6 -56q-14 -78 -15 -96l-43 -315l186 33q45 8 86 8t73.5 -11t58.5 -37q54 -57 63 -175l31 -359q7 -92 63 -119v-28l-188 -29q-35 -6 -71 -6q-88 0 -93 92l-23 397q-8 168 -152 168q-20 0 -44 -4l-23 -178q-6 -42 -6 -81t17 -53t49 -17v-33 l-185 -35q-32 -8 -66.5 -8t-54.5 5t-31 14q-18 15 -18 36t2 37.5t4 34.5q6 41 9 55l24 174q-106 -4 -179 -78q-62 -65 -62 -125q0 -78 11 -91t25 -15v-33l-196 -35q-32 -6 -69 -6q-85 0 -85 121q0 134 164 237q167 105 402 105l43 338q6 28 6 79.5t-56 67.5v35l224 32 q35 5 61 5z" />
<glyph unicode="&#x1214;" horiz-adv-x="1966" d="M1700 410q184 0 184 -187q0 -100 -92 -154q-71 -42 -166 -42h-106q-30 0 -76 -9q-85 -18 -130.5 -18t-74 20t-31.5 72l-22 397q-10 164 -199 164l-59 -426q-6 -42 -6 -81t21.5 -63.5t53.5 -27.5v-32l-192 -19q-26 -4 -70 -4q-108 0 -108 70q0 10 4.5 42.5t6.5 48.5t3 21 l59 422q-194 -7 -264 -224q-26 -81 -26 -202q0 -78 13 -95t28 -20v-32l-201 -27q-24 -3 -60 -3t-65 25t-29 97t14 143t45 134t79.5 115t117.5 89q145 80 361 80l47 338q6 42 6 72q0 59 -55 75v35l225 34q20 3 33 3h28q64 0 64 -51q0 -16 -7 -55q-12 -77 -14 -97l-43 -315 l189 33q45 8 85.5 8t72.5 -11.5t57 -38.5q54 -56 63 -173l15 -160q25 1 76 11q100 18 145 18zM1491 160q0 -66 47 -66q49 0 68 68q6 20 6 41q0 73 -46 103q-15 9 -32 9h-28q-12 0 -23 -2z" />
<glyph unicode="&#x1215;" horiz-adv-x="1638" d="M983 1145q64 0 64 -51q0 -17 -7 -56q-12 -78 -14 -96l-29 -219l189 33q45 8 85.5 8t73 -11t57.5 -37q55 -57 64 -175l29 -381q3 -42 15.5 -66t43.5 -41v-24l-182 -23q-42 -5 -63.5 -5t-39.5 4t-31 14q-28 22 -30 73l-22 397q-10 164 -199 164l-59 -426q-6 -42 -6 -81 t21.5 -63.5t53.5 -27.5v-32l-192 -19q-26 -4 -70 -4q-108 0 -108 70q0 10 4.5 42.5t6.5 48.5t3 21l59 422q-194 -7 -264 -224q-26 -81 -26 -202q0 -78 13 -95t28 -20v-32l-201 -27q-24 -3 -60 -3t-65 25t-29 97t14 143t45 134t79.5 115t117.5 89q145 80 361 80l32 242 q2 17 6 38q7 36 7 48.5t-1.5 17.5t-8.5 6q-14 3 -66 -8q-66 -31 -195 -31q-67 0 -102 19q53 71 53 138.5t-59 145.5q70 25 176 25q90 0 156 -41q67 -43 67 -108q0 -36 -8 -58l152 21q40 6 61 6z" />
<glyph unicode="&#x1216;" horiz-adv-x="1624" d="M997 1241q64 0 64 -51q0 -16 -7 -55q-12 -77 -14 -97l-43 -315l189 33q45 8 103.5 8t109 -55.5t61.5 -167.5l13 -138q5 -72 67 -106v-25l-186 -22q-42 -5 -63.5 -5t-39.5 4t-31 14q-26 21 -28 73l-6 153q-4 85 -46 119q-46 35 -155 35l-24 -184q-7 -49 -7 -84.5t19 -62 t51 -29.5v-33l-186 -14q-28 -5 -70 -5q-109 0 -109 70q0 23 15 113l26 190q-194 -7 -264 -224q-26 -81 -26 -202q0 -78 13 -95t28 -20v-32l-201 -27q-24 -3 -60 -3t-65 25t-29 97t14 143t45 134t79.5 115t117.5 89q145 80 361 80l47 338q6 42 6 72q0 59 -55 75v35l225 31 q40 6 61 6z" />
<glyph unicode="&#x1217;" horiz-adv-x="1997" d="M1872 141q0 -124 39 -170q-35 -28 -91.5 -28t-98.5 12.5t-74 38.5q-70 55 -74 158l-520 -33q15 -97 -67 -168q-79 -68 -191 -68q-31 0 -50 1.5t-32 2.5q47 86 47 224q0 23 -12 63l399 25l3 36q0 21 -3 68l-21 340q-8 167 -153 167q-21 0 -43 -3l-23 -178q-6 -42 -6 -81 t17 -53.5t49 -17.5v-33l-185 -34q-36 -9 -68.5 -9t-52.5 5t-31 14q-18 16 -18 37t2 37.5t4 34.5q4 24 9 55l24 174q-106 -4 -179 -78q-62 -65 -62 -125q0 -78 11 -91t25 -15v-33l-196 -35q-32 -6 -68.5 -6t-61 27.5t-24.5 93.5q0 134 164 237q167 105 402 105l43 338 q6 28 6 79.5t-56 67.5v35l224 31q42 6 61 6q64 0 64 -52q0 -16 -6 -55q-14 -78 -15 -96l-43 -315l186 32q44 9 85.5 9t74 -11.5t58.5 -37.5q53 -55 63 -175l31 -358q3 -42 4.5 -76.5t9.5 -42.5l432 25q-12 -56 -12 -101z" />
<glyph unicode="&#x1218;" horiz-adv-x="1911" d="M1446 1106q134 53 179 53t85 -16t72 -51q73 -76 73 -222q0 -167 -88 -265q-90 -101 -243 -101l-105 4q-15 0 -65 -15q-92 -28 -142.5 -28t-72.5 5t-34 16q-20 17 -20 58q0 64 17 140l78 367l-103 -13l-190 -510q-31 -86 -69 -113q-64 -48 -169 -48l-119 4 q-36 0 -87.5 -24t-83.5 -35t-70.5 -11t-72 12t-60.5 37q-60 56 -60 154q0 153 135 326q124 160 273 206q101 31 217 36t154.5 10t77 11.5t80 13.5t96.5 13q121 13 298 15zM1370 653q0 -67 64 -67q61 0 94 92q28 77 28 154t-5.5 108.5t-16.5 50.5q-20 35 -68 35q-16 0 -34 -4 l-56 -317q-3 -22 -4.5 -30.5t-1.5 -21.5zM782 985q-24 12 -67 12t-91 -29.5t-84 -75t-61 -100.5t-41 -106q-28 -95 -28 -132.5t6 -55t16 -30.5q23 -30 58 -30q72 0 126 137z" />
<glyph unicode="&#x1219;" horiz-adv-x="2376" d="M2275 840q0 -130 56 -142q-48 -43 -164 -43q-114 0 -183 79q-24 29 -34 71h-105q-16 -138 -102 -219q-88 -82 -225 -82l-105 4q-15 0 -65 -15q-92 -28 -142.5 -28t-72.5 5t-34 16q-20 17 -20 58q0 72 17 140l78 367l-103 -13l-190 -510q-31 -86 -69 -113 q-64 -48 -169 -48l-119 4q-37 0 -88 -24t-83 -35t-70.5 -11t-72.5 12t-60 37q-60 56 -60 154q0 151 134 326q122 159 274 206q101 31 217 36t160 10t88.5 12t91.5 14t102 13q128 14 264 14l19 -29q134 53 179 53t85 -15.5t72 -49.5q73 -77 73 -222h103q49 76 104 96 q43 15 113 15q115 0 145 -12q-39 -45 -39 -131zM1364 653q0 -67 63 -67q62 0 95 92q28 77 28 154t-5.5 108.5t-16.5 50.5q-20 35 -68 35q-15 0 -35 -4l-55 -317q-3 -22 -4.5 -30.5t-1.5 -21.5zM776 985q-24 12 -66.5 12t-91 -29.5t-85 -75t-61.5 -100.5t-40 -106 q-29 -100 -29 -135t6 -52.5t17 -30.5q24 -30 58 -30q70 0 126 137z" />
<glyph unicode="&#x121a;" horiz-adv-x="2019" d="M1896 74q0 -130 56 -142q-48 -43 -164 -43q-153 0 -225 138l-256 -21q-51 -6 -106 -6t-83 26.5t-28 94.5q0 63 43 196l137 422q3 11 7 25t7 31q-155 -31 -219 -31q-162 0 -162 137v25q0 25 10 75l31 168l-137 -16l-45 -344q-24 -180 -215 -180l-64 10q-48 0 -103 -27.5 t-85.5 -40t-65.5 -12.5q-69 0 -108 44.5t-39 137.5q0 218 131 340q116 111 333 135q73 8 176.5 13.5t170.5 9t106.5 5.5t71.5 4q75 3 100 3t52 -22q95 67 192.5 67t153 -56.5t55.5 -166.5q0 -105 -76 -360l-133 -451q-22 -68 -22 -104q0 -66 41 -66q32 0 66.5 3t62.5 5 q67 69 106 87q64 30 128 30q99 0 132 -22q-33 -38 -33 -121zM1339 1086q0 24 -19.5 49.5t-49.5 25.5q-48 0 -78 -35q-29 -75 -29 -117.5t9.5 -68.5t24.5 -44q30 -38 73 -38q14 0 30 4q39 156 39 224zM354 793q0 -86 60 -86q39 0 54 15q29 31 38 95l51 322q-66 11 -118 -69 q-57 -87 -80 -234q-5 -32 -5 -43z" />
<glyph unicode="&#x121b;" horiz-adv-x="1679" d="M1223 1229q95 67 192.5 67t153 -56.5t55.5 -166.5q0 -105 -76 -360l-133 -451q-22 -68 -22 -127t26 -72v-34q-171 -29 -205.5 -29t-55 10t-31.5 28q-19 32 -19 88q0 91 31 191l131 422q3 11 7 25t7 31q-155 -31 -219 -31q-162 0 -162 137v25q0 25 10 75l31 168l-137 -16 l-45 -344q-24 -180 -215 -180l-64 10q-48 0 -103 -27.5t-85.5 -40t-65.5 -12.5q-69 0 -108 44.5t-39 137.5q0 218 131 340q116 111 333 135q73 8 176.5 13.5t170.5 9t106.5 5.5t71.5 4q75 3 100 3t52 -22zM1339 1086q0 24 -19.5 49.5t-49.5 25.5q-48 0 -78 -35 q-29 -75 -29 -117.5t9.5 -68.5t24.5 -44q30 -38 73 -38q14 0 30 4q39 156 39 224zM354 793q0 -86 60 -86q39 0 54 15q29 31 38 95l51 322q-66 11 -118 -69q-57 -87 -80 -234q-5 -32 -5 -43z" />
<glyph unicode="&#x121c;" horiz-adv-x="1911" d="M1442 395l237 23q58 0 90 -32q60 -60 60 -153q0 -158 -99 -193q-36 -13 -88 -13h-81q-40 0 -102 -9q-114 -18 -192.5 -18t-119.5 31.5t-41 111.5q0 76 10 109l154 487q3 11 7 25t7 31q-155 -31 -219 -31q-162 0 -162 137v25q0 25 10 75l31 168l-137 -16l-45 -344 q-24 -180 -215 -180l-64 10q-48 0 -103 -27.5t-85.5 -40t-65.5 -12.5q-69 0 -108 44.5t-39 137.5q0 218 131 340q116 111 333 135q73 8 176.5 13.5t170.5 9t106.5 5.5t71.5 4q75 3 100 3t52 -22q95 67 192.5 67t153 -56.5t55.5 -166.5q0 -136 -76 -360zM1339.5 1041 q3.5 22 3.5 45.5t-21.5 49t-51.5 25.5q-48 0 -78 -35q-29 -75 -29 -117.5t9.5 -68.5t24.5 -44q30 -38 73 -38q17 0 33 4q7 32 14.5 65.5t13 62.5t9 51zM1540 173q4 22 4 53t-26 59t-74 28h-31l-33 -100q-11 -36 -11 -67.5t23 -48.5t52 -17t49 15t31.5 35.5t15.5 42.5z M354 793q0 -86 60 -86q39 0 54 15q29 31 38 95l51 322q-66 11 -118 -69q-57 -87 -80 -234q-5 -32 -5 -43z" />
<glyph unicode="&#x121d;" horiz-adv-x="1747" d="M522 618q-117 -30 -195 -30t-123 8.5t-72 31.5q-50 44 -50 167q0 100 76 225q70 117 227 180q83 34 214.5 41.5t216.5 12.5t134.5 8t90 5t68.5 3.5t38.5 1.5t24 -4t25.5 -10q29 -13 36 -13t29 8t52 17q82 26 135.5 26t91.5 -16t66 -50q60 -74 60 -220q0 -166 -133 -216 q-39 -14 -72 -14l-108 -4q-16 -1 -34 -7t-41 -13q-62 -17 -123.5 -17t-98.5 16.5t-57 66t-28 139t-14 235.5l-106 -4l-18 -481q-3 -59 -17 -84q-61 -91 -163.5 -226t-130.5 -175q-62 -89 -62 -108t4.5 -32t26.5 -18v-27l-183 -31q-60 -10 -98.5 -10t-56 16.5t-17.5 47.5 t7 53t23.5 51.5t44.5 69t71 93.5q67 84 239 287zM1304.5 1166.5q-25.5 15.5 -49 15.5t-45.5 -6q2 -211 23 -260.5t41.5 -59.5t41 -10t32.5 3t21 13q20 24 20 83t-11 102.5t-29.5 73.5t-44 45.5zM594 1178q-105 8 -166 -84q-61 -95 -61 -265q0 -84 20 -108q35 -43 117 -43 q29 0 67 4z" />
<glyph unicode="&#x121e;" horiz-adv-x="1706" d="M1149 1260l90 -11q9 0 24.5 7.5t38.5 15.5q62 24 114 24t92.5 -21.5t71.5 -62.5q69 -91 69 -239q0 -133 -89 -215q-35 -32 -69.5 -46t-50.5 -14l-88 -2q-39 -1 -98 -34q-111 -62 -136 -62t-45 3t-39 18q-46 36 -51 120.5t-9 151.5q-9 156 -13 283l-74 -2l-166 -955 q-12 -67 -12 -96q0 -45 43 -51v-33l-174 -31q-13 -2 -31.5 -5t-47.5 -3t-51 27.5t-22 55.5t0.5 37.5t1.5 19.5q2 24 4 32l86 455q-74 -21 -161.5 -30t-119.5 -9t-61 6.5t-50 25.5q-44 40 -44 142q0 111 66 233q67 122 222 188q81 35 216 43t222.5 13.5t139 9t93.5 5.5 q92 6 108 6zM1295 1178q-28 10 -51.5 10t-45.5 -6q8 -180 22 -288t35 -126t55.5 -18t58.5 36.5t24 119t-13.5 141t-35 90t-49.5 41.5zM608 1153q-41 11 -84 -13t-78 -70q-79 -105 -79 -243q0 -60 35 -93.5t71 -33.5t62 9z" />
<glyph unicode="&#x121f;" horiz-adv-x="1909" d="M1782 53q0 -124 55 -172q-39 -28 -97 -28t-100.5 11.5t-76.5 35.5q-72 51 -84 153l-535 -47q17 -96 -70 -174q-84 -74 -196 -74q-31 0 -48.5 1.5t-29.5 2.5q66 81 66 224q0 20 -13 63l430 39q-4 15 -4 53v43q0 81 31 172l139 435q3 11 7.5 24.5t7.5 30.5 q-155 -31 -220 -31q-161 0 -161 137l-2 42q0 19 6 46l31 168l-138 -16l-41 -303q-27 -211 -182 -211l-100 8q-51 0 -103 -27t-81.5 -39t-63.5 -12q-69 0 -99 42t-30 134q0 100 12 150q38 167 194 254q88 49 197 62q149 18 393.5 29t249.5 11q41 0 76 -26q103 59 167 59 t103 -17t66 -46q59 -60 59 -132.5t-23 -162.5t-61 -213l-133 -451q-26 -80 -26 -134v-54l436 41q-8 -56 -8 -101zM541 1186q-77 -2 -129 -82q-59 -91 -74 -231q-4 -31 -4 -55t15 -48.5t35 -24.5t34.5 4t26.5 16q25 25 36 91zM1310 1081q3 21 3 44.5t-20 49t-50 25.5 q-48 0 -74 -31q-28 -75 -28 -119.5t9.5 -69t24.5 -40.5q30 -31 74 -31q15 0 31 4l12 62t10.5 58t7.5 48z" />
<glyph unicode="&#x1220;" horiz-adv-x="1569" d="M1229 930q0 70 -55 82v32l186 52q27 8 48.5 8t39.5 -11t33 -35q35 -58 35 -165q0 -182 -144 -291q-56 -43 -170 -56q-27 -4 -45 -15.5t-41 -22.5q-62 -29 -119.5 -29t-89.5 35q-84 -157 -173 -196q-72 -32 -135 -32l-62 3q-34 0 -60.5 -11.5t-55.5 -20.5 q-77 -24 -151 -24q-174 0 -174 179q0 47 15 96l67 250q19 74 19 109t-33 51v45l184 51q29 8 69.5 8t56 -15t15.5 -40t-1 -36.5t-3 -25.5q-3 -18 -16 -74l-74 -301q-10 -50 -10 -89.5t24.5 -56.5t75.5 -17q104 0 136 116l84 320q18 67 18 96q0 61 -53 88v33l190 47q10 2 19 5 q20 5 49.5 5t55.5 -29t26 -83.5t-37 -239.5q15 -62 45 -93.5t76.5 -31.5t69.5 14.5t37 36.5q28 44 28 97v182z" />
<glyph unicode="&#x1221;" horiz-adv-x="2048" d="M1958 889q-41 -79 -41 -105.5t6.5 -47t17.5 -39.5q23 -39 54 -62q-86 -47 -189 -47q-74 0 -105 16q-63 31 -95 119h-129q-35 -67 -105 -121q-56 -43 -170 -56q-27 -4 -45 -15.5t-41 -22.5q-62 -29 -119.5 -29t-89.5 35q-84 -157 -173 -196q-72 -32 -135 -32l-62 3 q-34 0 -60.5 -11.5t-55.5 -20.5q-77 -24 -151 -24q-174 0 -174 179q0 47 15 96l67 250q19 74 19 109t-33 51v45l184 51q29 8 69.5 8t56 -15t15.5 -40t-1 -36.5t-3 -25.5q-3 -18 -16 -74l-74 -301q-10 -50 -10 -89.5t24.5 -56.5t75.5 -17q104 0 136 116l84 320q18 67 18 96 q0 61 -53 88v33l190 47q10 2 19 5q20 5 49.5 5t55.5 -29t26 -83.5t-37 -239.5q15 -62 45 -93.5t76.5 -31.5t69.5 14.5t37 36.5q28 44 28 97v182q0 70 -55 82v32l186 52q27 8 48.5 8t39.5 -11t33 -35q35 -58 35 -141.5t-13 -125.5h105q51 122 231 122q82 0 119 -24z" />
<glyph unicode="&#x1222;" horiz-adv-x="1884" d="M1733 70q0 -87 71 -146q-127 -50 -268 -30q-102 14 -123 126l-260 -14l-88 -6q-82 0 -109 32q-26 31 -26 128q0 44 12 92l113 473h-33q-96 0 -191 63q-29 -48 -56 -70q-43 -36 -94 -61q-68 -34 -120 -34l-89 5q-18 0 -31.5 -3t-41 -15.5t-61.5 -26.5q-87 -36 -116.5 -36 t-51 6.5t-38.5 21.5q-38 34 -38 97q0 39 20 111q38 137 38 167q0 69 -31 82v25l180 41q29 8 66 8t58 -23t21 -55q0 -45 -23 -110q-44 -123 -44 -156q0 -70 65 -70q99 0 156 108q43 81 43 163q0 57 -41 89q-13 9 -27 13v27l193 36q21 7 61.5 7t63 -22.5t22.5 -63t-18 -109.5 q14 -71 58 -105t116 -42l27 118q8 56 8 97q0 85 -53 100l-2 35l176 31q20 3 41 7.5t37 4.5q86 0 86 -131q0 -40 -11.5 -95t-13.5 -65l-141 -625q-11 -53 -11 -100t18 -62.5t38 -15.5q55 0 87 2l64 4q48 117 248 117q66 0 113 -20q-32 -26 -46 -94q-3 -18 -3 -31z" />
<glyph unicode="&#x1223;" horiz-adv-x="1446" d="M1305 1186q86 0 86 -131q0 -40 -11.5 -95t-13.5 -65l-135 -584q-18 -78 -14 -129q6 -92 79 -127v-26l-204 -25q-26 -4 -59 -4t-50 7.5t-27 24.5q-16 30 -16 79t1.5 68t4.5 43q8 63 17 100l92 403h-33q-96 0 -191 63q-30 -49 -56 -71q-44 -36 -100 -63q-77 -37 -151 -37 l-65 1q-41 0 -72 -14t-61 -26q-76 -31 -105 -31t-50.5 6.5t-38.5 21.5q-38 34 -38 97q0 39 20 111q38 137 38 167q0 69 -31 82v25l180 41q29 8 66 8t58 -23t21 -55q0 -45 -23 -110q-44 -123 -44 -156q0 -70 65 -70q99 0 156 108q43 81 43 163q0 57 -41 89q-13 9 -27 13v27 l193 36q21 7 61.5 7t63 -22.5t22.5 -63t-18 -109.5q14 -71 58 -105t116 -42l27 118q8 56 8 97q0 85 -53 100l-2 35l176 31q20 3 41 7.5t37 4.5z" />
<glyph unicode="&#x1224;" horiz-adv-x="1747" d="M1511 436q152 0 152 -172q0 -234 -222 -234h-15q-7 0 -15 1l-106 6q-20 1 -93 -12q-139 -25 -182 -25q-104 0 -104 119q0 74 10 114l119 492h-33q-96 0 -191 63q-30 -50 -56 -73q-47 -40 -94 -60q-62 -27 -120 -27l-69 1q-26 0 -42.5 -3.5t-45 -16t-63.5 -26.5 q-90 -36 -119.5 -36t-51 6.5t-38.5 21.5q-38 34 -38 97q0 39 20 111q38 137 38 167q0 69 -31 82v25l180 41q29 8 66 8t58 -23t21 -55q0 -45 -23 -110q-44 -123 -44 -156q0 -70 65 -70q99 0 156 108q43 81 43 163q0 57 -41 89q-13 9 -27 13v27l193 36q21 7 61.5 7t63 -22.5 t22.5 -63t-18 -109.5q14 -71 58 -105t116 -42l27 118q8 56 8 97q0 85 -53 100l-2 35l176 31q20 3 41 7.5t37 4.5q86 0 86 -131q0 -40 -11.5 -95t-13.5 -65l-113 -502q53 9 112 22q102 21 146 21zM1382.5 181q10.5 29 10.5 75.5t-18 73t-43 26.5q-44 0 -89 -16l-31 -135 q-8 -38 -8 -61t6 -36t16 -19q14 -9 40.5 -9t48.5 13.5t39.5 36t28 51.5z" />
<glyph unicode="&#x1225;" horiz-adv-x="1966" d="M1831 1174q80 0 80 -134q0 -146 -113 -252q-128 -120 -338 -120q-114 0 -156 28q-16 11 -28 27q-34 -47 -124 -101q-51 -31 -91.5 -33t-54.5 -6t-30.5 -7.5t-37.5 -7.5q-47 -9 -102.5 -9t-135.5 39l-274 -426q-25 -38 -25 -62t11 -34.5t37 -20.5v-32l-197 -19 q-24 -4 -55.5 -4t-48.5 3.5t-28 12.5q-24 18 -24 68q0 51 35 100l463 703q33 50 33 84t-27 57v27l197 41q40 10 61 10q55 0 55 -109q0 -67 -36 -127l-64 -98q6 -72 32 -98.5t83 -26.5q104 0 177 116q64 101 64 208q0 66 -77 90v26l149 25q36 6 59.5 6t43.5 -7t36 -19 q37 -28 37 -51.5t-5.5 -47.5t-12 -49.5t-13.5 -48.5t-10 -35q20 -59 50 -84.5t72.5 -25.5t71.5 14.5t50 43.5q47 63 47 171q0 57 -20 85t-64 44v27l191 34q27 5 57 5z" />
<glyph unicode="&#x1226;" horiz-adv-x="1487" d="M1346 1184q79 0 79 -133q0 -152 -102 -252q-121 -119 -350 -119q-106 0 -152 18l-325 -526q-25 -38 -25 -62t10.5 -34.5t36.5 -20.5v-32l-196 -19q-26 -4 -56.5 -4t-47.5 3.5t-28 12.5q-24 18 -24 68q0 48 35 100l266 422q-18 -4 -31 -4h-15q-18 0 -36 2 q-98 -55 -158 -55q-83 0 -119 73q-12 24 -12 46t5 45.5t12.5 53t16.5 61t16 58.5q18 65 18 77q0 37 -41 51v24l221 54q53 12 80 12q53 0 53 -80q0 -57 -25 -125q-46 -129 -46 -164t11.5 -50t32.5 -15q32 0 66 12l139 219q33 54 33 86.5t-26 54.5v27l196 41q40 10 62 10 q57 0 57 -108q0 -62 -39 -127q-6 -133 68 -133q86 0 128 86q29 61 29 130.5t-19.5 98t-64.5 43.5v27l209 43q22 4 58 4z" />
<glyph unicode="&#x1227;" horiz-adv-x="1802" d="M1626 242q-7 -49 -7 -114.5t46 -139.5q-30 -23 -86.5 -23t-100 13.5t-79.5 38.5q-80 56 -86 137l-574 -25q12 -89 -72 -167q-86 -79 -192 -79q-37 0 -80 23q60 85 60 180l-6 98l452 19q30 131 50 221t33 147.5t25.5 113.5t24 108.5t21.5 95.5h-33q-100 0 -191 63 q-30 -49 -56 -71q-44 -36 -100 -63q-77 -37 -151 -37l-65 1q-41 0 -72 -14t-61 -26q-76 -31 -105 -31t-50.5 6.5t-38.5 20.5q-38 33 -38 98q0 39 20 111q38 137 38 167q0 69 -31 82v25l180 41q29 8 66 8t58 -23t21 -55q0 -45 -23 -110q-44 -123 -44 -156q0 -70 65 -70 q128 0 182 168q17 55 17 96.5t-20 71t-48 37.5v26l193 37q24 6 63 6t61.5 -22t22.5 -62.5t-18 -109.5q26 -132 174 -148l27 119q8 56 8 97q0 85 -53 100l-2 35l176 30q20 3 41 8t37 5q86 0 86 -131q0 -43 -11.5 -96.5t-21.5 -96.5t-27.5 -120t-34 -150.5t-32.5 -142.5 t-38.5 -170t-51.5 -230z" />
<glyph unicode="&#x1228;" horiz-adv-x="1188" d="M1059 303q-23 -43 -23 -95q0 -119 74 -161q-60 -74 -168 -74q-159 0 -197 113q-200 -86 -362 -86q-202 0 -267 138q-22 46 -22 111t27 127t71 120t100 112t114.5 105.5t114.5 100.5t100 97q98 107 98 193q0 25 -37 47v43l217 31q22 4 51.5 4t47.5 -22t18 -67t-26 -97.5 t-69 -105t-97.5 -106t-111.5 -108t-111.5 -110.5t-97.5 -115q-95 -129 -95 -242q0 -81 22 -106q36 -41 111 -41q92 0 190 47q45 157 270 157q28 0 58 -10z" />
<glyph unicode="&#x1229;" horiz-adv-x="1405" d="M1247 649q-8 -64 -8 -159.5t88 -141.5q-35 -39 -201 -39q-96 0 -154 59q-63 65 -52 167q-57 -11 -138 -23l-43 -281q-6 -42 -6 -81q0 -69 58 -95v-32l-195 -39q-36 -9 -76 -9q-71 0 -71 107q0 24 2 39t4 29l49 323q-120 -8 -188 -8t-113.5 12t-69.5 35q-39 36 -39 120.5 t31.5 133.5t78.5 83.5t102 59.5t102 50.5t78.5 56.5t31.5 66t-6 51.5t-14 27.5t-15 16.5t-8 6.5q1 0 20 4.5t47.5 11t62.5 13.5t65 13q69 15 90 15q57 0 57 -80q0 -85 -110 -174q-47 -38 -102 -74.5t-102 -75.5q-110 -91 -110 -182q0 -55 27 -82.5t96 -27.5q52 0 105 10z " />
<glyph unicode="&#x122a;" horiz-adv-x="1174" d="M786.5 267q14.5 40 14.5 88.5t-49 54.5v26l186 72q7 2 16 4q18 6 35 6q56 0 79.5 -34t23.5 -102t-24 -114.5t-73 -79t-123.5 -58t-157 -50.5t-132.5 -39t-90 -23q-82 -18 -136 -18t-103.5 18t-84.5 50q-74 68 -74 178q0 181 202 374q87 84 189 169t147 131q99 101 99 174 q0 32 -20 46.5t-35 18.5v31l231 47q22 4 52 4t47.5 -22t17.5 -73.5t-26.5 -108t-70 -108.5t-98.5 -101t-113 -98t-113 -101t-99 -109q-96 -128 -96 -264q0 -72 37.5 -103.5t109.5 -31.5t116 20.5t72.5 53t43 72.5z" />
<glyph unicode="&#x122b;" horiz-adv-x="1542" d="M1407 610q0 -192 59 -284q-41 -25 -125 -25q-206 0 -206 195q-138 -11 -177 -84q-20 -39 -24.5 -102t-5.5 -156l-383 -125q-84 -29 -164 -29t-129.5 18t-84.5 50q-73 68 -73 178q0 185 196 376q62 62 172.5 158.5t153.5 143.5q97 106 97 190q0 47 -31 47v37l223 39 q22 4 45.5 4t34.5 -3.5t19 -13.5q18 -24 18 -83.5t-25.5 -113t-67.5 -103.5t-96 -98t-110 -97t-110 -100t-96 -107q-93 -124 -93 -254q0 -78 44 -108q42 -29 157 -27q11 258 219 360q122 59 342 91q102 14 221 26z" />
<glyph unicode="&#x122c;" horiz-adv-x="1419" d="M608 129q-35 60 -35 116.5t10 88t33 54.5q42 45 142 67q32 7 68.5 7t74 6.5t66 14.5t58.5 15q77 18 128 18q123 0 168 -98q16 -34 16 -82q0 -99 -88 -176q-91 -78 -213 -78l-67 2q-12 0 -32.5 -7.5t-47.5 -16.5q-70 -25 -125.5 -25t-99.5 33q-181 -68 -302 -68t-195 68 q-73 68 -73 178q0 185 196 376q62 62 172.5 158.5t153.5 143.5q97 106 97 190q0 47 -31 47v37l217 39q22 4 45 4t34.5 -3.5t19.5 -13.5q18 -24 18 -80t-26.5 -107t-70.5 -100.5t-99.5 -99t-114 -101.5t-114 -106t-99.5 -113q-97 -130 -97 -261q0 -60 37 -97.5t108 -37.5 q38 0 68 8zM1051 276q0 134 -86 134q-51 0 -78 -29t-27 -98q0 -136 98 -136q50 0 71.5 29t21.5 100z" />
<glyph unicode="&#x122d;" horiz-adv-x="1200" d="M729 88q-292 -88 -424 -88q-106 0 -152 68q-57 83 -57 264.5t9.5 294t32.5 193.5q45 154 157 229q159 104 383 149q76 16 130.5 18.5t89.5 5.5q75 5 165 5q8 -134 48 -213q14 -28 34 -58q-65 -36 -160 -36q-108 0 -153 24q-96 50 -87 178q-196 0 -279 -163 q-85 -166 -85 -558q0 -183 37 -237q19 -27 49 -34t72 -7q107 0 178 51q20 139 260 139q26 0 61 -10q-16 -12 -16 -72q0 -129 61 -176q-49 -63 -182 -63t-172 96z" />
<glyph unicode="&#x122e;" horiz-adv-x="1393" d="M641 1124q115 131 451 131q149 0 200 -47q43 -40 43 -155q0 -100 -67 -162q-73 -66 -176 -65q-37 1 -83.5 -6t-71 -18.5t-43.5 -23.5q-47 -28 -86.5 -28t-71 15.5t-55.5 43.5q-54 63 -54 152v23q0 14 0.5 30.5t1.5 36.5q-77 23 -154 -119q-94 -172 -94 -531 q0 -185 37 -245q19 -31 49 -40.5t58 -9.5q47 0 196 46q26 86 73 115q56 34 197 34q27 0 62 -10q-17 -10 -17 -103.5t56 -132.5q-52 -63 -184 -63t-171 96q-232 -88 -432 -88q-103 0 -152 80q-57 91 -57 300.5t30 351.5t95 229q122 163 420 163zM1079 1034q0 142 -86 142 q-51 0 -71.5 -33t-20.5 -103t19 -111.5t69 -41.5t65 25q25 40 25 122z" />
<glyph unicode="&#x122f;" horiz-adv-x="1554" d="M313 1080q0 167 -100 243q18 2 35 2h33q242 0 297 -135q16 -40 22 -84h494q31 220 312 220q31 0 67 -3q-44 -48 -57 -87q-23 -66 -23 -166v-32h-412q-17 -136 -206 -300q-53 -46 -107.5 -92.5t-106 -94t-91.5 -98.5q-89 -113 -89 -226q0 -63 29.5 -91t100.5 -28 q29 0 85 7q36 253 246 331q125 48 284 61t277 23v-52q0 -73 6.5 -129.5t36.5 -104.5q-68 -27 -168 -4q-143 34 -148 182q-18 2 -34 2q-107 0 -156.5 -78t-50.5 -252q-258 -34 -362 -55t-135 -27q-64 -12 -105 -12q-103 0 -148 58t-45 151t26 157.5t68 120t96 102.5t110 90 t110 82.5t96 78.5q94 89 94 166v32h-383q2 22 2 42z" />
<glyph unicode="&#x1230;" horiz-adv-x="1133" d="M1006 696l-15 -501q0 -62 7 -80q15 -33 61 -47v-33l-213 -31q-21 -3 -52 -3q-69 0 -69 110l18 528q0 358 -182 358q-53 0 -90 -25t-60 -92q-44 -127 -44 -485q0 -215 8.5 -256.5t22.5 -55t38 -22.5v-26l-207 -31q-30 -5 -48.5 -5t-35 11.5t-27.5 46.5q-22 70 -22 236.5 t6.5 256.5t17.5 149q51 259 337 345l-6 195q-3 54 -37 57l-4 25l231 39q18 3 34.5 3t28 -5.5t16.5 -13.5q9 -14 9 -44l-4 -225q160 -11 225 -111q56 -86 56 -268z" />
<glyph unicode="&#x1231;" horiz-adv-x="1542" d="M1434 596q0 -83 55 -125q-68 -47 -160 -47q-69 0 -102 19q-64 37 -97 126h-126q-13 -283 -13 -342t1 -79t8 -35q13 -31 59 -45v-33l-213 -31q-21 -3 -52 -3q-69 0 -69 110l18 528q0 358 -182 358q-53 0 -90 -25t-60 -92q-44 -127 -44 -485q0 -215 8.5 -256.5t22.5 -55 t38 -22.5v-26l-207 -31q-30 -5 -48.5 -5t-35 11.5t-27.5 46.5q-22 70 -22 236.5t6.5 256.5t17.5 149q51 259 337 345l-6 195q-3 54 -37 57l-4 25l231 39q18 3 34.5 3t28 -5.5t16.5 -13.5q9 -14 9 -44l-4 -225q160 -11 225 -111q56 -86 56 -268v-53h139q69 83 145 97 q27 5 52 5t38.5 -1t27.5 -4q27 -6 60 -19q-34 -70 -34 -93v-32z" />
<glyph unicode="&#x1232;" horiz-adv-x="1610" d="M1501 215q-35 -83 -35 -143.5t58 -134.5q-123 -52 -195 -52q-60 0 -95 29q-65 54 -71 123l-317 -35q-20 -2 -52 -2q-69 0 -69 109q0 58 3 145l6 138q2 50 4 96q5 115 5 176.5t-4.5 133t-19.5 121.5q-31 105 -123 105q-53 0 -92 -29t-65 -101q-52 -144 -52 -499 q0 -215 8.5 -256.5t22.5 -55t39 -22.5v-26l-207 -31q-30 -5 -48.5 -5t-35 11.5t-27.5 46.5q-22 70 -22 236.5t6.5 256.5t18.5 149q33 170 168 271q67 50 163 79l-2 184q0 34 -19 47.5t-34 15.5l-4 25l245 51q17 4 34 4q55 0 55 -63l-5 -234q159 -28 215 -122q48 -78 48 -261 l-11 -497l-1 -55q0 -26 7.5 -37t30.5 -11q30 0 131 15q76 114 256 114q31 0 51 -4t31 -6z" />
<glyph unicode="&#x1233;" horiz-adv-x="1133" d="M995 696l-14 -501q0 -62 7 -80q15 -33 61 -47v-33l-213 -31q-21 -3 -53 -3q-68 0 -68 110l18 528q0 358 -183 358t-183 -354q0 -143 10 -173.5t24.5 -40t38.5 -17.5v-27l-209 -37q-22 -4 -44 -4t-39.5 9.5t-29.5 34.5q-22 50 -22 148.5t5.5 143t15.5 76.5q36 116 165 210 q68 49 164 78l-6 195q-3 54 -37 57l-4 25l232 39q18 3 34.5 3t28 -5.5t16.5 -13.5q9 -14 9 -44l-4 -225q231 -16 268 -227q12 -67 12 -152z" />
<glyph unicode="&#x1234;" horiz-adv-x="1434" d="M713 1065q243 15 243 -297q0 -119 -14 -232.5t-14 -134.5q46 0 96 7q100 14 135 14q96 0 143.5 -40t47.5 -130q0 -84 -88 -156q-86 -69 -183 -69h-149q-27 0 -65 -9q-70 -18 -130 -18q-96 0 -96 104q0 31 18.5 217t24.5 259q16 172 16 241q0 176 -125 176q-54 0 -93 -25 t-64 -92q-49 -130 -49 -485q0 -201 13.5 -249.5t29.5 -62t41 -22.5v-26l-207 -31q-30 -5 -49.5 -5t-39 11.5t-32.5 46.5q-27 73 -27 238t6.5 255t17.5 149q35 175 164 263q64 43 160 72l-6 195q-3 54 -37 57l-4 25l232 39q18 3 34.5 3t28 -5.5t16.5 -13.5q9 -14 9 -44z M924 328q-18 -189 -3 -221q12 -27 54 -27q63 0 93 64q11 24 11 55.5t-4.5 53.5t-20.5 39q-34 36 -130 36z" />
<glyph unicode="&#x1235;" horiz-adv-x="1133" d="M1006 696l-15 -501q0 -62 7 -80q15 -33 61 -47v-33l-213 -31q-21 -3 -52 -3q-69 0 -69 110l18 528q0 358 -182 358q-53 0 -90 -25t-60 -92q-44 -127 -44 -485q0 -215 8.5 -256.5t22.5 -55t38 -22.5v-26l-207 -31q-30 -5 -48.5 -5t-35 11.5t-27.5 46.5q-22 70 -22 236.5 t6.5 256.5t17.5 149q28 141 109 216q65 61 205 123l-110 166q-10 15 -17.5 26t-12.5 22q-9 22 -9 46t23.5 39.5t53.5 18.5l261 26l8 -26q-23 -30 -23 -60q0 -49 25 -88l92 -133q160 -11 225 -111q56 -86 56 -268z" />
<glyph unicode="&#x1236;" horiz-adv-x="1159" d="M1005 686l-1 -74v-80q0 -53 15 -77t56 -37v-33l-217 -41q-35 -5 -62 -5q-59 0 -59 99l6 219q0 340 -182 340q-53 0 -90 -25t-60 -92q-44 -127 -44 -485q0 -215 8.5 -256.5t22.5 -55t38 -22.5v-26l-207 -31q-30 -5 -48.5 -5t-35 11.5t-27.5 46.5q-22 70 -22 236.5 t6.5 256.5t17.5 149q51 259 337 345l-6 195q-3 54 -37 57l-4 25l231 39q18 3 34.5 3t28 -5.5t16.5 -13.5q9 -14 9 -44l-4 -225q229 -16 269 -215q12 -62 12 -104v-48z" />
<glyph unicode="&#x1237;" horiz-adv-x="1434" d="M1311 98q-9 -21 -9 -75t56 -175q-27 -24 -83 -24t-94 13.5t-67 37.5q-61 52 -67 135l-617 -28q11 -68 -72 -139q-86 -74 -190 -74q-31 0 -50 1.5t-32 2.5q61 54 61 198q0 11 -10 66l469 24q1 21 5 63.5t8.5 99t10 122t11.5 131.5t11 128.5t9 113.5q9 115 9 147t-3.5 66.5 t-14.5 55.5q-22 40 -91 40q-75 0 -105 -29.5t-45 -69t-25 -101.5q-19 -119 -19 -365q0 -122 41 -148v-22l-205 -33q-64 -9 -82 38q-12 31 -12 126t2 165t11 134.5t28.5 121t55.5 101.5q74 95 220 123l-6 180q-5 16 -6 24.5t-3 13t-28 19.5l-4 25l232 39l39 5q52 0 49 -65 l-7 -227q143 -15 187 -89q36 -60 36 -240l-51 -678z" />
<glyph unicode="&#x1238;" horiz-adv-x="1311" d="M385 1327q161 21 236 29l118 14q43 5 84.5 10t77.5 9q28 163 285 163q11 0 30 -5.5t27 -8.5q-35 -83 -35 -117t5 -52t14 -33q12 -21 53 -62q-113 -62 -199 -62t-143 65q-16 19 -23 40l-151 -19v-249q165 -39 186 -180q6 -44 6 -90.5t-1 -98.5t-3 -107.5l-4 -111 t-4 -104.5q-4 -98 -4 -151t10 -84t47 -42v-33l-192 -31q-8 -2 -15 -2h-25.5t-38 11t-30.5 31q-20 35 -20 104l20 747q0 88 -71 88q-57 0 -88.5 -31.5t-51 -72t-33.5 -104.5q-32 -139 -32 -295.5t0.5 -215.5t1.5 -98t3.5 -61t6.5 -33q5 -16 23 -25v-26l-154 -29 q-19 -4 -48 -4t-52 25.5t-34 84.5q-17 91 -17 282t6 242.5t18 90.5q18 59 66 124q102 138 268 189v230q-77 -7 -113 -13q-12 -71 -80 -116t-194 -45q-67 0 -98 14q61 55 61 139q0 65 -32 105q-12 15 -29 32q63 46 185.5 46t176.5 -103z" />
<glyph unicode="&#x1239;" horiz-adv-x="1569" d="M1010 821q0 -36 -6 -106l131 10q58 111 262 111q43 0 90 -17q-33 -62 -35 -78t-2 -33t3 -34.5t11 -32.5q10 -22 54 -61q-20 -32 -134 -47q-151 -21 -218 67q-18 22 -23 53l-144 -10q-5 -63 -11 -132.5t-10 -132.5q-11 -147 -11 -179.5t2 -50.5t8 -30q11 -20 47 -30v-33 l-193 -12q-46 -4 -71.5 -4t-39.5 3.5t-22 13.5q-14 16 -14 48t2.5 65.5t6 82.5t8.5 108.5t10.5 123t10.5 125.5t8 116q9 131 9 161t-7.5 57t-19.5 45q-24 36 -59 36q-116 0 -179.5 -185.5t-63.5 -553.5q0 -114 12 -146t26.5 -46t36.5 -30v-26l-153 -29q-40 -8 -72.5 -8 t-55.5 14t-38 52q-27 71 -27 226t11.5 239.5t30.5 148.5q32 108 71.5 163.5t70 87t66.5 60.5q81 66 152 86l6 234q-31 -3 -65 -7.5t-60 -7.5q-33 -112 -178 -148q-50 -13 -108 -13q-79 0 -109 6q59 53 59 145q0 71 -18 96.5t-35 42.5q61 45 188 45q122 0 167 -55 q15 -19 30 -45q148 19 232 28l128 15q43 5 84.5 10t77.5 9q53 124 270 124q30 0 90 -12q-20 -35 -20 -78.5t0.5 -62t5.5 -35.5q8 -32 39 -63q-109 -50 -188.5 -50t-122.5 21.5t-68 81.5l-24 -3q-45 -6 -91 -12l-14 -249q193 -58 193 -273z" />
<glyph unicode="&#x123a;" horiz-adv-x="1569" d="M1434 94q0 -83 55 -149q-129 -55 -257 -35q-87 14 -108 131l-272 -25q-63 -5 -95.5 -5t-52.5 16.5t-20 47t2.5 65.5t6 86t8.5 113.5t10.5 128.5t10.5 131t8 121q9 136 9 166t-7.5 57t-19.5 45q-24 36 -59 36q-116 0 -179.5 -185.5t-63.5 -553.5q0 -114 12 -146t26.5 -46 t36.5 -30v-26l-153 -29q-40 -8 -72.5 -8t-55.5 14t-38 52q-27 71 -27 226t11.5 239.5t30.5 148.5q32 108 71.5 163.5t70 87t66.5 60.5q81 66 152 86l6 234q-31 -3 -65 -7.5t-60 -7.5q-33 -112 -178 -148q-50 -13 -108 -13q-79 0 -109 6q59 53 59 145q0 71 -18 96.5t-35 42.5 q61 45 188 45q122 0 167 -55q15 -19 30 -45q148 19 232 28l128 15q43 5 84.5 10t77.5 9q53 124 270 124q30 0 90 -12q-20 -35 -20 -78.5t0.5 -62t5.5 -35.5q8 -32 39 -63q-109 -50 -188.5 -50t-122.5 21.5t-68 81.5l-24 -3q-45 -6 -91 -12l-14 -249q144 -42 182 -188 q11 -43 11 -76.5t-4 -87.5t-10.5 -122.5t-13.5 -143t-14 -140.5q-14 -146 -14 -167v-31q0 -32 58 -32q26 0 118 11q36 78 170 105q41 9 72 9q44 0 64.5 -4t31.5 -6q-34 -81 -34 -127z" />
<glyph unicode="&#x123b;" horiz-adv-x="1325" d="M1274 1540q-19 -32 -19 -116t45 -119q-96 -50 -177.5 -50t-124.5 21.5t-68 81.5q-16 -2 -49 -6.5t-66 -8.5l-14 -249q147 -43 176 -174q10 -44 10 -88t-3.5 -100.5t-8.5 -124.5t-10.5 -139.5t-10.5 -133.5q-12 -150 -12 -187q0 -77 70 -98v-33l-193 -12q-36 -2 -62.5 -2 t-42.5 4t-24 14q-12 14 -12 51.5t2 79.5t5.5 95.5t8 115t9 124.5t9 124t8.5 113q7 111 7 151q0 164 -90 164q-65 0 -117 -72q-70 -96 -90 -273q-6 -52 -6 -119q0 -144 63 -173v-26l-153 -29q-33 -5 -59 -5t-50.5 15.5t-38.5 43.5q-24 48 -24 122t9.5 121t26.5 93 q78 219 258 313q37 19 76 28l7 234q-31 -3 -61 -7.5t-56 -7.5q-33 -112 -178 -148q-50 -13 -108 -13q-79 0 -109 6q59 53 59 145q0 71 -18 96.5t-35 42.5q61 45 188 45q122 0 167 -55q15 -19 30 -45q165 22 276.5 35t152.5 18t77 9q53 124 270 124q24 0 80 -16z" />
<glyph unicode="&#x123c;" horiz-adv-x="1487" d="M1325 1305q-109 -50 -188.5 -50t-122.5 21.5t-68 81.5l-24 -3q-45 -6 -91 -12l-14 -249q105 -31 148 -91q45 -63 45 -182q0 -100 -15.5 -258t-15.5 -166q20 1 47 5t58 8q79 12 153.5 12t121 -42t46.5 -115t-22.5 -113t-60.5 -65q-73 -48 -194 -48h-104q-29 0 -81 -9 q-186 -34 -233 -8q-24 14 -24 58q0 11 2.5 46.5t6 87.5t8.5 116t9.5 131t9.5 133.5t8 123.5q9 138 9 168t-7.5 59t-19.5 49q-25 44 -59 44q-116 0 -179.5 -192.5t-63.5 -560.5q0 -114 12 -146t26.5 -46t36.5 -30v-26l-153 -29q-40 -8 -72.5 -8t-55.5 14t-38 52 q-27 71 -27 226t11.5 239.5t30.5 148.5q32 108 71.5 163.5t70 87t66.5 60.5q81 66 152 86l6 234q-31 -3 -65 -7.5t-60 -7.5q-33 -112 -178 -148q-50 -13 -108 -13q-79 0 -109 6q59 53 59 145q0 71 -18 96.5t-35 42.5q61 45 188 45q122 0 167 -55q15 -19 30 -45 q148 19 232 28l128 15q43 5 84.5 10t77.5 9q53 124 270 124q30 0 90 -12q-20 -35 -20 -78.5t0.5 -62t5.5 -35.5q8 -32 39 -63zM1133 219q0 121 -80 121q-30 0 -74 -12q-2 -21 -3.5 -48.5t-3.5 -54.5t-2.5 -53.5t0.5 -41.5t6 -24q10 -14 37 -14t45 5.5t34 19.5q41 34 41 102z " />
<glyph unicode="&#x123d;" horiz-adv-x="1311" d="M1227 1530q-29 -66 -29 -123.5t14 -87.5t52 -53q-95 -52 -195 -52q-95 0 -159 60q-20 18 -27 39q-9 0 -24 -2t-36.5 -4.5t-54.5 -6.5l180 -239q209 -29 236 -189q8 -47 8 -93.5t-1 -98.5t-3 -107.5l-4 -111t-4 -104.5q-4 -98 -4 -151t10 -84t47 -42v-33l-193 -31 q-8 -2 -15 -2h-25.5t-38 11t-30.5 31q-20 35 -20 104l27 753q0 82 -78 82q-90 0 -140 -103q-65 -137 -65 -472q0 -302 8 -325t13.5 -27.5t13.5 -8.5v-26l-153 -29q-33 -5 -58.5 -5t-46.5 22t-32 79q-15 85 -15 408q0 224 84 342q83 117 207 158l-197 249q-41 -5 -61 -10 t-33 -6q-34 -102 -155 -145q-43 -15 -82 -15q-81 0 -125 27q36 36 36 120t-36 156q85 37 143 37t87.5 -6.5t52.5 -20.5q36 -21 69 -83q90 14 153.5 22.5t105 14.5t83.5 11t83 10t77 9q26 156 274 156q27 0 44.5 -1.5t31.5 -2.5z" />
<glyph unicode="&#x123e;" horiz-adv-x="1352" d="M1300 1544q-20 -35 -20 -78.5t0.5 -62t5.5 -35.5q8 -32 39 -63q-109 -50 -188.5 -50t-122.5 21.5t-68 81.5l-24 -3q-45 -6 -91 -12l-14 -249q189 -56 189 -258q0 -42 -10 -117q-17 -138 -17 -165.5t2 -45t8 -29.5q10 -21 47 -33v-32l-172 -13q-46 -4 -71.5 -4t-39.5 3.5 t-22 13.5q-14 16 -14 53.5t3.5 87t7.5 108.5q11 162 11 207.5t-7.5 74t-19.5 49.5q-26 42 -61 42q-116 0 -178.5 -191.5t-62.5 -559.5q0 -114 12 -146t26.5 -46t36.5 -30v-26l-153 -29q-40 -8 -72.5 -8t-55.5 14t-38 52q-27 71 -27 226t11.5 239.5t30.5 148.5 q32 108 71.5 163.5t70 87t66.5 60.5q81 66 152 86l6 234q-31 -3 -65 -7.5t-60 -7.5q-33 -112 -178 -148q-50 -13 -108 -13q-79 0 -109 6q59 53 59 145q0 71 -18 96.5t-35 42.5q61 45 188 45q122 0 167 -55q15 -19 30 -45q148 19 232 28l128 15q43 5 84.5 10t77.5 9 q53 124 270 124q30 0 90 -12z" />
<glyph unicode="&#x123f;" horiz-adv-x="1513" d="M1405 125q-7 -53 -7 -116.5t46 -137.5q-33 -23 -88.5 -23t-99 13.5t-78.5 38.5q-80 56 -86 137l-574 -25q12 -89 -72 -166q-86 -79 -192 -79q-30 0 -48.5 7.5t-31.5 14.5q59 89 59 180l-6 99l445 22q2 31 5.5 78.5t7.5 104t9 119t9 124t8 118.5t7 102q7 107 7 136.5 t-2 62.5t-12 53q-18 36 -86 36q-75 0 -102 -29.5t-40.5 -69t-21.5 -101.5q-15 -118 -15 -253t0.5 -158t3.5 -43q8 -43 33 -59v-22l-204 -33q-64 -9 -81 38q-10 29 -10 148v36q0 189 10.5 267.5t29 132.5t52.5 95q71 87 209 102l7 160l-169 -10q-13 -57 -69 -87.5t-144 -30.5 q-47 0 -87 7q48 74 48 141t-52 164q47 17 91.5 17t79.5 -10.5t62 -29.5q59 -39 71 -100l574 43q8 71 75 119q63 44 126.5 44t102.5 -13q-39 -60 -39 -154q0 -93 74 -149q-52 -40 -110 -40h-15q-125 0 -187 67q-21 22 -27 51l-147 -15l-9 -168q140 7 207 -70q49 -57 49 -145 q0 -7 -3 -54l-8 -118q-14 -223 -20.5 -314t-11.5 -163t-8 -115z" />
<glyph unicode="&#x1240;" horiz-adv-x="1352" d="M868 1010q126 14 185 14t98.5 -9t71.5 -32q73 -52 73 -160q0 -136 -120 -210q-123 -75 -394 -101l-47 -279q-2 -7 -3 -18t-2 -23q-3 -19 -3 -47.5t8 -51t43 -32.5v-30l-186 -23q-13 -2 -28.5 -5t-37 -3t-38.5 4t-28 15q-22 22 -22 85q0 17 4 39.5t6 35t3 18.5l51 290 q-171 -18 -213 -18q-223 0 -223 174q0 315 522 342l20 123q8 56 8 92q0 81 -67 100v23l174 21q40 8 89 8t69 -26.5t20 -57t-2.5 -53t-5.5 -47t-6 -45.5t-4 -31zM354 702q0 -141 115 -141q21 0 45 4l59 340q-112 -2 -165.5 -50.5t-53.5 -152.5zM999 793q0 133 -102 139h-41 l-59 -344q57 -9 97 17.5t61 55.5q44 61 44 132z" />
<glyph unicode="&#x1241;" horiz-adv-x="1393" d="M881 1010q126 14 184.5 14t98 -9t72.5 -32q73 -52 73 -160q0 -137 -121 -210q-123 -75 -393 -101l-27 -164l152 10q32 50 99 80.5t161 30.5q46 0 90 -12q-33 -38 -33 -109q0 -72 20.5 -99.5t40.5 -45.5q-21 -33 -131 -47q-107 -12 -180 31q-59 35 -65 100l-168 -15 l-6 -39q-9 -31 -9 -74t8 -65.5t44 -32.5v-30l-187 -23q-12 -2 -27.5 -5t-37 -3t-38.5 4t-28 15q-22 22 -22 85q0 21 12 93l51 290q-171 -18 -213 -18q-223 0 -223 174q0 315 522 342l21 123q8 56 8 92q0 80 -68 100v23l174 21q40 8 89 8t69 -26.5t20 -57t-2.5 -53t-5.5 -47 t-6 -45.5t-4 -31zM367 702q0 -141 115 -141q20 0 44 4l60 340q-113 -2 -166 -50.5t-53 -152.5zM1012 793q0 133 -103 139h-41l-59 -344q21 -3 48.5 0.5t58 23.5t52.5 49q44 60 44 132z" />
<glyph unicode="&#x1242;" horiz-adv-x="1350" d="M868 1010q126 14 185 14t98.5 -9t71.5 -32q73 -52 73 -160q0 -136 -120 -210q-123 -75 -394 -101l-47 -279q-3 -14 -1.5 -30.5t1.5 -44.5t21 -45t38 -17q44 0 66 2t45 4q23 56 89.5 89.5t168.5 33.5q38 0 78 -12q-45 -37 -45 -109q0 -78 42 -135q14 -18 32 -28 q-89 -58 -176.5 -58t-134 40.5t-52.5 111.5l-301 -27q-48 -8 -74.5 -8t-43.5 4t-28 15q-22 22 -22 85q0 17 4 39.5t6 35t3 18.5l51 290q-171 -18 -213 -18q-223 0 -223 174q0 315 522 342l20 123q8 56 8 92q0 81 -67 100v23l174 21q40 8 89 8t69 -26.5t20 -57t-2.5 -53 t-5.5 -47t-6 -45.5t-4 -31zM354 702q0 -141 115 -141q21 0 45 4l59 340q-112 -2 -165.5 -50.5t-53.5 -152.5zM999 793q0 133 -102 139h-41l-59 -344q57 -9 97 17.5t61 55.5q44 61 44 132z" />
<glyph unicode="&#x1243;" horiz-adv-x="1624" d="M1120 1008q100 20 181 20t121 -10.5t72 -33.5q75 -51 75 -130.5t-31 -129t-90 -83.5q-116 -68 -332 -80q-5 -98 -40 -162t-112 -107t-202.5 -71.5t-312.5 -56.5q-4 -113 -74 -187q-71 -75 -170 -75q-56 0 -119 35q61 22 61 174q0 29 -14 90q308 28 415 51.5t158.5 47.5 t81.5 58q56 60 58 183q-207 -23 -261.5 -23t-98 17.5t-70.5 44.5q-47 48 -47 115t27 112.5t84 78.5q110 63 366 91v156q0 94 -20 105q-8 5 -21 9v33l127 27q64 16 92 16t48.5 -12.5t31.5 -32.5q17 -32 17 -100l-1 -70v-100zM1289.5 754.5q6.5 30.5 6.5 75.5t-34.5 77 t-65.5 33.5t-46.5 1.5t-29.5 -2l-2 -303q19 -3 48 1t57 20.5t44 41t22.5 55zM641 727q0 -128 121 -128q38 0 84 13v289q-205 -8 -205 -174z" />
<glyph unicode="&#x1244;" horiz-adv-x="1364" d="M879 1010q126 14 184.5 14t98 -9t72.5 -32q73 -52 73 -160q0 -136 -120 -210q-123 -75 -390 -101l-21 -119q109 0 136.5 5t39.5 6q26 4 70 4q164 0 164 -154q0 -80 -50 -142q-55 -67 -143 -71l-168 -8q-66 -3 -128 -14q-127 -21 -162 -19t-50 10q-34 18 -34 82q0 11 6 49 t10 64l47 284q-180 -20 -215 -20q-223 0 -223 174q0 315 522 342l20 123q9 32 9 102t-68 90v23l174 21q40 8 89 8t69 -26.5t20 -57t-2.5 -53t-5.5 -47t-6 -45.5t-4 -31zM584 905q-113 0 -166 -49.5t-53 -136t27 -122.5t89 -36q21 0 47 4zM1010 793q0 133 -103 139h-41 l-57 -344q20 -3 47 0.5t57.5 23.5t52.5 49q44 60 44 132zM819 328l-55 -2l-14 -93q-13 -74 -13 -100.5t16 -32.5t58 -6t72 32.5t30 92.5q0 109 -94 109z" />
<glyph unicode="&#x1245;" horiz-adv-x="1352" d="M872 1010q101 14 170.5 14t109 -9t71.5 -32q73 -52 73 -160q0 -136 -120 -210q-123 -75 -392 -101l-49 -279q-2 -7 -3 -18t-2 -23q-3 -19 -3 -47.5t8 -51t43 -32.5v-30l-186 -23q-13 -2 -28.5 -5t-37 -3t-38.5 4t-28 15q-22 22 -22 85q0 17 4 39.5t6 35t3 18.5l51 290 q-171 -18 -213 -18q-223 0 -223 174q0 315 522 342l14 86q1 7 3.5 19.5t4 26t3 25.5t1.5 28.5t-6 36t-19 34.5q-22 26 -85 53q-50 -28 -102 -28q-94 0 -164 20q47 29 47 123q0 54 -15 85t-28 40q65 35 155 35q203 0 203 -131q0 -49 -31 -90l262 -27q76 -7 76 -86 q0 -33 -9.5 -83t-10.5 -60zM354 702q0 -141 115 -141q21 0 45 4l59 340q-112 0 -165.5 -49.5t-53.5 -153.5zM999 793q0 133 -102 139h-39l-59 -344q19 -3 46.5 0.5t58 23.5t51.5 49q44 61 44 132z" />
<glyph unicode="&#x1246;" horiz-adv-x="1337" d="M526 340q-172 -33 -243 -33t-108.5 17.5t-58.5 44.5q-34 45 -34 113.5t29.5 116t88.5 85.5q114 74 355 129q-12 27 -31.5 61t-37.5 70q-46 89 -46 142.5t33.5 106t90.5 90.5q120 81 284 81q132 0 194 -59q50 -47 50 -109t-14 -99.5t-44 -71.5q-52 -61 -182 -132l-4 -55 l38 8q92 18 152.5 18t100 -10t71.5 -32q72 -48 72 -129t-32.5 -134.5t-93.5 -92.5q-128 -79 -351 -87l-6 -66q-1 -7 -3 -26.5t-4 -41.5q-6 -48 -6 -83.5t9.5 -58t46.5 -29.5v-33l-193 -33q-12 -2 -27.5 -5t-37 -3t-37.5 5.5t-26 18.5q-19 26 -19 62t1.5 49t2.5 27q4 36 6 45 zM770 954q80 101 80 221.5t-76 120.5q-39 0 -59 -26q-33 -46 -33 -88t7.5 -68t20 -52.5t28.5 -53t32 -54.5zM993.5 566.5q5.5 30.5 5.5 61.5t-8 55t-23 43q-30 38 -79 42q-31 0 -47 -4q-2 -21 -3.5 -39.5t-2 -37t-2.5 -32.5l-21 -202q25 -6 58 -1.5t60 20.5t42 40t20.5 54.5 zM567 743q-112 -30 -145 -63t-43 -65t-10 -91q0 -114 166 -104l24 233q3 25 4.5 49t3.5 41z" />
<glyph unicode="&#x1247;" horiz-adv-x="1337" d="M526 340q-172 -33 -243 -33t-108.5 17.5t-58.5 44.5q-34 45 -34 113.5t29.5 116t88.5 85.5q114 74 355 129q-12 27 -31.5 61t-37.5 70q-46 89 -46 142.5t33.5 106t90.5 90.5q120 81 284 81q132 0 194 -59q50 -47 50 -109t-14 -99.5t-44 -71.5q-52 -61 -182 -132l-4 -55 l38 8q92 18 152.5 18t100 -10t71.5 -32q72 -48 72 -129t-32.5 -134.5t-93.5 -92.5q-128 -79 -351 -87l-6 -66q-1 -7 -3 -26.5t-4 -41.5q-6 -48 -6 -83.5t9.5 -58t46.5 -29.5v-33l-463 -74q2 -107 -93 -197q-87 -83 -181 -83q-54 0 -90 16q57 103 57 191q0 43 -14 90l451 72 q-7 23 -7 59zM567 743q-112 -30 -145 -63t-43 -65t-10 -91q0 -114 166 -104l24 233q3 25 4.5 49t3.5 41zM993.5 566.5q5.5 30.5 5.5 61.5t-8 55t-23 43q-30 38 -79 42q-31 0 -47 -4q-2 -21 -3.5 -39.5t-2 -37t-2.5 -32.5l-21 -202q25 -6 58 -1.5t60 20.5t42 40t20.5 54.5z M770 954q80 101 80 221.5t-76 120.5q-39 0 -59 -26q-33 -46 -33 -88t7.5 -68t20 -52.5t28.5 -53t32 -54.5z" />
<glyph unicode="&#x1248;" horiz-adv-x="1475" d="M1106 483l106 6q88 0 140 -61q45 -53 45 -118t-15 -102.5t-40 -61.5q-52 -50 -130 -50q-29 0 -62 10q-62 17 -88 17t-53 -10.5t-52 -23.5q-65 -34 -93.5 -34t-47.5 12.5t-30 32.5q-22 39 -22 79t2 60t6 39q11 47 25 64l-95 -31l-8 -67q-6 -42 -6 -98.5t33 -84.5v-30 l-174 -23q-13 -2 -28.5 -5t-34.5 -3t-35 4t-29 15q-27 24 -27 67q0 67 10 137l41 309q-154 -28 -188 -28t-68.5 11.5t-59.5 36.5q-56 54 -56 145t21.5 154.5t72.5 111.5q109 101 350 120l8 64q6 42 6 70.5t-17 63t-48 48.5v31l182 22q60 9 99 9q81 0 81 -88q0 -35 -9.5 -99 t-10.5 -74l-4 -26q89 12 158 12t104.5 -11.5t62.5 -36.5q60 -57 60 -167q0 -143 -108 -237q-123 -107 -347 -115l-20 -160q18 6 38 13t39 13q38 12 64 21q63 53 176 53zM743 629q7 -4 31.5 -2t53 32t47.5 71q38 80 38 137.5t-8 83t-21 43.5q-26 36 -63 36h-12t-14 -2z M1010 270q0 -94 69 -94q25 0 46.5 38t21.5 98t-16.5 81t-36.5 21q-84 0 -84 -144zM506 1006q-133 -18 -170 -160q-12 -44 -12 -105.5t30.5 -97.5t100.5 -31z" />
<glyph unicode="&#x124a;" horiz-adv-x="2144" d="M2032 721q-4 -16 -4 -55.5t3 -62t11 -47.5q18 -62 51 -99q-58 -17 -105 -17t-90.5 12.5t-77.5 37.5q-73 55 -73 149l-256 4q-59 1 -80.5 20.5t-21.5 51t14 90.5h-88q-41 -160 -281 -223q-87 -22 -207 -29l-39 -309q-6 -42 -6 -88q0 -62 86 -97v-30l-229 -23 q-36 -6 -71 -6t-62 24t-27 49t1.5 41.5t3.5 34.5q5 30 12 74l36 289q-170 -20 -221 -20q-227 0 -227 174q0 296 508 319l20 162q6 42 6 65q0 91 -57 117v31l182 22q60 9 85.5 9t43.5 -7t30 -18q20 -20 20 -51q0 -35 -11 -105t-12 -80l-12 -90q150 25 208 25t99 -9t70 -30 q57 -44 59 -154h96l29 115q3 15 3 45t-21 33v20l233 33q50 7 71.5 -11t21.5 -39.5t-5 -41.5l-80 -301zM918 966q-16 0 -39 -5l-41 -330q91 4 141 70q43 57 43 127q0 138 -104 138zM377 725q0 -142 116 -142q13 0 48 5l41 323q-139 0 -188 -101q-17 -36 -17 -85z" />
<glyph unicode="&#x124b;" horiz-adv-x="1284" d="M834 1229q74 28 144 28t109 -15.5t71 -45.5q71 -70 71 -180q0 -133 -117 -236q-126 -112 -307 -112q-23 0 -45 2l-35 -246h295l2 -223q0 -62 28 -106q7 -12 15 -17v-35l-154 -33q-40 -8 -73.5 -8t-58 19.5t-25.5 72.5l-4 262h-316q13 -71 -60 -148q-80 -83 -190 -83 q-33 0 -73 18q32 38 47 161q5 36 5 66.5t-3 53.5h293l34 246q-99 -29 -154.5 -29t-97 11t-75.5 37q-78 60 -78 183q0 140 116 239q126 107 320 107h20t21 -1l8 57q6 42 6 70.5t-13 50t-54 26.5v27l201 33q39 6 67 6q72 0 72 -107q0 -12 -1.5 -32.5t-3 -42.5t-4 -43t-3.5 -33 zM770 754q42 -9 45 -9q62 0 98 98q29 79 29 138t-8 84.5t-20 42.5q-27 37 -64 37h-12q-7 0 -15 -2zM447 747q18 0 51 7l51 385q-90 16 -147 -61q-56 -73 -56 -202t101 -129z" />
<glyph unicode="&#x124c;" horiz-adv-x="1419" d="M956 1118q108 15 176 15t107 -11t67 -34q60 -48 60 -127.5t-26.5 -132t-83.5 -90.5q-114 -77 -357 -87q-12 -96 -12 -121l237 17q144 0 144 -168q0 -108 -76 -165q-69 -54 -176 -52l-113 2q-113 3 -353 -60q-60 -15 -101 -28q-9 -187 -161 -240q-47 -16 -83 -16 q-62 0 -105 10q29 51 40.5 120.5t11.5 93.5t-17 83q208 3 293 23t139 38l47 418q-163 -31 -194 -31q-201 0 -201 189q0 145 128 236q122 86 323 94l6 47q6 42 6 63t-2 36t-10 26q-15 25 -58 34v33l183 23q53 8 82 8t46 -6.5t27 -18.5q17 -22 17 -46t-0.5 -40t-2.5 -37 q-4 -64 -8 -98zM907 713q174 12 174 205q0 61 -38 101q-32 34 -68 34h-13q-8 0 -14 -2q-13 -94 -24.5 -194.5t-16.5 -143.5zM662 1014q-183 -4 -183 -213q0 -65 25 -92.5t61.5 -27.5t59.5 3zM854 229q24 -8 47.5 -8t40.5 9t32 26q36 42 36 96t-27 79t-50 25q-34 0 -56 -10 q-12 -57 -23 -217z" />
<glyph unicode="&#x124d;" horiz-adv-x="2021" d="M1913 909q-29 -71 -29 -124t10.5 -79.5t24.5 -45.5q26 -34 49 -44q-85 -32 -133 -32t-92.5 17t-78.5 49q-77 70 -67 177l-417 -8q-44 -179 -262 -243q-78 -23 -185 -27l-39 -305q-6 -42 -6 -98.5t33 -84.5v-30l-174 -23q-13 -2 -28.5 -5t-34.5 -3t-35 4t-29 15 q-27 24 -27 67q0 67 10 137l41 309q-154 -28 -188 -28t-67.5 11.5t-58.5 36.5q-52 54 -52 145t21 154.5t71 111.5q107 101 346 120l8 64q6 42 6 73t-12 57.5t-53 49.5v33l182 22q60 9 99 9q81 0 81 -88q0 -35 -9.5 -99t-10.5 -74l-4 -26q89 12 188 12q197 0 197 -215v-14 l137 4l14 133q2 12 -7 30.5t-34 30.5v29l213 39q22 4 42 4t33.5 -6.5t19.5 -17.5q11 -19 6 -56l-19 -176zM506 1006q-131 -17 -166 -160q-10 -44 -10 -105.5t28.5 -97.5t96.5 -31zM743 629q7 -4 31.5 -2t53 26.5t47.5 61.5q38 74 38 178q0 103 -57 129q-17 8 -29 8h-18 q-6 0 -14 -2z" />
<glyph unicode="&#x1250;" horiz-adv-x="1391" d="M1342 1596q-32 -49 -32 -93t6 -68.5t15 -42.5q13 -25 44 -48q-40 -37 -131 -50q-30 -5 -86 -5q-117 0 -166 88l-92 -10q21 -44 21 -85q0 -56 -11 -140l-12 -92q135 18 194 18t97 -12t69 -36q68 -56 68 -151q0 -122 -130 -199q-128 -76 -366 -94l-49 -344q-1 -7 -2 -18 t-3 -22q-3 -27 -3 -41q0 -80 61 -97v-30l-186 -19q-36 -6 -66.5 -6t-47.5 2.5t-28 11.5q-24 18 -24 80q0 19 7 58t8 45l47 346q-153 -23 -202.5 -23t-92.5 8.5t-77 30.5q-75 50 -75 152q0 111 119 194q137 96 393 111l19 143q10 68 10 110t-27 68l-121 -12q-6 -76 -94 -114 q-48 -21 -108 -17t-82.5 9t-32.5 11.5t-8 10.5q31 66 28.5 92t-2.5 37q0 68 -55 133q24 6 42.5 12t37.5 10q44 11 98 11q167 0 181 -125l485 53q28 162 266 162q11 0 27.5 -2.5l33 -5t35.5 -5.5zM1039 834q0 33 -8 58t-23 44q-33 40 -89 40q-15 0 -33 -4l-45 -322 q97 -4 151 55q47 51 47 129zM388 736q0 -124 115 -124q16 0 51 5l43 318q-100 3 -154.5 -47t-54.5 -152z" />
<glyph unicode="&#x1251;" horiz-adv-x="1432" d="M1305 1604q-25 -58 -25 -97t7 -62.5t17 -46.5q24 -51 46 -69q-79 -43 -111.5 -45t-64.5 -2t-65 10t-58 26q-49 33 -64 79l-139 -17q39 -45 39 -131q0 -83 -6 -143l-7 -78q153 27 224 27t105.5 -11t60.5 -34q57 -52 57 -128t-27.5 -129t-85.5 -95q-124 -90 -372 -119 l-15 -179l146 11q22 51 95 85q71 33 165 33q50 0 78 -12q-23 -23 -23 -77.5t2.5 -73.5t9.5 -36q13 -32 52 -67q-21 -33 -132 -47q-108 -12 -180 25q-60 31 -65 94l-154 -10l-2 -37q-6 -42 -6 -82q0 -74 63 -90v-31l-202 -39q-129 -30 -148 42q-6 21 -6 41t1 33.5t2.5 27.5 t2.5 26.5t2 18.5l27 292q-187 -36 -229.5 -36t-85 8t-72.5 29q-66 45 -66 133t43 145.5t113 99.5q140 85 338 105l14 155q2 14 1 40.5t-1 48.5t-4 41t-11 36q-14 35 -40 54l-127 -15q8 -86 -71 -131q-73 -43 -206 -43q-63 0 -98 14q37 26 37 132.5t-37 158.5q91 25 162 25 q161 0 203 -80l561 61q18 108 150 140q41 10 75 10t64.5 -5.5t42.5 -8.5zM584 895q-191 -16 -191 -211q0 -124 118 -124q20 0 44 3zM877 625q147 0 147 171q0 151 -111 158q-23 0 -45 -6l-24 -323h33z" />
<glyph unicode="&#x1252;" horiz-adv-x="1393" d="M1339 1583q-32 -49 -32 -93.5t6 -69t15 -41.5q13 -25 44 -48q-55 -55 -192 -55q-80 0 -122.5 20t-68.5 68l-92 -10q21 -44 21 -85q0 -59 -11 -141l-12 -92q143 19 198 19t93 -12t68 -37q69 -56 69 -150q0 -187 -286 -260q-92 -24 -210 -33l-49 -332q-4 -28 -4 -70.5 t22 -59.5t40 -17q42 0 64.5 2t45.5 4q23 56 89.5 89.5t168.5 33.5q38 0 78 -12q-45 -37 -45 -109q0 -78 43 -135q13 -18 31 -29q-88 -57 -176 -57t-138.5 39t-56.5 110l-289 -16l-78 -6q-53 0 -68 10q-28 17 -28 62q0 29 17 125l47 333q-147 -22 -199.5 -22t-95.5 8.5 t-76 30.5q-76 50 -76 151q0 110 120 194q137 96 392 111l19 144q10 64 10 108t-25 70l-123 -12q-4 -50 -84 -95q-75 -42 -136.5 -42t-88.5 2t-43 14q53 59 53 137.5t-55 145.5q24 6 42.5 11.5t37.5 9.5q44 11 84.5 11t70.5 -6t56 -20q61 -32 68 -99l485 54q28 161 266 161 q20 0 96 -12zM1036 820q0 32 -8 56.5t-23 43.5q-33 40 -86 40q-19 0 -36 -4l-45 -319q98 -4 151 54q47 51 47 129zM385 723q0 -126 116 -126q15 0 50 5l43 320q-100 3 -154.5 -47t-54.5 -152z" />
<glyph unicode="&#x1253;" horiz-adv-x="1624" d="M1118 983q126 23 200 23t113 -10.5t70 -33.5q70 -52 70 -132t-31 -129.5t-90 -84.5q-113 -67 -336 -77q-6 -134 -66 -207q-86 -103 -378 -160q-98 -19 -224 -37q-4 -114 -73 -187q-71 -75 -170 -75q-56 0 -119 35q61 22 61 174q0 29 -14 90q313 27 421.5 51t161 48.5 t83.5 58.5q55 60 57 190v4q-198 -22 -258 -22t-103.5 17t-70.5 44q-47 48 -47 116t27.5 113t85.5 78q110 63 368 91l2 151q0 43 -20 84t-52 66l-96 -11q-4 -49 -84 -96q-76 -45 -137 -45t-88.5 2t-42.5 14q53 59 53 138.5t-55 144.5q24 6 42 12t38 11q45 10 85 10t70 -5 t56 -17q60 -29 67 -95l484 49q13 79 68 116q66 46 198 46q20 0 96 -12q-5 -9 -12.5 -19.5t-14.5 -24.5q-16 -30 -16 -67q0 -105 66 -149q-47 -47 -183 -47q-115 0 -160 47q-17 17 -30 41l-98 -11q26 -49 26 -215v-96zM1300.5 732.5q6.5 30.5 6.5 61t-9.5 52.5t-25.5 38 q-32 32 -66 34q-61 4 -88 -3l-2 -299q59 -14 102 11.5t59.5 50t23 55zM647 711q0 -128 122 -128q39 0 85 13l2 289q-101 -3 -155 -43.5t-54 -130.5z" />
<glyph unicode="&#x1254;" horiz-adv-x="1391" d="M1294 1468q0 -105 66 -149q-47 -47 -154.5 -47t-150 20t-68.5 68l-90 -10q14 -25 14 -60t-2.5 -58t-5.5 -47t-6 -45.5t-4 -31.5l-10 -68q96 13 160 13t108.5 -7.5t82.5 -28.5q89 -49 89 -155q0 -191 -274 -262q-96 -25 -232 -37l-24 -170q112 0 139.5 5t39.5 6q26 4 70 4 q164 0 164 -154q0 -81 -50 -142q-54 -67 -142 -71l-168 -8q-68 -3 -129 -14q-127 -21 -162 -19t-50 10q-34 18 -34 82q0 11 6 49t10 64l48 325q-187 -22 -235.5 -22t-91.5 14t-69 38q-49 47 -49 116t33 121t97 94q138 90 384 113l21 147q1 7 2 19.5t3 26.5q3 33 3 55 q0 50 -31 67l-115 -12q-4 -50 -84 -97q-77 -45 -137.5 -45t-87.5 2t-43 15q53 59 53 138t-55 144q24 6 42.5 12t37.5 10q44 11 84.5 11t70.5 -4.5t56 -17.5q61 -30 68 -95l483 50q28 161 266 161q20 0 96 -12q-5 -9 -12.5 -19.5t-14.5 -23.5q-16 -31 -16 -68zM1036 831 q0 126 -127 136h-16q-10 0 -21 -2l-45 -326q23 -3 51 0.5t59 17t53 37.5q46 49 46 137zM373 723q0 -123 118 -123q24 0 54 6l47 320q-106 -6 -162.5 -59t-56.5 -144zM840 328l-58 -2l-12 -93q-10 -68 -10 -97t14.5 -35.5t57 -6.5t72.5 32.5t30 92.5q0 109 -94 109z" />
<glyph unicode="&#x1255;" horiz-adv-x="1542" d="M1038 872q101 19 175.5 19t112.5 -9t69 -32q69 -51 69 -160q0 -187 -271 -268q-94 -28 -224 -37l-41 -285q-1 -7 -2 -18t-2 -23q-4 -28 -4 -52t8 -46.5t43 -32.5v-30l-187 -23q-12 -2 -27.5 -5t-37 -3t-38.5 4t-28 15q-22 22 -22 85q0 32 12 92l43 293q-120 -20 -215 -20 q-223 0 -223 174q0 236 276 306q97 25 234 32l20 139q1 7 2 20t2 27q4 31 4 59.5t-20 55.5q-10 0 -26 -1t-34.5 -2t-39.5 -2q-162 -12 -175.5 -3t-13.5 37v231l-94 -12q-11 -82 -66 -118t-137 -36q-120 0 -145 14q33 44 33 136q0 62 -19 108.5t-33 63.5q104 26 162 26 q148 0 199 -123l602 72q19 112 155 150q44 12 76 12q41 0 101 -12q-27 -42 -27 -104.5t2.5 -87t7.5 -41.5q10 -29 35 -48q-25 -25 -123 -25q-168 0 -215 86l-250 -30q20 -42 22.5 -122t6.5 -110l123 15q53 8 96 8q82 0 82 -101q0 -30 -8.5 -89.5t-9.5 -69.5zM1068 798 q-17 0 -40 -5l-49 -332q99 -4 153 62q44 55 44 129q0 146 -108 146zM537 569q0 -141 115 -141q20 0 44 4l49 336q-208 6 -208 -199z" />
<glyph unicode="&#x1256;" horiz-adv-x="1516" d="M1063 850q227 0 227 -182q0 -133 -118 -210q-121 -79 -335 -79h-30l-8 -66q-1 -7 -3 -26.5t-4 -41.5q-6 -48 -6 -83.5t9.5 -58t46.5 -29.5v-33l-193 -33q-12 -2 -27.5 -5t-37 -3t-37.5 5.5t-26 18.5q-19 26 -19 62t1.5 49t2.5 27q4 36 6 45l18 133q-133 -29 -204.5 -29 t-111.5 16.5t-68 42.5q-58 55 -58 118.5t30 112t92 87.5q117 74 370 131q-8 25 -24.5 50t-33.5 55q-43 78 -43 150t28.5 121.5t78.5 84.5q103 72 268 72q136 0 212 -56q64 -48 64 -122q0 -152 -284 -310l8 -26q18 1 42.5 3.5t52.5 4.5q84 4 114 4zM1487 1671 q-27 -63 -27 -120t4 -82t9 -46q11 -46 22 -59q-46 -23 -83 -24t-73.5 -1t-76 9.5t-68.5 25.5q-62 33 -76 76l-620 -86q-54 -87 -92 -109q-64 -38 -183 -38q-63 0 -98 14q39 43 39 143t-41 158q62 22 129 22t98 -6.5t60 -19.5q66 -30 90 -76l604 70q89 150 340 150h22 q10 0 21 -1zM582 748q-74 -4 -140 -62q-73 -64 -73 -140t36 -101.5t106 -25.5h15q7 0 15 1l32 254q4 18 5.5 37.5t3.5 36.5zM1011 575q9 32 9 63t-11.5 53.5t-30.5 38.5q-37 34 -89 38h-17q-9 0 -18 -2q0 -31 -4 -53l-33 -262q64 -9 105.5 16t60.5 50.5t28 57.5zM793 948 q79 94 79 199q0 68 -16.5 96.5t-54.5 28.5t-59 -34t-21 -80t6.5 -74.5t16.5 -52.5q15 -36 49 -83z" />
<glyph unicode="&#x1258;" horiz-adv-x="1475" d="M711 414q261 92 417 92q159 0 231 -70q50 -50 50 -111.5t-18 -96t-47 -55.5q-54 -40 -138 -40l-139 19q-43 0 -88.5 -25.5t-69 -37t-49 -11.5t-44.5 12.5t-30 33.5q-22 38 -22 77.5t0.5 60t3.5 40.5q6 50 18 65l-84 -31l-8 -70q-6 -42 -6 -94t33 -80v-31l-174 -30 q-13 -2 -28.5 -5t-34.5 -3t-35 4t-29 15q-27 24 -27 67q0 67 10 137l35 309q-128 -29 -172 -29t-78.5 11.5t-59.5 36.5q-56 56 -56 145.5t20.5 151.5t69.5 109q104 97 336 118l24 221l-98 -14q-12 -71 -76 -114.5t-190 -43.5q-64 0 -99 14q54 49 54 131q0 76 -62 138 q68 45 190.5 45t172.5 -97l495 72q27 158 244 158q18 0 50 -8l28 -7q-29 -66 -29 -103t6 -56t16 -36q15 -22 56 -63q-98 -54 -133 -60.5t-60 -6.5t-52 9.5t-49 24.5q-48 33 -62 76l-113 -16l-27 -246q106 14 169.5 14t99 -11.5t63.5 -36.5q60 -57 60 -167q0 -139 -108 -233 q-118 -102 -341 -113zM735 641l15 -2q74 0 117 100q34 79 34 139.5t-8 87t-21 45.5q-26 40 -63 40q-15 0 -31 -4zM1094 434q-84 0 -84 -141q0 -69 28 -77q11 -3 26.5 -3t30.5 7.5t27 23.5q25 35 25 92.5t-16.5 77.5t-36.5 20zM489 1026q-120 -23 -155 -162q-10 -42 -10 -101 q0 -139 122 -134z" />
<glyph unicode="&#x125a;" horiz-adv-x="2144" d="M2050 735q-4 -16 -4 -99t53 -142q-58 -17 -102 -17t-86 5.5t-76 25.5q-78 46 -76 160h-262q-64 0 -77 6q-23 11 -23 41.5t14 89.5h-96q-56 -211 -479 -240l-37 -291q-6 -42 -6 -82.5t14 -59.5t55 -36v-30l-213 -33q-36 -6 -70.5 -6t-62 26t-27.5 57.5t6 70t11 73.5 l35 272q-132 -22 -200 -22t-108.5 4t-73.5 20q-75 38 -75 138q0 300 516 319l43 332l-115 -17q-27 -157 -254 -157q-63 0 -98 14q53 48 53 131q0 64 -17 92.5t-32 49.5q60 40 173 40t165 -98l508 74q6 158 244 158q17 0 40 -6t38 -9q-29 -66 -29 -103t6 -56t17 -36 q13 -21 55 -63q-75 -52 -114.5 -57.5t-65.5 -5.5t-54.5 9t-53.5 23q-55 32 -69 74l-102 -14l-41 -318q138 23 197 23t100 -9t70 -30q57 -44 59 -154h104l29 115q4 12 4 43.5t-18 34.5v20l229 33q50 7 71.5 -10.5t21.5 -36.5q0 -30 -5 -45l-80 -291h371zM1022 834 q0 132 -106 132q-14 0 -29 -3l-41 -320q131 8 166 125q10 33 10 66zM592 911q-145 3 -197 -99q-18 -36 -18 -96q0 -122 107 -122q37 0 67 8z" />
<glyph unicode="&#x125b;" horiz-adv-x="1323" d="M1272 1647q-29 -67 -29 -104t6 -55.5t17 -35.5q13 -21 55 -63q-88 -64 -178 -64q-54 0 -94 23q-70 41 -84 84l-103 -15l-28 -219q76 29 145 29t108 -15.5t71 -45.5q71 -70 71 -181q0 -152 -91 -227q-105 -87 -378 -121l-31 -227h293q-8 -84 -8 -103t4.5 -48t12.5 -59 q19 -74 44 -106v-20l-164 -37q-38 -10 -69 -10q-88 0 -88 94l-2 235h-306q-16 -166 -149 -216q-45 -17 -82 -17q-62 0 -90 14q31 37 43 148q3 33 3 64.5t-3 60.5h289l30 227q-106 -25 -160 -25t-95.5 11t-75.5 37q-78 61 -78 184q0 136 121 232q127 101 324 101h17 q8 0 17 -1l29 200l-133 -18q-27 -158 -254 -158q-59 0 -95 8q50 45 50 138q0 63 -17.5 91.5t-32.5 49.5q56 41 171.5 41t166.5 -98l508 73q6 158 244 158q11 0 24.5 -2.5t25.5 -4.5zM770 723q37 -8 45 -8q62 0 98 97q29 79 29 138t-8 84.5t-20 43.5q-27 36 -64 36h-14 q-7 0 -13 -2zM549 1102q-79 0 -141 -68q-66 -73 -66 -180q0 -115 89 -142q29 -8 65 -3z" />
<glyph unicode="&#x125c;" horiz-adv-x="1460" d="M1409 1597q-29 -66 -29 -103t6 -56t16 -36q15 -22 56 -63q-75 -52 -114 -57.5t-65.5 -5.5t-55 9t-53.5 23q-54 32 -68 74l-117 -16l-29 -236q94 13 163 13t111.5 -10t74.5 -32q71 -49 71 -140q0 -189 -256 -263q-91 -26 -219 -30q-6 -57 -10 -94t-4 -44l235 2 q78 0 103 -12q55 -27 55 -114q0 -106 -74 -165q-65 -53 -174 -51l-112 3q-93 5 -404 -75q-40 -11 -67 -20q-9 -185 -159 -234q-47 -16 -83 -16q-65 0 -107 13q30 52 41 116.5t11 82.5q0 26 -17 90q211 3 297.5 23t140.5 38l52 397l-42 -7q-90 -15 -124.5 -15t-74 6.5 t-76.5 25.5q-89 47 -89 134.5t24.5 144.5t79.5 97q108 77 361 91l31 242l-142 -20q-26 -158 -254 -158q-58 0 -94 8q49 44 49 137q0 64 -17 92.5t-32 49.5q61 41 173 41t165 -99l524 76q4 81 63.5 119.5t180.5 38.5q18 0 50 -8zM1048 1046q-24 17 -48 17q-32 0 -52 -4 q-20 -155 -39 -328q88 2 138 69q43 57 43 120q0 95 -42 126zM479 801q0 -117 121 -117q17 0 33 2l43 332q-108 -6 -152.5 -60t-44.5 -157zM856 264q24 -8 47.5 -8t42 7.5t34.5 22.5q40 36 40 74t-9 56t-24 29q-30 22 -59 22q-35 0 -51 -2q-14 -64 -21 -201z" />
<glyph unicode="&#x125d;" horiz-adv-x="2019" d="M1898 948q-18 -86 -18 -134.5t7.5 -74t17.5 -43.5q19 -32 39 -41q-70 -28 -116.5 -28t-91 15.5t-78.5 45.5q-75 66 -65 172l-127 -6l-295 -18q-57 -170 -275 -237q-75 -23 -169 -28l-33 -305q-6 -42 -6 -94t33 -80v-31l-174 -30q-13 -2 -28.5 -5t-34.5 -3t-35 4t-29 15 q-27 24 -27 67q0 67 10 137l35 309q-128 -29 -172 -29t-78.5 11.5t-59.5 36.5q-56 56 -56 145.5t20.5 151.5t69.5 109q104 97 336 118l24 225l-100 -14q-12 -71 -76 -114.5t-190 -43.5q-64 0 -99 14q54 49 54 131q0 64 -33 106q-12 15 -29 32q68 45 190.5 45t172.5 -97 l495 72q27 158 244 158q18 0 50 -8l28 -7q-29 -66 -29 -103t6 -56t16 -36q14 -21 56 -63q-98 -54 -133.5 -60.5t-60 -6.5t-51.5 9.5t-49 24.5q-48 33 -62 76l-109 -16l-29 -250q106 14 169.5 14t101 -8.5t67.5 -30.5q66 -50 66 -157v-16q0 -7 -2 -13l133 6l22 150 q7 39 -41 49v29l207 47q25 6 44.5 6t32.5 -7t20 -19q11 -19 6 -56l-19 -174zM735 641l15 -2q74 0 117 100q34 79 34 139.5t-8 87t-21 45.5q-26 40 -63 40q-15 0 -31 -4zM489 1026q-120 -23 -155 -162q-10 -42 -10 -101q0 -139 122 -134z" />
<glyph unicode="&#x1260;" horiz-adv-x="1092" d="M709 956q0 261 -152 261q-64 0 -92.5 -37.5t-45 -92t-28.5 -145.5q-24 -184 -24 -547v-101q0 -142 10 -172t26.5 -41t45.5 -20v-26l-207 -31q-20 -3 -41 -3t-41.5 14t-34.5 55q-29 85 -29 258.5t1.5 257.5t4.5 146t9 106.5t15 81.5q16 59 54 137q56 114 179 176.5 t294 62.5q183 0 258 -118q56 -89 56 -265q0 -88 -8.5 -259t-11.5 -239q-7 -159 -7 -213.5t0.5 -72t6.5 -29.5q10 -21 61 -32v-33l-213 -31q-21 -3 -53 -3q-68 0 -68 110q0 99 11 307t15 286q9 176 9 252z" />
<glyph unicode="&#x1261;" horiz-adv-x="1556" d="M1442 768q0 -83 55 -125q-68 -47 -160 -47q-69 0 -102 19q-63 36 -96 126h-176q-23 -529 -23 -561.5t0.5 -50t6.5 -29.5q10 -21 61 -32v-33l-213 -31q-21 -3 -53 -3q-68 0 -68 110q0 99 11 307t15 286q9 176 9 252q0 261 -152 261q-64 0 -92.5 -37.5t-45 -92 t-28.5 -145.5q-24 -184 -24 -547v-101q0 -142 10 -172t26.5 -41t45.5 -20v-26l-207 -31q-20 -3 -41 -3t-41.5 14t-34.5 55q-29 85 -29 258.5t1.5 257.5t4.5 146t9 106.5t15 81.5q16 59 54 137q56 114 179 176.5t294 62.5q183 0 258 -118q56 -89 56 -265v-46q0 -26 -2 -52 h188q52 60 85 76q53 27 95 27t55.5 -1.5t27.5 -4.5q25 -6 61 -19q-35 -68 -35 -91v-34z" />
<glyph unicode="&#x1262;" horiz-adv-x="1556" d="M1448 221q-35 -79 -35 -142t57 -136q-123 -52 -194 -52q-59 0 -95 30q-65 54 -71 124l-315 -29q-24 -2 -44 -2t-35 4t-24 15q-18 20 -18 72.5t2.5 121.5t6.5 149t8.5 165t8.5 163q9 176 9 252q0 261 -152 261q-64 0 -92.5 -37.5t-45 -92t-28.5 -145.5q-24 -184 -24 -547 v-101q0 -142 10 -172t26.5 -41t45.5 -20v-26l-207 -31q-20 -3 -41 -3t-41.5 14t-34.5 55q-29 85 -29 258.5t1.5 257.5t4.5 146t9 106.5t15 81.5q16 59 54 137q56 114 179 176.5t294 62.5q183 0 258 -118q56 -89 56 -265q0 -88 -8.5 -259t-11.5 -239q-7 -159 -7 -241l-1 -33 q0 -17 8 -25t32 -8q30 0 131 11q72 112 256 112q30 0 50.5 -4t31.5 -6z" />
<glyph unicode="&#x1263;" horiz-adv-x="1092" d="M709 956q0 261 -152 261q-53 0 -81.5 -29t-47 -68t-32.5 -101q-29 -135 -29 -362v-77q0 -103 10 -123t26.5 -27.5t45.5 -15.5v-27l-207 -39q-35 -7 -56.5 -7t-38.5 10.5t-29 39.5q-22 57 -22 179.5t6 189t17 119.5q50 242 210 339q130 78 324 78q183 0 258 -118 q56 -89 56 -265q0 -88 -8.5 -259t-11.5 -239q-7 -159 -7 -213.5t0.5 -72t6.5 -29.5q10 -21 61 -32v-33l-213 -31q-21 -3 -53 -3q-68 0 -68 110q0 99 11 307t15 286q9 176 9 252z" />
<glyph unicode="&#x1264;" horiz-adv-x="1487" d="M1004 367l75 -15q13 0 38 6q47 11 87 11t71.5 -11.5t56.5 -33.5q54 -47 54 -121q0 -89 -59 -152q-61 -65 -153 -65q-29 0 -56 5q-50 9 -98 9q-43 0 -103 -10q-114 -19 -145 -19t-49.5 7.5t-28.5 24.5q-20 32 -20 93.5t2.5 130.5t6.5 149t8.5 165t8.5 163q9 176 9 252 q0 261 -152 261q-64 0 -92.5 -37.5t-45 -92t-28.5 -145.5q-24 -184 -24 -547v-101q0 -142 10 -172t26.5 -41t45.5 -20v-26l-207 -31q-20 -3 -41 -3t-41.5 14t-34.5 55q-29 85 -29 258.5t1.5 257.5t4.5 146t9 106.5t15 81.5q16 59 54 137q56 114 179 176.5t294 62.5 q183 0 258 -118q56 -89 56 -240.5t-8.5 -293t-8.5 -288.5q31 11 54 11zM1114 119q12 25 12 70.5t-24.5 76.5t-64 31t-59 -6.5t-30.5 -22.5q-20 -27 -20 -94q0 -121 96 -121q60 0 90 66z" />
<glyph unicode="&#x1265;" horiz-adv-x="1501" d="M1376 913l-26 -739q0 -60 6 -73q12 -22 61 -33v-33l-213 -31q-21 -3 -52 -3q-69 0 -69 110q0 99 11 307t15 286q9 176 9 252q0 261 -151 261q-66 0 -100 -47q-45 -61 -62 -191q-29 -232 -29 -584v-91q0 -150 10 -180.5t26.5 -42t45.5 -20.5v-26l-207 -31q-20 -3 -41 -3 t-41.5 14t-34.5 55q-28 82 -28 317q0 293 10 406l-108 -17q-11 -156 -98 -232q-70 -61 -169 -61q-61 0 -86 19q54 40 54 135t-33 168l448 61q14 78 34 122t32 69q56 114 179 176.5t294 62.5q182 0 257 -118q56 -89 56 -265z" />
<glyph unicode="&#x1266;" horiz-adv-x="1092" d="M967 913l-17 -428q0 -58 10 -73q16 -26 58 -33v-33l-213 -31q-21 -3 -53 -3q-68 0 -68 110q0 55 8 172.5t10 169.5q7 133 7 192q0 261 -152 261q-64 0 -92.5 -37.5t-45 -92t-28.5 -145.5q-24 -184 -24 -547v-101q0 -142 10 -172t26.5 -41t45.5 -20v-26l-207 -31 q-20 -3 -41 -3t-41.5 14t-34.5 55q-29 85 -29 258.5t1.5 257.5t4.5 146t9 106.5t15 81.5q16 59 54 137q56 114 179 176.5t294 62.5q183 0 258 -118q56 -89 56 -265z" />
<glyph unicode="&#x1267;" horiz-adv-x="1475" d="M1350 68q0 -124 55 -172q-39 -29 -97.5 -29t-100.5 10t-75 33q-72 48 -83 147l-529 -57q17 -96 -70 -174q-84 -74 -196 -74q-31 0 -48.5 1.5t-29.5 2.5q57 75 57 217q0 24 -12 64l461 53v821q0 250 -145 250q-65 0 -91.5 -27t-41.5 -64.5t-24 -98.5q-20 -125 -20 -282.5 t3.5 -206t15 -76t31.5 -40t53 -22.5v-27l-207 -38q-30 -5 -51 -5t-43.5 12t-37.5 44q-34 69 -34 193.5t4 192t14 120.5q18 104 57.5 163t84 104t103.5 81q131 80 300 80q185 0 245 -110q28 -52 35 -125t7 -161v-749l418 49q-8 -56 -8 -100z" />
<glyph unicode="&#x1268;" horiz-adv-x="1296" d="M1223 1483q-35 -81 -35 -116t5 -53t14 -34q12 -20 53 -61q-113 -62 -199 -62q-54 0 -91 25q-60 42 -75 86l-506 -66q-12 -71 -80 -114.5t-194 -43.5q-61 0 -99 15q62 56 62 139q0 63 -34 106q-11 14 -28 31q61 45 185 45t178 -102l502 61q26 158 284 158q12 0 31 -5.5 t27 -8.5zM1038 688l-16 -498q0 -62 8 -80q13 -31 60 -47v-32l-201 -27q-43 -5 -59.5 -5t-30 5.5t-21.5 19.5q-17 31 -15 121t3.5 146.5t3.5 118.5t4 120q4 114 4 183.5t-12 117.5t-32 75q-37 50 -94.5 50t-93 -30.5t-56.5 -97.5q-39 -123 -39 -433q0 -209 12 -255.5 t27.5 -61t39.5 -23.5v-26l-206 -25q-10 -1 -19 -2t-25.5 -1t-37 11t-35.5 46q-31 74 -31 231t7 249t27 165q39 147 144 227q158 119 389 119q295 0 295 -361z" />
<glyph unicode="&#x1269;" horiz-adv-x="1638" d="M1223 1483q-35 -81 -35 -116t5 -53t14 -34q12 -20 53 -61q-113 -62 -199 -62q-54 0 -91 25q-60 42 -75 86l-506 -66q-12 -71 -80 -114.5t-194 -43.5q-61 0 -99 15q62 56 62 139q0 63 -34 106q-11 14 -28 31q61 45 185 45t178 -102l502 61q26 158 284 158q12 0 31 -5.5 t27 -8.5zM1589 418q-38 -33 -135 -46q-27 -3 -52.5 -3t-55.5 8.5t-56 24.5q-58 38 -67 96l-191 -9q-3 -69 -6.5 -140.5t-3.5 -128.5t1 -77t7 -35q13 -29 60 -45v-32l-211 -27q-32 -4 -53 -4t-35 5t-22 19q-20 33 -16 122t6.5 145.5t6 118.5t6.5 120q6 149 6 201t-12 100 t-32 75q-37 50 -94.5 50t-93 -30.5t-56.5 -97.5q-39 -123 -39 -433q0 -209 12 -255.5t27.5 -61t39.5 -23.5v-26l-206 -25q-10 -1 -19 -2t-25.5 -1t-37 11t-35.5 46q-31 74 -31 231t7 249t27 165q39 147 144 227q158 119 389 119q295 0 295 -361l-2 -125l178 6q28 71 66 92 q65 35 197 35q39 0 59 -4t31 -6q-45 -65 -45 -137t67 -131z" />
<glyph unicode="&#x126a;" horiz-adv-x="1638" d="M1223 1483q-35 -81 -35 -116t5 -53t14 -34q12 -20 53 -61q-113 -62 -199 -62q-54 0 -91 25q-60 42 -75 86l-506 -66q-12 -71 -80 -114.5t-194 -43.5q-61 0 -99 15q62 56 62 139q0 63 -34 106q-11 14 -28 31q61 45 185 45t178 -102l502 61q26 158 284 158q12 0 31 -5.5 t27 -8.5zM1532 209q-35 -79 -35 -142.5t57 -136.5q-106 -45 -194 -45q-100 0 -147 83q-16 28 -19 65l-315 -29q-121 -11 -121 94l20 611q0 197 -90 236q-26 11 -66 11t-75.5 -30.5t-56.5 -97.5q-39 -123 -39 -433q0 -209 12 -255.5t27.5 -61t39.5 -23.5v-26l-206 -25 q-10 -1 -19 -2t-25.5 -1t-37 11t-35.5 46q-31 74 -31 231t7 249t27 165q39 147 144 227q158 119 389 119q295 0 295 -361l-14 -526l-1 -34q0 -17 8 -24.5t33 -7.5q40 0 130 10q73 113 256 113q30 0 50.5 -4t31.5 -6z" />
<glyph unicode="&#x126b;" horiz-adv-x="1296" d="M1223 1483q-35 -81 -35 -116t5 -53t14 -34q12 -20 53 -61q-113 -62 -199 -62q-54 0 -91 25q-60 42 -75 86l-506 -66q-12 -71 -80 -114.5t-194 -43.5q-61 0 -99 15q62 56 62 139q0 63 -34 106q-11 14 -28 31q61 45 185 45t178 -102l502 61q26 158 284 158q12 0 31 -5.5 t27 -8.5zM1038 688l-16 -498q0 -78 10 -95.5t23 -22.5t35 -9v-32l-201 -27q-32 -4 -56.5 -4t-41 7t-25.5 23q-19 35 -15 126t7 146t6.5 115t6.5 116q7 131 7 190.5t-12 107.5t-32 75q-37 50 -94.5 50t-93 -33t-57.5 -93q-40 -110 -40 -341q0 -110 27 -131q11 -8 28 -14v-27 l-197 -28q-18 -3 -32 -3q-54 0 -74.5 41t-20.5 115.5t6.5 139t25.5 127.5q44 146 142 219q116 84 284 112q54 9 105 9q295 0 295 -361z" />
<glyph unicode="&#x126c;" horiz-adv-x="1544" d="M1223 1483q-35 -81 -35 -116t5 -53t14 -34q12 -20 53 -61q-113 -62 -199 -62q-54 0 -91 25q-60 42 -75 86l-506 -66q-12 -71 -80 -114.5t-194 -43.5q-61 0 -99 15q62 56 62 139q0 63 -34 106q-11 14 -28 31q61 45 185 45t178 -102l502 61q26 158 284 158q12 0 31 -5.5 t27 -8.5zM1083 393l76 -14q12 0 23 2.5t26 5.5q38 8 77 8t70.5 -11.5t56.5 -33.5q54 -47 54 -121q0 -88 -59 -151q-62 -66 -154 -66q-20 0 -35 2.5t-32 5.5q-49 7 -86 7q-42 0 -103 -10q-116 -19 -160 -19t-63.5 32t-19.5 107l24 572q0 197 -90 236q-26 11 -66 11 t-75.5 -30.5t-56.5 -97.5q-39 -123 -39 -433q0 -209 12 -255.5t27.5 -61t39.5 -23.5v-26l-206 -25q-10 -1 -19 -2t-25.5 -1t-37 11t-35.5 46q-31 74 -31 231t7 249t27 165q39 147 144 227q158 119 389 119q287 0 287 -361q0 -52 -1.5 -78t-2.5 -44.5t-2 -42.5 q-2 -48 -2 -140q33 10 61 10zM1194 145q12 25 12 71t-25 77t-64 31t-58.5 -6.5t-30.5 -22.5q-20 -27 -20 -94q0 -121 96 -121q61 0 90 65z" />
<glyph unicode="&#x126d;" horiz-adv-x="1651" d="M741 1280l502 61q26 158 285 158q11 0 30 -5.5t27 -8.5q-35 -85 -35 -118t5 -51t14 -34q12 -20 53 -61q-113 -62 -199 -62q-85 0 -143 70q-16 20 -23 41l-505 -66q-13 -71 -80.5 -114t-194.5 -43q-63 0 -98 14q61 55 61 139q0 65 -32 106q-12 14 -29 31q61 45 185 45 t177 -102zM1100 1049q295 0 295 -361q0 -96 -6 -197q-11 -185 -11 -256.5t1 -91.5t7 -35q13 -29 60 -45v-32l-201 -27q-43 -5 -59.5 -5t-30 5.5t-21.5 19.5q-17 31 -15 121t4 146.5t4 118.5t4 120q4 114 4 183.5t-12.5 117.5t-32.5 75q-36 50 -94 50t-93.5 -30.5 t-56.5 -97.5q-39 -123 -39 -433q0 -209 12 -255.5t27.5 -61t40.5 -23.5v-26l-207 -25q-10 -1 -19 -2t-25.5 -1t-37 11t-35.5 46q-31 74 -31 274q0 93 7 200l-109 -16q-9 -154 -97 -232q-70 -61 -169 -61q-63 0 -86 19q53 45 53 137.5t-33 165.5l449 61q15 112 53 191 t107 131q163 121 393 121z" />
<glyph unicode="&#x126e;" horiz-adv-x="1296" d="M1223 1483q-35 -81 -35 -116t5 -53t14 -34q12 -20 53 -61q-113 -62 -199 -62q-54 0 -91 25q-60 42 -75 86l-506 -66q-12 -71 -80 -114.5t-194 -43.5q-61 0 -99 15q62 56 62 139q0 63 -34 106q-11 14 -28 31q61 45 185 45t178 -102l502 61q26 158 284 158q12 0 31 -5.5 t27 -8.5zM1038 688l-4 -188q0 -72 8 -87q12 -25 60 -40v-33l-201 -27q-23 -3 -45.5 -3t-39 7t-26.5 21q-16 26 -16 90l4 281q0 197 -90 236q-26 11 -66 11t-75.5 -30.5t-56.5 -97.5q-39 -123 -39 -433q0 -209 12 -255.5t27.5 -61t39.5 -23.5v-26l-206 -25q-10 -1 -19 -2 t-25.5 -1t-37 11t-35.5 46q-31 74 -31 231t7 249t27 165q39 147 144 227q158 119 389 119q295 0 295 -361z" />
<glyph unicode="&#x126f;" horiz-adv-x="1575" d="M1223 1483q-35 -81 -35 -116t5 -53t14 -34q12 -20 53 -61q-113 -62 -199 -62q-54 0 -91 25q-60 42 -75 86l-506 -66q-12 -71 -80 -114.5t-194 -43.5q-61 0 -99 15q62 56 62 139q0 63 -34 106q-11 14 -28 31q61 45 185 45t178 -102l502 61q26 158 284 158q12 0 31 -5.5 t27 -8.5zM1450 68q0 -124 55 -172q-35 -29 -95 -29t-102.5 10t-75.5 33q-72 48 -83 147l-528 -57q16 -97 -71 -174q-84 -74 -196 -74q-31 0 -48.5 1.5t-29.5 2.5q58 76 58 217q0 24 -12 64l432 49q-2 9 -2 21v26q-2 41 7 192.5t12 207.5q7 131 7 190.5t-12 107.5t-32 75 q-37 50 -94.5 50t-93 -33t-57.5 -93q-40 -110 -40 -341q0 -110 27 -131q11 -8 28 -14v-27l-197 -28q-18 -3 -32 -3q-54 0 -74.5 41t-20.5 115.5t6.5 139t25.5 127.5q44 146 142 219q116 84 284 112q54 9 105 9q295 0 295 -361l-16 -498q0 -55 4 -71l432 49q-8 -56 -8 -100z " />
<glyph unicode="&#x1270;" horiz-adv-x="1485" d="M1391 811q0 -118 45 -149q-59 -48 -113.5 -48t-90 10t-61.5 35q-58 56 -51 172l-202 -14q-38 -264 -58 -405t-22 -160q-7 -51 -7 -62q0 -89 56 -114v-33l-187 -35q-32 -8 -71 -8t-60.5 24.5t-21.5 90.5q0 7 1.5 20t3.5 27q3 36 5 45l82 588l-221 -17q4 -114 -77 -193 q-75 -73 -171 -73q-58 0 -88 27q53 57 53 172q0 66 -10 116l524 39l27 189q1 7 2 19.5t2 25.5q4 32 4 62t-18.5 62t-49.5 42v16l175 12q20 2 44 2h39q54 0 74.5 -25t20.5 -55.5t-2.5 -53.5t-5.5 -47t-6.5 -45.5t-4.5 -31.5l-22 -149l477 35q-14 -46 -14 -113z" />
<glyph unicode="&#x1271;" horiz-adv-x="1485" d="M1391 811q0 -118 45 -149q-59 -48 -113.5 -48t-90 10t-61.5 35q-58 56 -51 172l-202 -14l-58 -407l160 12q32 49 99 79.5t161 30.5q46 0 90 -12q-33 -40 -33 -108q0 -72 30 -112q12 -16 32 -34q-21 -33 -131 -46q-107 -14 -180 30q-61 36 -66 100l-172 -14l-4 -23l-4 -25 q-11 -80 -11 -98q0 -89 56 -114v-33l-187 -35q-32 -8 -71 -8t-60.5 24.5t-21.5 90.5q0 7 1.5 20t3.5 27q3 36 5 45l82 588l-221 -17q4 -114 -77 -193q-75 -73 -171 -73q-58 0 -88 27q53 57 53 172q0 66 -10 116l524 39l27 189q1 7 2 19.5t2 25.5q4 32 4 62t-18.5 62 t-49.5 42v16l175 12q20 2 44 2h39q54 0 74.5 -25t20.5 -55.5t-2.5 -53.5t-5.5 -47t-6.5 -45.5t-4.5 -31.5l-22 -149l477 35q-14 -46 -14 -113z" />
<glyph unicode="&#x1272;" horiz-adv-x="1485" d="M1391 811q0 -118 45 -149q-59 -48 -113.5 -48t-90 10t-61.5 35q-58 56 -51 172l-202 -14q-38 -264 -58 -405t-22 -160q-7 -51 -7 -77.5t16 -55.5t33 -29q43 0 65.5 2t45.5 4q23 56 89.5 89.5t168.5 33.5q38 0 78 -12q-45 -37 -45 -109q0 -78 42 -135q14 -18 32 -29 q-88 -57 -176 -57q-174 0 -187 152l-293 -25q-24 -4 -67 -4t-64.5 24.5t-21.5 90.5q0 7 1.5 20t3.5 27q3 36 5 45l82 588l-221 -17q4 -114 -77 -193q-75 -73 -171 -73q-58 0 -88 27q53 57 53 172q0 66 -10 116l524 39l27 189q1 7 2 19.5t2 25.5q4 32 4 62t-18.5 62t-49.5 42 v16l175 12q20 2 44 2h39q54 0 74.5 -25t20.5 -55.5t-2.5 -53.5t-5.5 -47t-6.5 -45.5t-4.5 -31.5l-22 -149l477 35q-14 -46 -14 -113z" />
<glyph unicode="&#x1273;" horiz-adv-x="1692" d="M1583 834q0 -116 55 -154q-64 -43 -139 -43q-215 0 -201 219l-204 -16l-4 -211q-6 -223 -171.5 -334t-504.5 -125q3 -29 3 -74t-17.5 -93.5t-47.5 -80.5q-61 -65 -155 -65q-41 0 -67 10.5t-40 19.5q47 59 47 205l-6 119q274 18 368 41.5t148.5 52.5t90.5 75q69 90 73 271 l4 164l-174 -14q4 -118 -71 -195q-74 -76 -177 -76q-27 0 -82 11q47 90 47 178.5t-16 128.5l473 41l6 272q2 56 -9.5 83t-45.5 42v33l156 22q45 9 77.5 9t53.5 -13t33 -34q18 -34 18 -101l-8 -289l506 43q-19 -48 -19 -122z" />
<glyph unicode="&#x1274;" horiz-adv-x="1485" d="M1391 811q0 -118 45 -149q-59 -48 -113.5 -48t-90 10t-61.5 35q-58 56 -51 172l-200 -14l-58 -409q119 2 145.5 10t38.5 11q28 7 72 7q166 0 166 -147q0 -85 -48 -151q-55 -77 -140 -81l-168 -8q-66 -3 -141 -19q-143 -30 -165 -30t-35.5 4.5t-22.5 17.5q-17 23 -17 61.5 t1.5 51.5t3.5 27q3 36 5 45l82 588l-221 -17q4 -114 -77 -193q-75 -73 -171 -73q-58 0 -88 27q53 57 53 172q0 66 -10 116l524 39l27 189q1 7 2 19.5t2 25.5q4 32 4 62t-18.5 62t-49.5 42v16l175 12q20 2 44 2h39q54 0 74.5 -25t20.5 -55.5t-2.5 -53.5t-5.5 -47t-6.5 -45.5 t-4.5 -31.5l-20 -149l475 35q-14 -46 -14 -113zM920 121q100 0 100 112q0 82 -70 103q-21 6 -39 6q-35 0 -59 -4l-4 -25q-1 -7 -3 -20t-4 -28q-5 -37 -5 -67.5t18.5 -53.5t65.5 -23z" />
<glyph unicode="&#x1275;" horiz-adv-x="1485" d="M1391 811q0 -118 45 -149q-59 -48 -113.5 -48t-90 10t-61.5 35q-58 56 -51 172l-202 -14q-38 -264 -58 -405t-22 -160q-7 -51 -7 -62q0 -89 56 -114v-33l-187 -35q-32 -8 -71 -8t-60.5 24.5t-21.5 90.5q0 7 1.5 20t3.5 27q3 36 5 45l82 588l-221 -17q4 -114 -77 -193 q-75 -73 -171 -73q-58 0 -88 27q53 57 53 172q0 66 -10 116l524 39l27 189q1 7 2 19.5t2 25.5q4 32 4 60.5t-30.5 55.5t-78.5 41q-81 -43 -178 -43q-67 0 -102 19q28 15 42.5 49.5t14.5 58t-2 41t-8 35.5q-13 45 -35 60q54 24 129.5 24t112.5 -5.5t63 -19.5q56 -29 56 -88.5 t-58 -105.5l181 12q20 2 44 2h39q54 0 74.5 -25t20.5 -55.5t-2.5 -53.5t-5.5 -47t-6.5 -45.5t-4.5 -31.5l-22 -149l477 35q-14 -46 -14 -113z" />
<glyph unicode="&#x1276;" horiz-adv-x="1448" d="M1346 690q0 -120 51 -164q-68 -34 -125 -34t-93.5 12t-64.5 39q-62 60 -55 178l-197 -19l-35 -389q-12 -84 -12 -137q0 -86 57 -113v-32l-188 -23q-12 -2 -27.5 -5t-48.5 -3q-78 0 -78 115q0 11 3.5 36.5t5 38t2.5 17.5l61 477q2 9 3 32.5t3 45.5q-76 -19 -188 -37 q4 -17 4 -53t-23.5 -77t-59.5 -71q-76 -63 -163 -63q-60 0 -98 24q70 55 70 166q0 62 -23 123q300 10 471 57q-13 22 -33.5 50t-40.5 59q-47 76 -47 131t33.5 108t89.5 91q122 82 285 82q195 0 234 -112q11 -31 11 -66.5t-16 -77.5t-50 -84q-72 -91 -210 -160q12 -38 12 -76 l496 53q-16 -80 -16 -139zM811 944q74 82 74 204t-82 122q-36 0 -61 -39q-21 -35 -21 -72t8.5 -63t21.5 -51t29 -50t31 -51z" />
<glyph unicode="&#x1277;" horiz-adv-x="1569" d="M1479 891q0 -130 43 -184q-57 -27 -113.5 -27t-97 11.5t-73.5 34.5q-75 54 -77 146l-198 -16l-91 -723l457 35q-7 -56 -7 -126t48 -153q-30 -10 -117 -10t-147.5 50.5t-65.5 144.5l-573 -49q0 -105 -106 -179q-96 -67 -201 -67q-42 0 -60 14q62 84 62 207q0 32 -12 76 l444 35l88 723l-219 -19q-4 -109 -100 -173q-84 -56 -185 -56q-59 0 -72 10q60 67 60 144.5t-10 127.5l536 41l13 103q1 7 2 19.5t3 26.5q3 31 3 46q0 70 -60 100v23l187 20q20 2 34 4t48.5 2t54.5 -25t20 -55.5t-2.5 -53.5t-5.5 -47t-6 -45.5t-4 -31.5l-8 -65l520 39 q-12 -48 -12 -78z" />
<glyph unicode="&#x1278;" horiz-adv-x="1460" d="M1356 926q-10 -43 -10 -107q0 -149 65 -176q-68 -29 -132.5 -29t-101 9t-61.5 31q-50 45 -50 149v15q0 8 1 16l-197 -15l-73 -522q-6 -42 -6 -95.5t2.5 -72t8.5 -31.5q10 -21 44 -37v-32l-197 -25q-24 -4 -67 -4t-66.5 24.5t-23.5 90.5q0 7 1.5 20t2.5 27q4 36 6 45 l86 590l-156 -13q-13 -134 -96 -194q-66 -47 -172 -47q-54 0 -90 16q61 54 61 151t-20 130l483 32l47 330l-119 -12q-40 -71 -75 -91q-62 -34 -185 -34q-40 0 -96 8q57 50 57 138t-57 141q48 41 172 41q128 0 174 -81q12 -23 16 -44l486 51q8 77 80 123q71 45 186 45 q62 0 96 -19q-28 -49 -28 -135q0 -60 29 -89q13 -14 30 -19q-64 -64 -196 -64t-187 84l-100 -10l-47 -342z" />
<glyph unicode="&#x1279;" horiz-adv-x="1460" d="M1356 926q-10 -43 -10 -107q0 -149 65 -176q-68 -29 -132.5 -29t-101 9t-61.5 31q-50 45 -50 149v15q0 8 1 16l-197 -15l-65 -469l135 10q71 129 293 129q39 0 55 -12q-33 -40 -33 -125q0 -73 31 -113q13 -16 33 -34q-18 -28 -161 -39q-34 -2 -82 -2t-88 28t-46 97 l-147 -13q-1 -12 -1.5 -27t-1 -29.5t-1 -26.5t-0.5 -28.5t2.5 -35t8.5 -31.5q10 -21 44 -37v-32l-197 -25q-24 -4 -67 -4t-66.5 24.5t-23.5 90.5q0 7 1.5 20t2.5 27q4 36 6 45l86 590l-156 -13q-13 -134 -96 -194q-66 -47 -172 -47q-54 0 -90 16q61 54 61 151t-20 130 l483 32l47 330l-119 -12q-40 -71 -75 -91q-62 -34 -185 -34q-40 0 -96 8q57 50 57 138t-57 141q48 41 172 41q128 0 174 -81q12 -23 16 -44l486 51q8 77 80 123q71 45 186 45q62 0 96 -19q-28 -49 -28 -135q0 -60 29 -89q13 -14 30 -19q-64 -64 -196 -64t-187 84l-100 -10 l-47 -342z" />
<glyph unicode="&#x127a;" horiz-adv-x="1460" d="M1356 926q-10 -43 -10 -107q0 -149 65 -176q-68 -29 -132.5 -29t-101 9t-61.5 31q-50 45 -50 149v15q0 8 1 16l-201 -17q-88 -612 -88 -631q0 -82 51 -82q37 0 164 19q23 56 92.5 90.5t171.5 34.5q38 0 78 -12q-45 -37 -45 -109q0 -78 42 -135q14 -18 32 -29 q-72 -47 -215 -47q-75 0 -116.5 31t-47.5 102l-358 -41q-22 -3 -39 -5.5t-42 -2.5q-57 0 -57 115q0 15 11 92l86 590l-154 -13q-13 -134 -96 -194q-66 -47 -172 -47q-54 0 -90 16q61 54 61 151t-20 130l483 32l47 330l-119 -12q-40 -71 -75 -91q-62 -34 -185 -34 q-40 0 -96 8q57 50 57 138t-57 141q48 41 172 41q128 0 174 -81q12 -23 16 -44l486 51q8 77 80 123q71 45 186 45q62 0 96 -19q-28 -49 -28 -135q0 -60 29 -89q13 -14 30 -19q-64 -64 -196 -64t-187 84l-102 -12l-49 -340z" />
<glyph unicode="&#x127b;" horiz-adv-x="1528" d="M1456 899q-10 -43 -10 -107q0 -149 65 -176q-73 -28 -135 -28t-98.5 9t-61.5 31q-50 44 -50 148v16q0 7 1 15l-196 -14l-37 -273q-34 -234 -316 -338q-92 -33 -206 -57q3 -29 3 -73t-17.5 -89t-47.5 -73q-58 -56 -155 -56q-59 0 -107 31q49 19 49 135l-6 119 q291 61 395 139q58 44 86 102.5t39 141.5l37 268l-156 -12q-13 -135 -96 -195q-66 -47 -172 -47q-54 0 -90 16q62 55 62 150.5t-21 130.5l485 33l48 330l-121 -13q-40 -71 -75 -91q-62 -34 -185 -34q-55 0 -97 9q58 51 58 137.5t-58 140.5q48 41 172 41q85 0 138 -41 q43 -33 53 -84l485 51q12 120 162 156q47 12 88 12q77 0 113 -18q-29 -45 -29 -135q0 -88 59 -109q-63 -63 -196 -63t-187 84l-100 -11l-47 -342z" />
<glyph unicode="&#x127c;" horiz-adv-x="1460" d="M1356 926q-10 -43 -10 -107q0 -149 65 -176q-68 -29 -132.5 -29t-101 9t-61.5 31q-50 45 -50 149v15q0 8 1 16l-201 -17l-57 -409q112 2 139.5 10.5t39.5 11.5q33 6 73 6q166 0 166 -147q0 -85 -48 -151q-55 -77 -141 -81l-168 -8q-64 -3 -140 -19q-145 -30 -166 -30 t-34.5 4.5t-22.5 17.5q-18 24 -18 62t1.5 51t3.5 27.5t3.5 27t2.5 17.5l84 590l-152 -13q-13 -134 -96 -194q-66 -47 -172 -47q-54 0 -90 16q61 54 61 151t-20 130l481 32l47 330l-117 -12q-40 -71 -75 -91q-62 -34 -185 -34q-40 0 -96 8q57 50 57 138t-57 141q48 41 172 41 q128 0 174 -81q12 -23 16 -44l486 51q8 77 80 123q71 45 186 45q62 0 96 -19q-28 -49 -28 -135q0 -60 29 -89q13 -14 30 -19q-64 -64 -196 -64t-187 84l-104 -12l-47 -340zM866 117q97 0 97 116q0 82 -71 103q-20 6 -37 6q-32 0 -56 -4l-4 -27q-3 -21 -7 -42q-6 -39 -6 -62 q0 -90 84 -90z" />
<glyph unicode="&#x127d;" horiz-adv-x="1516" d="M1407 926q-10 -43 -10 -107q0 -149 65 -176q-68 -29 -132.5 -29t-101 9t-60.5 31q-51 45 -51 149v15q0 8 1 16l-196 -15l-74 -522q-6 -42 -6 -95.5t2.5 -72t8.5 -31.5q10 -21 44 -37v-32l-197 -25q-24 -4 -67 -4t-66.5 24.5t-23.5 90.5q0 7 1.5 20t3.5 27q3 36 5 45 l86 590l-156 -13q-13 -134 -97 -194q-65 -47 -171 -47q-54 0 -90 16q61 54 61 151t-20 130l483 32l37 263l-262 -27l31 260l-430 -41q16 40 16 80.5t-2 58t-7 38.5q-11 55 -24 79q115 33 162.5 33t74.5 -9.5t47 -30.5q40 -42 50 -140l514 45q46 141 225 141q74 0 111 -35 q-18 -40 -18 -106t24 -90q-11 -16 -32 -27q-50 -27 -110.5 -27t-87 4t-44.5 12q-33 14 -58 54l-135 -12l-22 -183l270 21l-47 -340z" />
<glyph unicode="&#x127e;" horiz-adv-x="1487" d="M1165 1513l-10 89l305 20q6 -27 6 -62t-16.5 -74.5t-47.5 -69.5q-66 -64 -169 -64q-19 0 -55 8l-86 -74q38 -45 38 -96.5t-16 -93.5t-50 -84q-72 -91 -210 -160q12 -38 12 -76l496 53q-16 -80 -16 -139q0 -120 51 -164q-68 -34 -125 -34t-93.5 12t-64.5 39 q-62 60 -55 178l-197 -19l-35 -389q-12 -84 -12 -137q0 -86 57 -113v-32l-188 -23q-12 -2 -27.5 -5t-48.5 -3q-78 0 -78 115q0 11 3.5 36.5t5 38t2.5 17.5l61 477q2 9 3 32.5t3 45.5q-76 -19 -188 -37q4 -17 4 -53t-23.5 -77t-59.5 -71q-76 -63 -163 -63q-60 0 -98 24 q70 55 70 166q0 62 -23 123q300 10 471 57q-13 22 -33.5 50t-40.5 59q-47 76 -47 126q0 99 88 177q-46 -14 -110 -14q-105 0 -158 20q45 26 45 114.5t-39 117.5q79 35 162 35q178 0 178 -142q0 -61 -14 -86q102 55 276 72q174 16 208.5 35t43 45.5t8.5 72.5zM811 944 q74 82 74 204t-82 122q-36 0 -61 -39q-21 -35 -21 -72t8.5 -63t21.5 -51t29 -50t31 -51z" />
<glyph unicode="&#x127f;" horiz-adv-x="1540" d="M279 1266q43 18 107 18t95.5 -10.5t57.5 -27.5q53 -33 75 -77l576 31q47 72 80 90q58 33 166 33q30 0 55 -5.5t33 -8.5q-37 -61 -37 -150t31 -127q-50 -22 -129 -22q-146 0 -201 116l-127 -6l-47 -305l434 21q-10 -43 -10 -125.5t41 -116.5q-36 -21 -117.5 -21 t-135.5 39.5t-91 132.5l-134 -4l-96 -626l463 22q-10 -40 -10 -122t43 -132q-40 -20 -119 -20q-155 0 -227 184l-586 -22q4 -89 -89 -167q-89 -75 -181 -75q-54 0 -90 16q57 103 57 191q0 43 -14 90l479 22l100 629l-153 -6q-17 -91 -102 -157q-81 -62 -173 -62 q-54 0 -90 16q61 54 61 168q0 43 -14 90l483 23l50 303l-175 -10q-33 -59 -117 -96q-70 -31 -112 -31q-68 0 -84 8q21 17 21 104t-47 185z" />
<glyph unicode="&#x1280;" horiz-adv-x="1282" d="M1180 920q47 0 47 -80q0 -29 -7 -68q-13 -80 -14 -92l-61 -373l-3 -25q-12 -80 -12 -98v-34q0 -53 41 -70v-33l-186 -35q-32 -8 -71 -8t-61 24.5t-22 90.5q0 11 3.5 36.5t5 38t2.5 17.5l92 518q8 56 8 92v33l-37 31l-127 -21q-35 -5 -58 -5q-46 0 -38 61l8 53l-188 -21 q-36 -153 -102 -204q-65 -52 -216 -52q-91 0 -104 23q52 33 75 91.5t23 115.5l-1 42q-1 11 -1 23l522 51l13 86q6 44 -9 69.5t-61 33.5v29l225 32q8 2 16 2h14q83 0 83 -88v-16q0 -7 -2 -16l-29 -234l41 -41l131 16q25 5 60 5z" />
<glyph unicode="&#x1281;" horiz-adv-x="1761" d="M1694 696q-43 -64 -43 -157.5t59 -149.5q-42 -35 -131 -35q-151 0 -201 120q-19 47 -14 122l-174 -16l-45 -273l-3 -25q-12 -80 -12 -98v-34q0 -53 41 -70v-33l-186 -35q-32 -8 -71 -8t-61 24.5t-22 90.5q0 11 3.5 36.5t5 38t2.5 17.5l92 518q8 56 8 92v33l-39 31 l-125 -21q-35 -5 -58 -5q-46 0 -38 61l8 53l-188 -21q-36 -153 -102 -204q-65 -52 -216 -52q-91 0 -104 23q52 33 75 91.5t23 115.5l-1 42q-1 11 -1 23l522 51l13 86q6 44 -9 69.5t-61 33.5v29l225 32q8 2 16 2h14q83 0 83 -90q0 -14 -2 -30l-27 -236l43 -43l127 20 q25 5 60 5q47 0 47 -80q0 -29 -7 -68q-13 -80 -14 -92l-4 -23z" />
<glyph unicode="&#x1282;" horiz-adv-x="1583" d="M1432 98q0 -87 73 -164q-69 -45 -184 -45q-120 0 -167 82q-16 27 -19 62l-285 -29q-24 -4 -67 -4t-57.5 17t-14.5 48q0 50 16 103l197 598q2 7 5 17t6 21q7 24 7 38v12l-39 31l-125 -21q-35 -5 -58 -5q-46 0 -38 61l8 53l-188 -21q-36 -153 -102 -204q-65 -52 -216 -52 q-91 0 -104 23q52 33 75 91.5t23 115.5l-1 42q-1 11 -1 23l522 51l13 86q6 44 -9 69.5t-61 33.5v29l225 32q8 2 16 2h14q83 0 83 -90q0 -14 -2 -30l-27 -236l43 -43l142 25q27 4 54 4q52 0 52 -72q0 -20 -18 -72.5t-21 -62.5l-168 -510q-2 -7 -6 -19l-8 -24q-10 -32 -10 -46 q0 -22 30 -22q26 0 51 3t46 5q23 56 92.5 87.5t171.5 31.5q37 0 67 -20q-22 -16 -29 -53.5t-7 -51.5z" />
<glyph unicode="&#x1283;" horiz-adv-x="1337" d="M920 1325q99 0 99 -112v-12t-1 -13l-27 -230l39 -36l146 14q20 2 31.5 2.5t28.5 1t26.5 -4t13.5 -22.5q6 -22 6 -133.5t-11 -178.5t-42.5 -118.5t-88.5 -90t-150 -70.5q-157 -56 -539 -123q3 -26 3 -74t-24 -96t-62 -77q-66 -50 -178 -50q-59 0 -106 10q80 87 80 194 q0 38 -23 111q425 66 599 134q173 68 221 182q24 57 28 129.5t4 124.5q0 67 -8 85l-43 35l-149 -16q-26 -3 -50 -3q-48 0 -48 42v8q0 3 1 8l6 51l-167 -20q-50 -215 -189 -253q-44 -13 -88 -13q-72 0 -87 8.5t-15 15.5q40 36 58.5 95t18.5 116l-1 43q-1 11 -1 23l482 55 l12 88q3 21 3 43q0 56 -58 66v28l227 31q12 2 23 2z" />
<glyph unicode="&#x1284;" horiz-adv-x="1651" d="M1169 920q52 0 52 -52q0 -39 -11 -114l-53 -361q54 6 112 15q103 16 137.5 16t65.5 -8t53 -28q46 -42 46 -119t-21.5 -121t-53.5 -74q-67 -61 -144 -54l-125 11q-42 3 -110 -9q-135 -24 -171 -24q-112 0 -112 108q0 23 10 93l84 538q4 26 7 43q7 39 7 49v25l-39 31 l-125 -21q-35 -5 -58 -5q-46 0 -38 61l8 53l-188 -21q-36 -153 -102 -204q-65 -52 -216 -52q-91 0 -104 23q52 33 75 91.5t23 115.5l-1 42q-1 11 -1 23l522 51l13 86q6 44 -9 69.5t-61 33.5v29l225 32q8 2 16 2h14q83 0 83 -90q0 -14 -2 -30l-27 -236l43 -43l117 20 q25 5 59 5zM1312 170.5q13 25.5 13 72t-17.5 70t-62.5 23.5q-21 0 -53.5 -6t-44.5 -8l-12 -80l-6 -36q-7 -34 -7 -61.5t14.5 -40t44.5 -12.5t54 9t44 26.5t33 43z" />
<glyph unicode="&#x1285;" horiz-adv-x="1159" d="M1057 920q47 0 47 -80q0 -29 -6 -68q-14 -80 -15 -92l-61 -373q-1 -7 -3 -24.5t-5 -36.5q-6 -51 -6 -66v-30q0 -53 41 -70v-33l-187 -35q-32 -8 -71 -8t-60.5 24.5t-21.5 90.5q0 7 1.5 20t3.5 27q3 36 5 45l92 518q8 56 8 92v33l-39 31l-125 -21q-35 -5 -57 -5 q-47 0 -39 61l21 147q-136 -8 -182 -173q-17 -65 -17 -165l-301 -57q14 196 148 317q136 122 360 144q5 42 -10 66t-60 32v29l225 32q8 2 15 2h15q83 0 83 -90q0 -14 -2 -30l-27 -236l43 -43l127 20q25 5 60 5z" />
<glyph unicode="&#x1286;" horiz-adv-x="1815" d="M892 1226q60 15 127 15t109 -4q49 45 104 60q95 26 208.5 26t167 -8t87.5 -27q66 -37 66 -129q0 -90 -79 -159q-68 -60 -132 -60h-4l-80 4q-18 0 -52 -8t-74 -18q-109 -25 -150 -25t-68 6t-46 21q-40 33 -40 111.5t35 131.5q-44 11 -71 11t-59 -20t-55 -60 q-48 -82 -48 -236q0 -114 15 -145.5t35.5 -41t50.5 -9.5t54.5 5t47.5 11q61 16 95 16t54.5 -11t31.5 -29q19 -32 19 -67.5t-1.5 -55t-4.5 -45.5q-9 -76 -15 -131.5t-12 -110.5q-8 -65 -8 -94q0 -74 55 -97v-24l-225 -25q-16 -2 -27 -2q-57 0 -77.5 28t-20.5 58 q0 52 8.5 117.5t15 115.5t10 79.5t6.5 54.5q7 58 7 70.5t-7.5 24t-19.5 20.5q-26 18 -53 18t-44 -2.5t-34 -5.5q-53 -7 -96 -7q-77 0 -108 45.5t-31 136t25 169.5l-131 -17q-13 -129 -83.5 -191.5t-181.5 -62.5q-90 0 -114 27q31 18 46 70.5t15 86t-14 103.5l491 57 q88 178 280 229zM1372 995q74 0 96 102q7 29 7 58q0 100 -58 100q-45 0 -77 -47q-35 -50 -35 -131.5t67 -81.5z" />
<glyph unicode="&#x1287;" horiz-adv-x="1815" d="M1372 995q74 0 96 102q7 29 7 58q0 100 -58 100q-45 0 -77 -47q-35 -50 -35 -131.5t67 -81.5zM912 58q-7 23 -7 42q0 40 8.5 105.5t15 115.5t10 79.5t6.5 54.5q7 58 7 70.5t-7.5 24t-19.5 20.5q-26 18 -53 18t-44 -2.5t-34 -5.5q-53 -7 -96 -7q-77 0 -108 45.5t-31 136 t25 169.5l-131 -17q-13 -129 -83.5 -191.5t-181.5 -62.5q-90 0 -114 27q31 18 46 70.5t15 86t-14 103.5l491 57q88 178 280 229q60 15 127 15t109 -4q49 45 104 60q95 26 208.5 26t167 -8t87.5 -27q66 -37 66 -129q0 -93 -82 -161q-74 -63 -133 -58l-80 4q-21 1 -94 -17 q-138 -34 -180.5 -34t-69.5 6t-46 21q-40 33 -40 111.5t35 131.5q-44 11 -71 11t-59 -20t-55 -60q-48 -82 -48 -236q0 -114 15 -145.5t35.5 -41t50.5 -9.5t54.5 5t47.5 11q61 16 95 16t54.5 -11t31.5 -29q19 -32 19 -67.5t-1.5 -55t-4.5 -45.5q-9 -76 -15 -131.5t-12 -110.5 q-8 -65 -8 -94q0 -58 42 -76v-33l-463 -74q2 -107 -93 -197q-87 -83 -181 -83q-54 0 -90 16q57 103 57 191q0 43 -14 90z" />
<glyph unicode="&#x1288;" horiz-adv-x="1993" d="M1573 729l172 6q71 0 123 -53q51 -53 51 -123q0 -109 -59 -167t-174 -58q-34 0 -60 7q-48 13 -62.5 13t-32.5 -4t-43 -9q-63 -13 -111.5 -13t-73 14t-38.5 38q-24 40 -24 119t19 130h-130l-118 -436q-13 -50 -13 -74q0 -45 45 -64v-24l-188 -27q-23 -3 -41 -3 q-106 0 -106 108q0 55 196 696h-229q-54 0 -69 15t-7 59l8 49h-116q-12 -101 -96 -168q-83 -66 -199 -66q-65 0 -136 37q57 30 87 102q16 38 16 95l-1 43q-1 11 -1 24h459l16 88q3 16 3 33q0 78 -46 86v33l180 16q30 3 66 3q87 0 87 -95q0 -15 -5 -55l-35 -232h223 q31 0 47.5 -19t16.5 -38t-25 -119v-2h154q50 43 159 43zM1655 586q0 84 -58 84q-35 0 -62 -46q-28 -49 -28 -107q0 -95 58 -95q77 0 87 101q3 30 3 63z" />
<glyph unicode="&#x128a;" horiz-adv-x="1993" d="M1855 385q0 -116 58 -164q-65 -26 -118 -26t-92.5 11.5t-70.5 34.5q-68 50 -68 144q0 18 3 41l-303 -2q-59 0 -81 20t-22 60.5t17 81.5h-127l-107 -393q-12 -47 -12 -83t45 -55v-24l-189 -27q-23 -3 -41 -3q-106 0 -106 108q0 63 197 696h-230q-53 0 -68.5 15t-7.5 59 l13 61h-105q-10 -104 -84 -174q-77 -74 -178 -74q-59 0 -104 21q90 76 90 221l-1 47q-1 13 -1 27h395l16 88q3 16 3 33q0 77 -46 85v33l181 17q28 3 64 3q88 0 88 -95q0 -14 -5 -56l-35 -231h224q27 0 40 -18q19 -28 19 -44.5t-2.5 -30.5t-6.5 -31.5t-8.5 -35t-7.5 -29.5 l-12 -43h131l37 111q7 21 7 47t-17 29v30l192 27q22 3 40 3q86 0 86 -63q0 -14 -5 -34l-86 -311h420q-19 -41 -19 -107z" />
<glyph unicode="&#x128b;" horiz-adv-x="1311" d="M1206 111q0 -35 25 -48v-32l-179 -30q-17 -3 -43 -3t-49.5 18t-22 39.5t3.5 43t5.5 49t7 58t6.5 57.5q7 63 7 90t-16.5 50.5t-65 30t-83.5 11t-55.5 7t-38 4.5t-30 3.5t-16.5 1.5q-51 0 -222 -53v-19q0 -175 -154 -227q-47 -15 -82 -15q-56 0 -104 11q50 41 50 151 q0 66 -17 113q195 16 563 127q6 26 15 68.5t19.5 91t21 98t18.5 89.5q18 90 18 93l-165 -6q-11 -1 -21 -1h-18q-37 0 -54 10t-17 29v23q0 5 1 11l6 61l-110 -8q-25 -199 -167 -236q-44 -12 -76 -12q-47 0 -87 8q70 88 70 236q0 1 -5 61l383 25l11 94q1 5 1 10v11 q0 67 -48 75v33l229 21h13q46 0 74 -32q21 -26 21 -60v-9l-30 -270q46 0 88 1l133 1q59 0 59 -57q0 -10 -4 -35l-7 -42q-2 -16 -5 -28l-98 -414l172 -16q51 -4 67 -24q25 -32 25 -101z" />
<glyph unicode="&#x128c;" horiz-adv-x="1460" d="M1061 637q168 8 205.5 8t61.5 -6.5t42 -24.5q37 -39 37 -111.5t-12.5 -110.5t-39.5 -61q-52 -44 -169 -44q-41 0 -67 5q-48 9 -85.5 9t-98 -3.5t-123.5 -8.5q-141 -11 -218 -23q-4 -123 -78 -196q-71 -70 -182 -70q-46 0 -94 29q71 142 71 198l-6 84q222 5 412 54 q18 87 53 246.5t46 212.5q26 119 26 124l-166 -6q-16 -2 -43.5 -2t-47 9.5t-19.5 44.5v10t1 10l6 61l-165 -10q-25 -199 -167 -237q-44 -11 -76 -11q-47 0 -87 8q69 87 69 236q0 13 -4 61l439 27l10 94q1 6 1 11v11q0 66 -48 74v33l229 21q87 0 104 -67q5 -18 5 -34 l-31 -270q46 0 88 1l133 1q38 0 49 -11t11 -41q0 -52 -15 -110zM1004 401q25 -43 90 -43q59 0 86 60q10 22 10 55q0 104 -113 104q-14 0 -30 -2z" />
<glyph unicode="&#x128d;" horiz-adv-x="1913" d="M1794 571q-20 -43 -20 -91.5t7.5 -74.5t17.5 -45q19 -35 38 -43q-67 -30 -114 -30t-93 15.5t-82 45.5q-82 67 -71 172h-443l-90 -327q-12 -47 -12 -83t45 -55v-24l-189 -27q-23 -3 -41 -3q-106 0 -106 108q0 63 197 696h-230q-53 0 -68.5 15t-7.5 59l9 49h-101 q-10 -103 -84 -172q-76 -70 -178 -70q-59 0 -104 21q90 76 90 221l-1 43q-1 11 -1 24h391l16 88q3 16 3 34q0 77 -46 85v33l181 16q28 3 64 3q88 0 88 -94q0 -16 -5 -56l-35 -232h223q31 0 47.5 -19t16.5 -33t-2.5 -28t-6.5 -31.5t-8.5 -35t-7.5 -29.5l-26 -96h180l33 139 h274l-41 -168h293z" />
<glyph unicode="&#x1290;" horiz-adv-x="791" d="M393 930q171 24 228 24q116 0 116 -92q0 -43 -75 -308.5t-88 -315.5q-31 -113 -31 -127q0 -29 45 -48v-36l-209 -23q-96 -10 -131 38q-24 32 -15 71t29 111.5t43.5 156.5t48 170t44.5 156q44 154 44 159l-235 -32q-63 -10 -89 20t-20 86l25 238q5 55 -43 69q-13 4 -27 6 v33l277 35h5q46 0 61.5 -18t13.5 -41z" />
<glyph unicode="&#x1291;" horiz-adv-x="1159" d="M707.5 931.5q29.5 -22.5 29.5 -60t-43 -193.5l365 29h20q-30 -53 -30 -96t5 -63t14 -38q18 -39 42 -53q-62 -62 -145 -62q-75 0 -131 47q-73 61 -66 172l-92 -8q-26 -95 -50.5 -181.5t-37.5 -134t-23 -84.5q-22 -83 -22 -96q0 -28 45 -47v-36l-209 -23q-123 -12 -145 64 q-8 31 8.5 96t35.5 134.5t42.5 150.5t45.5 159q30 104 76 258l-235 -32q-63 -10 -89 20t-20 86l25 238q5 55 -43 69q-13 4 -27 6v33l252 33q16 2 46 2t45.5 -18t13.5 -41l-17 -332q171 24 228 24t86.5 -22.5z" />
<glyph unicode="&#x1292;" horiz-adv-x="1036" d="M915 176q-28 -42 -28 -115q0 -110 69 -176q-70 -49 -176 -49t-148 31.5t-42 86.5t6 79l-320 -29q-29 -3 -55 -3t-46 5.5t-31 16.5q-21 20 -21 65q0 27 123.5 278t151.5 308t50.5 103t36.5 73l-280 -37q-26 -4 -47 -4q-75 0 -75 60q0 13 5 36l62 277q1 6 2.5 13.5 t-0.5 14.5q-5 18 -29 21v29l215 32q21 3 38 3q74 0 74 -63q0 -18 -4 -34l-57 -285q317 41 330 41q82 0 82 -84q0 -35 -69.5 -183t-101.5 -215t-63 -130.5t-55 -113.5q-53 -110 -53 -117q0 -17 26 -17q18 0 64 5.5t82 9.5q61 81 196 81q20 0 48 -5.5t40 -8.5z" />
<glyph unicode="&#x1293;" horiz-adv-x="1174" d="M1110 1296q-20 -23 -20 -127t61 -151q-59 -35 -154 -35t-139 34t-63.5 79t-14.5 118q-115 0 -165 -15q-147 -45 -207 -214q-29 -82 -29 -173t40.5 -131t106.5 -40q37 0 88 10q97 19 128 19t52.5 -9.5t35.5 -24.5q28 -28 28 -67q0 -18 -7 -63t-12 -79t-14.5 -91 t-18.5 -118q-15 -92 -15 -105q0 -22 55 -45v-29l-213 -35q-23 -3 -57 -3q-70 0 -70 91q0 37 12 96.5t21.5 108t14.5 77t10 52.5q9 52 9 68q0 79 -102 79q-29 0 -70 -9q-76 -17 -160 -17t-121.5 53.5t-37.5 175.5q0 266 158 391q114 89 435 116q94 8 159 9t102 2q76 2 174 2z " />
<glyph unicode="&#x1294;" horiz-adv-x="1024" d="M522 393l295 17q86 0 115 -69q10 -25 10 -62q0 -112 -79 -177.5t-222 -70.5q-14 5 -99.5 -3t-122.5 -11q-77 -6 -106 -11q-36 -5 -64 -5q-155 0 -155 122q0 24 49.5 118.5t93 178t71 136.5t53.5 103.5t50 96t42 80.5l-183 -23q-19 -2 -34.5 -4t-39.5 -2q-59 0 -59 73v11 l13 291v15q0 29 -17 32v24l195 27q16 2 28 2q89 0 89 -91l-21 -290q85 10 137.5 17t72 9t33.5 3.5t29.5 1.5t32.5 -1.5t27 -6.5q16 -10 16 -31.5t-11 -48t-29.5 -64.5t-43.5 -84.5t-53 -97.5t-57 -103.5t-56 -101.5zM395 150q0 -56 90 -56q97 0 142 63q28 39 28 68.5t-6 45 t-19 29.5q-31 30 -85 30l-60 -2q-19 -36 -35.5 -66.5t-28.5 -53.5q-26 -50 -26 -58z" />
<glyph unicode="&#x1295;" horiz-adv-x="1118" d="M1028 850q38 0 38 -36q0 -12 -7 -28l-307 -636q-10 -20 -10 -42.5t24 -29.5v-37l-193 -35q-24 -4 -44 -4q-97 0 -97 77q0 32 19 73l307 677l-283 -4l103 242q14 33 14 65t-7.5 49.5t-23.5 26.5q-22 11 -66 11q-56 0 -68.5 -3t-20.5 -4q3 -17 3 -48.5t-19.5 -76.5 t-54.5 -81q-77 -78 -185 -78q-70 0 -97 20q70 107 70 164q0 56 -33 115q192 69 496 69q222 0 291 -66q24 -23 24 -44q0 -28 -24 -88l-105 -252z" />
<glyph unicode="&#x1296;" horiz-adv-x="1352" d="M700 1300q119 64 285 64q240 0 291 -110q18 -38 18 -94t-22.5 -97.5t-54.5 -68.5q-64 -54 -127 -54l-101 4q-36 0 -92 -18q-106 -33 -152 -33q-131 0 -131 186q0 85 31 150q-139 0 -194 -85q-58 -89 -58 -323q0 -109 13 -128.5t33 -23t53 -3.5l245 16q127 0 127 -111 q0 -25 -16 -159t-23 -196q-8 -70 -8 -103.5t43 -51.5v-28l-227 -29q-23 -3 -55 -3q-58 0 -58 91q0 46 13 112t21.5 116t13.5 80t9 55q9 56 9 69q0 78 -99 78q-32 0 -75 -10q-83 -19 -130 -19t-83 12.5t-62 37.5q-55 53 -55 157.5t30 189.5t79.5 144t113.5 95.5t133 56.5 q117 34 262 34zM1007.5 1055q30.5 47 30.5 116t-12 97t-45.5 28t-56.5 -17t-37 -45q-27 -54 -27 -121.5t15.5 -86t58.5 -18.5t73.5 47z" />
<glyph unicode="&#x1297;" horiz-adv-x="1229" d="M1120 41q0 -126 33 -166q-30 -20 -89.5 -20t-98 15.5t-66.5 42.5q-59 57 -63 140l-377 -20q-12 -97 -95 -161q-81 -62 -190 -62q-31 0 -50 1.5t-32 2.5q64 64 64 211l-6 65l360 19q4 21 10.5 53t14 69t15.5 74.5t14 69.5q14 75 14 84l2 42q0 17 -10.5 26.5t-49.5 9.5 l-205 -7q-94 0 -131 46q-37 45 -37 134t12 142.5t33 99.5q38 79 99.5 140.5t122.5 91t136 48.5q148 36 341 36q160 0 244 -19q-29 -42 -29 -111.5t6 -93.5t13 -38t13.5 -19t7.5 -6q-24 -12 -88 -12t-106 10t-72 35q-57 49 -71 176q-112 0 -154 -18q-59 -26 -99 -69t-59 -79 t-32 -79q-27 -89 -27 -159.5t8 -98t24 -44.5q28 -31 97 -31l183 6q52 0 75 -24q37 -38 37 -76q0 -19 -18.5 -116t-26 -138.5t-15 -78.5t-11.5 -62l346 18q-17 -48 -17 -100z" />
<glyph unicode="&#x1298;" horiz-adv-x="1364" d="M1315 1430q-21 -32 -21 -86t2.5 -77.5t7.5 -38.5q8 -26 33 -44q-43 -43 -180 -43q-93 0 -139 31q-19 14 -37 36q1 -2 -12.5 -2.5t-37.5 -1.5q-65 -3 -126 -6l-51 -338q201 27 245.5 27t61 -17.5t16.5 -37t-2 -29t-5.5 -22t-8 -27t-8.5 -27.5l-201 -528q-23 -65 -23 -96 t31 -40v-36l-180 -21q-42 -4 -69 -4t-44 4t-26 13q-15 15 -15 41q0 45 18.5 98.5t40 110.5t46 120.5t50 129t47.5 121.5t38 97t22 56l-206 -29q-20 -3 -35 -3q-74 0 -74 64q0 38 8 70l56 285q-99 -6 -156 -6q-49 -53 -93 -69q-72 -26 -132 -26q-104 0 -138 25 q60 54 60 128.5t-53 137.5q84 21 174.5 21t133.5 -38t52 -110l580 35q13 78 68 115q66 45 198 45q27 0 47.5 -3t36.5 -5z" />
<glyph unicode="&#x1299;" horiz-adv-x="1583" d="M1513 705q-40 -55 -40 -115.5t13 -94.5t50 -59q-38 -26 -145 -26q-129 0 -181 80q-22 32 -22 65t2 49l-186 -8l-152 -397q-23 -65 -23 -96t31 -40v-36l-180 -21q-42 -4 -69 -4t-43.5 4t-25.5 13q-16 15 -16 44q0 57 36 148t68.5 174.5t53 136t40 102t36.5 93.5l28 76 l-206 -29q-20 -3 -35 -3q-74 0 -74 64q0 38 8 70l56 285q-99 -6 -156 -6q-49 -53 -93 -69q-72 -26 -132 -26q-104 0 -138 25q60 54 60 128.5t-53 137.5q84 21 174.5 21t133.5 -38t52 -110l580 35q13 78 68 115q66 45 198 45q27 0 47.5 -3t36.5 -5q-21 -32 -21 -86t2.5 -77.5 t7.5 -38.5q8 -26 33 -44q-43 -43 -180 -43q-93 0 -139 31q-19 14 -37 36q1 -2 -12.5 -2.5t-37.5 -1.5q-65 -3 -126 -6l-51 -338q201 27 245.5 27t61 -17.5t16.5 -37t-2 -29t-5.5 -22t-8 -27t-8.5 -27.5l-21 -53z" />
<glyph unicode="&#x129a;" horiz-adv-x="1419" d="M1313 229q-39 -53 -39 -121t67 -128q-52 -48 -180 -48q-173 0 -188 125l-293 -49q-48 -8 -86.5 -8t-53 19t-14.5 47q0 54 35.5 143t68 171.5t53 135t40 102t37 94.5t31.5 79l-209 -27q-20 -3 -35 -3q-74 0 -74 64q0 38 8 70l56 285q-99 -6 -156 -6q-49 -53 -93 -69 q-72 -26 -132 -26q-104 0 -138 25q60 54 60 128.5t-53 137.5q84 21 174.5 21t133.5 -38t52 -110l580 35q13 78 68 115q66 45 198 45q27 0 47.5 -3t36.5 -5q-21 -32 -21 -86t2.5 -77.5t7.5 -38.5q8 -26 33 -44q-43 -43 -180 -43q-93 0 -139 31q-19 14 -37 36q1 -2 -12.5 -2.5 t-37.5 -1.5q-65 -3 -126 -6l-51 -338q201 27 245.5 27t61 -17.5t16.5 -37t-2 -29t-5.5 -22t-8 -27t-8.5 -27.5l-189 -491q-18 -51 -18 -64q0 -43 51 -43q28 0 47 3t33 5q70 109 254 109q31 0 82 -17z" />
<glyph unicode="&#x129b;" horiz-adv-x="1337" d="M1288 1520q-20 -31 -20 -83.5t3 -74t9 -34.5q8 -18 35 -38q-37 -34 -146 -46q-32 -3 -63 -3q-137 0 -172 115l-117 -6l-29 -213q36 -6 61.5 -11.5t50.5 -10.5q57 -11 105 -11h70q59 0 128 6q0 -1 -5.5 -7t-11.5 -21q-17 -36 -17 -121.5t52 -116.5q-31 -51 -144 -51 q-89 0 -149 54q-75 67 -66 200q-154 30 -221 30q-129 0 -196 -80t-67 -228q0 -54 7 -101l336 24q57 0 89 -23.5t32 -80.5q0 -38 -40 -226q-42 -193 -42 -227t45 -53v-29l-219 -51q-23 -3 -58 -3q-73 0 -73 89q0 37 18 112t33.5 140.5t24.5 104.5t16 71q16 73 16 84 q-51 0 -127 -10q-140 -17 -178.5 -17t-71 13t-54.5 36q-44 46 -44 123.5t32 145.5t89 121q124 115 313 133l25 194q-31 -3 -64 -3t-59 -3q-37 -70 -79 -93q-73 -40 -193 -40q-55 0 -123 12q47 44 63 110q4 19 4 34q0 85 -47 141q24 6 41 11.5t35 9.5q38 10 83.5 10t81 -5.5 t64.5 -20.5q65 -32 72 -97l506 14q33 76 90 101q50 22 156 22q22 0 110 -22z" />
<glyph unicode="&#x129c;" horiz-adv-x="1391" d="M96 1208q0 70 -53 133q24 6 41.5 12.5t35.5 11.5q40 11 85 11t79.5 -6t63.5 -20q65 -32 80 -97l537 33q32 99 163 134q50 14 91 14q51 0 74.5 -3.5t39.5 -5.5q-32 -32 -42.5 -66.5t-10.5 -50t7.5 -36.5t20.5 -42q26 -43 62 -71q-35 -35 -158 -49q-36 -4 -68.5 -4t-59.5 8 t-50 22q-52 33 -65 83l-146 -13l-55 -336q81 8 131 13l80 8q100 10 135 10q49 0 49 -49q0 -42 -24 -90l-189 -397l205 18q45 0 70 -23q45 -43 45 -106q0 -85 -62 -148q-82 -81 -239 -81l-154 6l-205 -31q-39 0 -52 10q-23 20 -23 51t0.5 44.5t3.5 27.5q7 31 46 109.5 t78.5 159.5t64 132.5t48.5 100.5q61 129 80 170l-270 -27q-109 -10 -109 64q0 37 8 69l56 281l-109 -6q-55 -104 -200 -136q-45 -10 -82 -10q-83 0 -125 21q49 46 66 113q5 19 5 34zM848 123q0 -29 53 -29q46 0 73 46q23 39 23 71t-12.5 55t-28.5 23h-24q-9 0 -17 -2 l-36 -76q-31 -65 -31 -88z" />
<glyph unicode="&#x129d;" horiz-adv-x="1311" d="M1251 1647q-37 -44 -37 -85q0 -96 76 -147l-487 -51l-19 -143q46 8 109 8q76 0 76 -90q0 -34 -37 -152q-51 -159 -51 -173.5t14.5 -25t34.5 -10.5t51 8t65 18q93 25 121 25t44 -17t16 -32.5t-7.5 -44.5t-20 -70.5t-28.5 -92.5q-61 -191 -94 -292q-41 -121 -41 -149 q0 -53 39 -70v-28l-217 -27q-26 -3 -62 -3q-85 0 -85 83q0 28 36 128t62 174t41 117.5t27 79.5q26 78 26 93q0 53 -49 53q-31 0 -76 -14q-88 -27 -131 -27q-57 0 -57 51q0 34 30 128q39 126 39 145q0 90 -77 90q-39 0 -121 -39q2 -114 -81 -188q-88 -78 -235 -78 q-29 0 -63 4q70 66 70 134t-35 103q37 19 170.5 60t208.5 61l24 172l-497 -53q59 59 59 121.5t-37 114.5q74 53 172 53q130 0 173 -97q14 -33 11 -77l512 53q-11 31 -11 66.5t20 64.5t52 47q65 37 154 37q63 0 123 -16z" />
<glyph unicode="&#x129e;" horiz-adv-x="1460" d="M750 1157q139 -8 152 -8t33.5 4t58.5 9q107 12 266 12q81 0 127.5 -43t46.5 -130q0 -84 -52 -139q-51 -55 -127 -55h-108q-12 0 -42 -5t-67 -10q-102 -16 -144.5 -16t-69.5 9t-43 25q-29 29 -29 99.5t55 177.5q-39 21 -108.5 21t-113.5 -24q-77 -43 -119 -200 q-17 -66 -17 -109t5.5 -64.5t15.5 -34.5q19 -23 51.5 -23t67 4.5t74.5 10.5q105 14 147 14q73 0 73 -88q0 -41 -39 -217q-39 -180 -39 -202t3.5 -37t9.5 -30q16 -36 40 -47v-28l-205 -31q-21 -3 -38 -3q-97 0 -97 97q0 46 10 92l84 402q-205 -31 -270.5 -31t-96.5 7t-49 26 q-30 33 -30 135t26.5 175t71.5 124q85 94 230 123l20 172l-149 -14q-11 -51 -85 -89q-85 -44 -208 -42q10 45 10 92q0 83 -20.5 132.5t-36.5 67.5q32 25 88.5 25t90.5 -4.5t62 -17.5q59 -27 92 -93l584 56q29 68 66 93q62 42 157 42q33 0 64 -2.5t45 -3.5q-33 -79 -33 -156 q0 -71 35 -123q-20 -27 -98 -27t-110 5t-54 18q-42 23 -68 84l-172 -16zM1022 958q0 -86 63 -86q41 0 66 37t25 89q0 96 -66 96q-40 0 -64 -38t-24 -98z" />
<glyph unicode="&#x129f;" horiz-adv-x="1294" d="M1182 61q0 -122 53 -165q-48 -21 -109 -21t-100 14t-68 39q-61 54 -65 138l-381 -27q-12 -98 -90 -161q-77 -62 -186 -62q-31 0 -50 1.5t-32 2.5q63 67 63 211l-6 65l352 23q3 28 7.5 72t9.5 87q10 102 10 123q0 78 -41 78q-12 0 -72 -42t-86 -57q-62 -34 -102 -34 q-193 0 -193 301q0 348 391 424l11 148l-74 -7q-22 -42 -72 -66.5t-89.5 -24.5t-70.5 0.5t-73 13.5q41 75 41 119t-35 153q133 3 189 -13.5t84.5 -41t33.5 -66.5l434 41q31 130 256 137q-32 -53 -32 -114q0 -111 47 -154q-28 -12 -72.5 -12t-75.5 2t-55 8q-51 14 -64 57 l-122 -10l-11 -147h4q188 0 240 -9q0 -161 61 -249q-39 -13 -91.5 -13t-90.5 7t-66 29q-60 46 -73 167l-98 6q-240 0 -240 -319q0 -152 47 -178q17 -9 35.5 -9t41 11.5t50.5 29.5t58 38t58 38q64 41 89.5 41t45 -15.5t31.5 -39.5q23 -46 23 -82t-2 -60t-5 -58t-6.5 -74 t-7.5 -80t-7.5 -76t-6.5 -62l367 25q-12 -56 -12 -101z" />
<glyph unicode="&#x12a0;" horiz-adv-x="1255" d="M209 1q-113 0 -113 118q0 113 106 330q121 245 304 464l-203 -34l-24 321q-6 69 -58 84v25l236 53q23 5 39.5 5t29 -5.5t20.5 -14.5q13 -16 15 -42l12 -314l279 45q-152 -200 -240 -358l209 57q42 13 83 13t69.5 -29.5t50 -78t36.5 -110t26.5 -125.5t21.5 -125.5 t21 -109.5q25 -106 57 -104l2 -25l-191 -37q-17 -3 -40 -3t-45.5 16t-37 44.5t-24 67.5t-16 85t-12.5 98q-15 131 -31.5 179.5t-41.5 69.5q-46 39 -176 39q-72 -129 -136 -337q-29 -94 -29 -129q0 -66 53 -75l-6 -26l-205 -29q-23 -3 -41 -3z" />
<glyph unicode="&#x12a1;" horiz-adv-x="1747" d="M1595 504q0 -173 78 -201q-57 -57 -153 -57q-103 0 -170 72q-57 63 -66 155l-205 -33q14 -68 25 -135.5t22 -120.5q26 -120 60 -118l2 -25l-191 -37q-17 -3 -40 -3t-45.5 16t-37 44.5t-24 67.5t-16 85t-12.5 98q-15 131 -31.5 179.5t-41.5 69.5q-46 39 -176 39 q-72 -129 -136 -337q-29 -94 -29 -129q0 -66 53 -75l-6 -26l-205 -29q-23 -3 -41 -3q-113 0 -113 118q0 113 106 330q121 245 304 464l-203 -34l-24 321q-6 69 -58 84v25l236 53q23 5 39.5 5t29 -5.5t20.5 -14.5q13 -16 15 -42l12 -314l279 45q-152 -200 -240 -358l209 57 q42 13 84 13q102 0 160 -232l547 80q-17 -34 -17 -92z" />
<glyph unicode="&#x12a2;" horiz-adv-x="1761" d="M1649 221q-39 -65 -39 -140.5t71 -143.5q-94 -33 -154 -33t-94.5 8t-62.5 24q-59 36 -65 103l-308 -35q-16 -2 -42.5 -2t-48.5 17.5t-38 63.5q-20 61 -45 223.5t-37 198t-37 56.5q-46 39 -176 39q-72 -129 -136 -337q-29 -94 -29 -129q0 -66 53 -75l-6 -26l-205 -29 q-23 -3 -41 -3q-113 0 -113 118q0 113 106 330q121 245 304 464l-203 -34l-24 321q-6 69 -58 84v25l236 53q23 5 39.5 5t29 -5.5t20.5 -14.5q13 -16 15 -42l12 -314l279 45q-152 -200 -240 -358l209 57q42 13 84.5 13t72.5 -29t49.5 -75.5t31.5 -106.5t20.5 -122t15.5 -121 t17 -104.5t24.5 -72t37 -24t44.5 4.5q57 7 89 13q21 57 91.5 88.5t172.5 31.5q29 0 48.5 -4t29.5 -6z" />
<glyph unicode="&#x12a3;" horiz-adv-x="1296" d="M516 1339l11 1q22 0 29 -13.5t9 -46.5l21 -311l266 43q-109 -143 -213 -318l174 35q32 6 48.5 6.5t52.5 1t74.5 -28.5t64.5 -76.5t42 -108t27 -123.5t18.5 -123.5t17.5 -108.5q22 -105 59 -105l2 -24l-191 -37q-17 -4 -47 -4t-53.5 25t-37.5 77q-17 59 -35.5 219 t-33 195.5t-42.5 57.5q-51 40 -185 40q-174 -278 -174 -352q0 -41 14 -54t43 -18l-6 -26l-225 -35q-22 -4 -44 -4q-110 0 -110 119q0 126 259 443q81 99 179 216l-219 -22l-20 319q-5 68 -58 84v25z" />
<glyph unicode="&#x12a4;" horiz-adv-x="1475" d="M352 156q0 -91 56 -101v-28l-189 -23q-26 -3 -48.5 -3t-37.5 6t-23 20q-14 22 -14 74t12 105.5t33.5 117.5t51 134t65.5 137q79 147 160 226l-160 -24l-25 329q-5 68 -57 84v25l189 45q23 5 39.5 5t29 -5.5t20.5 -14.5q13 -16 15 -42l16 -324l230 41q-86 -113 -123 -179 t-60 -108l115 21q33 6 69 6h36q100 0 144 -58q42 -57 60 -214q17 2 45.5 9t62.5 15q88 19 163 19t119.5 -39.5t44.5 -112t-21 -114.5t-54 -71q-61 -53 -149 -65l-153 -20q-35 -5 -60 -10t-48 -9q-143 -28 -192 22q-30 31 -30 79v276q0 130 -96 180q-37 19 -94 19 q-55 -93 -119 -316q-23 -81 -23 -114zM969 168q0 -76 59 -76q62 0 93 64q12 25 12 69.5t-23.5 80.5t-63 36t-83.5 -6q0 -66 6 -168z" />
<glyph unicode="&#x12a5;" horiz-adv-x="1229" d="M756 681q8 1 16 1h19q141 0 199 -181q28 -88 44.5 -181t29.5 -140q31 -105 81 -127l2 -24l-201 -25q-10 -2 -18 -2h-17q-47 0 -69.5 22t-36 70t-25.5 123.5t-31.5 153.5t-34.5 111.5t-36 54.5q-40 40 -120 40q-16 0 -36 -2q-91 -157 -120 -315q-9 -50 -9 -90.5t16.5 -73 t45.5 -37.5v-26l-205 -29q-23 -3 -41 -3q-113 0 -113 118t93 309q109 223 305 434l-234 -12l121 262l-299 -47q29 40 29 119q0 69 -35 135q180 45 262 45q139 0 139 -102q0 -72 -39 -91l258 15l-125 -244l187 6q-97 -128 -132.5 -190.5t-58.5 -104.5l164 25q17 2 25 3z" />
<glyph unicode="&#x12a6;" horiz-adv-x="1229" d="M645 670q120 24 199.5 24t123.5 -36.5t65.5 -91t28.5 -117.5t13.5 -116.5t20.5 -88t49 -31.5l2 -25l-176 -32q-35 -7 -67.5 -7t-51 14.5t-28 47t-15 83t-13 109t-15 93.5t-25.5 58q-37 48 -144 46q-137 -247 -193 -412q-11 -32 -11 -60q0 -60 53 -69l-6 -26l-205 -29 q-23 -3 -41 -3q-113 0 -113 118q0 147 272 513q83 111 181 228l-207 -24l-25 305q-5 68 -57 84v24l217 43q19 4 47.5 4t45 -19t18.5 -42l20 -299l232 35q-106 -146 -195 -301z" />
<glyph unicode="&#x12a7;" horiz-adv-x="1376" d="M1184 1354q-33 -21 -99 -21q-51 0 -96 21q-84 38 -88 80h-190v-465q96 51 225 47q-125 -164 -207 -314l209 48q48 12 89 12t72 -29.5t51.5 -77.5t32.5 -110t20 -127t14.5 -127.5t15.5 -112.5q20 -110 61 -115v-24l-190 -37q-17 -3 -31 -3q-48 0 -70.5 33.5t-32.5 91 t-13.5 135t-12 148t-23.5 109t-43 62.5q-57 49 -188 49q-186 -355 -186 -453.5t55 -107.5v-27l-244 -37q-17 -3 -44.5 -3t-50.5 24t-23 74t16 106.5t45 127t69.5 149.5t90.5 158q108 172 223 286l-192 10v502h-130q-42 -67 -205 -71q-43 -1 -79 -1q26 78 26 139t-30 166 q166 0 214 -25.5t64.5 -57.5t18.5 -81l569 -6q21 92 145 124q44 11 78 11q46 0 68 -2q-19 -60 -19 -156t15 -122z" />
<glyph unicode="&#x12a8;" horiz-adv-x="1159" d="M1036 696l-14 -495q0 -62 8 -80q14 -33 60 -47v-33l-213 -31q-9 -2 -17 -2h-16q-51 0 -71.5 27.5t-20.5 89.5l14 590q0 169 -19.5 208.5t-45.5 50.5t-73.5 11t-87.5 -23t-66 -88q-54 -130 -54 -479q0 -215 8.5 -256.5t22.5 -55t38 -22.5v-26l-206 -31q-18 -3 -36.5 -3 t-36.5 11t-32 45q-28 72 -28 267t31 339t110 238l-107 -12q-18 -2 -46 -2q-60 0 -56 71l12 291q3 75 -39 88v25l236 53q23 5 40 5t29.5 -5.5t19.5 -14.5q15 -17 15 -42l-10 -375q128 82 346 82q150 0 217 -65q88 -84 88 -304z" />
<glyph unicode="&#x12a9;" horiz-adv-x="1597" d="M1520 764q-37 -54 -37 -117.5t67 -122.5q-21 -33 -133 -46q-153 -19 -219 62q-17 21 -22 52l-142 -21q-2 -44 -4 -87t-4 -88q-4 -133 -4 -177.5t1 -64.5t7 -35q14 -31 60 -45v-33l-213 -31q-9 -2 -17 -2h-16q-51 0 -71.5 27.5t-20.5 89.5l14 590q0 169 -19.5 208.5 t-45.5 50.5t-73.5 11t-87.5 -23t-66 -88q-54 -130 -54 -479q0 -215 8.5 -256.5t22.5 -55t38 -22.5v-26l-206 -31q-18 -3 -36.5 -3t-36.5 11t-32 45q-28 72 -28 267t31 339t110 238l-107 -12q-18 -2 -46 -2q-60 0 -56 71l12 291q3 75 -39 88v25l236 53q23 5 40 5t29.5 -5.5 t19.5 -14.5q15 -17 15 -42l-10 -375q128 82 346 82q150 0 217 -65q88 -84 88 -304v-51l131 19q63 116 263 116q46 0 90 -16z" />
<glyph unicode="&#x12aa;" horiz-adv-x="1624" d="M1530 221q-35 -79 -35 -144.5t55 -131.5q-128 -54 -257 -35q-88 14 -107 131l-273 -25q-98 -8 -119 -1t-29 20q-13 21 -13 90l14 590q0 169 -19.5 208.5t-45.5 50.5t-73.5 11t-87.5 -23t-66 -88q-54 -130 -54 -479q0 -215 8.5 -256.5t22.5 -55t38 -22.5v-26l-206 -31 q-18 -3 -36.5 -3t-36.5 11t-32 45q-28 72 -28 267t31 339t110 238l-107 -12q-18 -2 -46 -2q-60 0 -56 71l12 291q3 75 -39 88v25l236 53q23 5 40 5t29.5 -5.5t19.5 -14.5q15 -17 15 -42l-10 -375q128 82 346 82q150 0 217 -65q88 -84 88 -304l-14 -534q0 -14 -0.5 -25 t2.5 -18q8 -14 35 -14q43 0 133 12q22 49 94 81q70 33 162 33q30 0 50.5 -4t31.5 -6z" />
<glyph unicode="&#x12ab;" horiz-adv-x="1159" d="M1036 696l-14 -499q0 -62 8 -80q14 -33 60 -47v-33l-226 -27q-18 -2 -31 -2q-48 0 -64.5 25.5t-16.5 87.5l14 594q0 169 -19.5 208.5t-45.5 50.5t-68 11q-211 0 -211 -346q0 -98 14.5 -158t65.5 -82l-215 -55q-22 -5 -39 -5t-33 8.5t-27 30.5q-24 48 -24 131.5t5 132 t19 90.5q24 78 103 169l-107 -12q-18 -2 -46 -2q-60 0 -56 71l12 291q3 75 -39 88v25l236 53q23 5 40 5t29.5 -5.5t19.5 -14.5q15 -17 15 -42l-10 -375q128 82 346 82q150 0 217 -65q88 -84 88 -304z" />
<glyph unicode="&#x12ac;" horiz-adv-x="1597" d="M387 950q140 152 401 152q151 0 230 -62q100 -80 100 -274q0 -51 -18 -197q-25 -193 -25 -215q66 0 110 4q83 9 130.5 9t84 -8t62.5 -27q51 -37 51 -108t-19.5 -113t-53.5 -70q-67 -55 -174 -55l-146 14q-41 0 -88 -10q-88 -17 -134.5 -17t-66.5 6.5t-31 22.5 q-22 30 -22 115q0 32 21.5 217t28.5 255q18 163 18 208t-5 87.5t-19 73.5q-31 66 -109 66q-172 0 -223 -393q-15 -117 -15 -229.5t1.5 -176t7 -99.5t17 -50.5t31.5 -22.5v-22l-194 -27q-18 -3 -36.5 -3t-36.5 11t-31 45q-29 72 -29 267q0 374 133 567l-139 -10 q-33 -3 -52 -3t-30.5 3t-18.5 11q-12 17 -10 62l6 295q3 75 -39 88v25l236 53q23 5 40 5t29.5 -5.5t19.5 -14.5q15 -17 15 -42zM1245 190q0 98 -145 98h-16q-9 0 -17 -1q-13 -75 -14.5 -134.5t13 -79.5t44 -20t50.5 5t40 19q45 33 45 113z" />
<glyph unicode="&#x12ad;" horiz-adv-x="1229" d="M383 942q178 107 442 107q153 0 225 -56q95 -75 95 -264q0 -85 -27 -222q-51 -259 -51 -364q0 -31 6.5 -45.5t28.5 -19.5v-35l-209 -25q-32 -4 -59 -4t-37.5 16.5t-10.5 52.5t6 90.5t15.5 124t20.5 146.5t20 148q22 159 22 209q0 168 -139 168q-93 0 -171 -87 q-76 -84 -109 -212l116 -2l-127 -441q-20 -69 -20 -97.5t7 -44.5t36 -24v-26l-207 -31q-16 -2 -41.5 -2t-44 25t-18.5 86.5t10 127t32 131.5q47 145 136 255l-178 6q38 150 151 250l-125 -9q-24 -2 -37.5 -2t-20.5 2.5t-10 9.5q-4 8 -4 50v293q0 43 -12 61t-41 23v24l240 68 q17 5 34 5q56 0 56 -73v-393z" />
<glyph unicode="&#x12ae;" horiz-adv-x="1133" d="M1036 817l-28 -332q0 -59 32 -69q11 -4 23 -6v-23l-213 -31q-16 -2 -27 -2q-51 0 -68.5 32t-17.5 95l29 332q0 197 -139 197q-69 0 -109.5 -53.5t-61.5 -160.5q-33 -167 -33 -630q0 -66 7 -81q12 -24 49 -38v-31l-196 -14q-7 -1 -13 -1h-13q-61 0 -83 47q-22 49 -22 200 t4.5 258.5t19.5 185.5q29 152 119 242l-102 -25q-28 -7 -48.5 -7t-31 5.5t-15.5 14.5q-8 13 -8 51l4 276q2 76 -39 88v25l236 53q23 5 40 5t29.5 -5.5t19.5 -14.5q15 -17 15 -42l-2 -344q122 76 322 76q254 0 305 -157q16 -51 16 -116z" />
<glyph unicode="&#x12af;" horiz-adv-x="1493" d="M1396 817l-28 -332q0 -59 32 -69q11 -4 23 -6v-23l-213 -31q-16 -2 -27 -2q-51 0 -68.5 32t-17.5 95l29 332q0 197 -139 197q-69 0 -109.5 -53.5t-61.5 -160.5q-33 -167 -33 -630q0 -66 7 -81q12 -24 49 -38v-31l-196 -14q-7 -1 -13 -1h-13q-61 0 -83 47q-22 49 -22 160 q0 178 4 282l-108 -16q-11 -156 -98 -232q-70 -61 -169 -61q-61 0 -86 19q54 40 54 135t-33 168l444 61q10 138 33 201q38 105 102 169l-102 -25q-28 -7 -48.5 -7t-31 5.5t-15.5 14.5q-8 13 -8 51l4 276q2 76 -39 88v25l236 53q23 5 40 5t29.5 -5.5t19.5 -14.5 q15 -17 15 -42l-2 -344q122 76 322 76q254 0 305 -157q16 -51 16 -116z" />
<glyph unicode="&#x12b0;" horiz-adv-x="1774" d="M385 975q138 86 272 86q149 0 219 -65q91 -83 93 -298q371 64 458.5 64t136 -14t82.5 -40q72 -55 72 -151t-54 -155.5t-169 -59.5q-39 0 -61 5q-41 9 -60.5 9t-36 -4.5t-35.5 -9.5q-53 -14 -96.5 -14t-68.5 11t-44 33q-42 49 -42 115q0 115 32 158l-114 -20 q-2 -53 -4.5 -103t-4.5 -102q-6 -156 -6 -227l-1 -53q0 -26 9.5 -41t45.5 -27v-33l-213 -33q-21 -3 -36 -3q-45 0 -60 27t-15 87l14 590q0 135 -13.5 180t-32.5 64.5t-61 19.5t-78 -26.5t-58 -92.5q-41 -123 -41 -457v-84q0 -155 7.5 -187.5t19.5 -44t34 -18.5v-26l-192 -31 q-18 -4 -37.5 -4t-37 11t-30.5 45q-28 75 -28 222.5t7 233.5t23 157q34 146 115 232l-111 -12q-18 -2 -46 -2q-60 0 -56 71l12 291q3 75 -39 88v25l236 53q23 5 40 5t29.5 -5.5t19.5 -14.5q15 -17 15 -42zM1370 422q84 0 84 168q0 42 -17.5 67t-37.5 25q-51 0 -70.5 -44.5 t-19.5 -130t61 -85.5z" />
<glyph unicode="&#x12b2;" horiz-adv-x="1913" d="M1780 449q0 -141 57 -193q-66 -38 -162 -16q-85 19 -142 92q-30 38 -44 98l-277 -18q-54 -4 -74.5 12t-20.5 40q0 28 7 68l9 41h-166q-1 -69 -6 -145q-7 -129 -7 -241t68 -121v-23l-227 -37q-21 -3 -36 -3q-45 0 -60 27t-15 87l14 553q0 142 -13.5 194.5t-32.5 77 t-61 24.5t-78 -26t-58 -90q-41 -121 -41 -455v-84q0 -155 7.5 -187.5t19.5 -44t34 -18.5v-26l-192 -31q-18 -4 -37.5 -4t-37 11t-30.5 45q-28 75 -28 222t7 233.5t23 158.5q34 145 115 230l-111 -14q-16 -2 -44.5 -2t-44 20t-13.5 54l12 282q2 29 -8.5 53.5t-30.5 30.5v29 l236 53q23 5 49 5t41.5 -19.5t13.5 -42.5l-10 -375q138 86 272 86q312 0 312 -407h182l25 115q1 6 2.5 13.5t-0.5 14.5q-5 18 -29 21v29l215 24q10 2 18 2h16q61 0 61 -45q0 -16 -7 -49l-63 -282l407 22q-16 -40 -16 -69z" />
<glyph unicode="&#x12b3;" horiz-adv-x="1475" d="M1352 32q0 -70 39 -94v-35l-185 -37q0 -6 -53 -6q-47 0 -62 15q-26 26 -26 94l16 276l-376 -4q8 -108 -107 -178q-104 -64 -242 -58q52 83 52 189q0 27 -9 72q225 42 367 51q2 45 3.5 114.5t3 111t2 77.5t1 63.5t0.5 75t-6.5 103t-21.5 88.5q-29 62 -107 62 q-69 0 -95.5 -22.5t-41.5 -54t-24 -84.5q-19 -103 -19 -314l-275 -17q0 157 16 220q31 115 117 194l-110 -14q-26 -4 -46 -4q-44 0 -42 59l6 235q3 60 -49 94q-13 8 -23 11v33l236 67q22 6 50.5 6t47.5 -20t19 -43l-5 -361q134 78 324 78q160 0 231 -65q89 -84 89 -297.5 t-11 -389.5h31q182 0 225 -18.5t55.5 -45t12.5 -69.5z" />
<glyph unicode="&#x12b4;" horiz-adv-x="1446" d="M1006 736l-15 -218q35 0 91 12q111 25 138.5 25t54 -9t47.5 -30q46 -46 46 -119.5t-20.5 -116t-55.5 -70.5q-69 -58 -176 -58l-153 12q-94 0 -293 -43q-4 -123 -78 -199q-70 -72 -182 -72q-44 0 -72 19q43 86 43 158q0 28 -16 116l333 62q10 147 15.5 236t9 142.5 t6.5 100.5q6 92 6 163q0 168 -92 168q-155 0 -176 -289q-6 -85 -6 -176t9.5 -141t47.5 -59v-35l-162 -34q-24 -6 -51.5 -6t-52.5 15t-42 46q-32 63 -32 177t12 177.5t32 109.5q28 69 97 143l-116 -10q-32 -3 -52 -3t-31.5 3.5t-17.5 12.5q-12 15 -10 61l12 233q3 72 -49 88 v25l236 53q16 4 35 4t34 -6.5t24 -17.5q19 -20 17 -46l-10 -338q123 103 332 103q138 0 206 -79q77 -89 77 -290zM975 293q-5 -64 57 -64q28 0 50 33.5t22 80t-4.5 63.5t-14.5 27q-17 17 -70 17l-30 -1q-10 -57 -10 -156z" />
<glyph unicode="&#x12b5;" horiz-adv-x="1610" d="M1501 994q0 -126 58 -179q-45 -39 -132 -39q-130 0 -197 102q-25 38 -30 97l-270 -27q47 -76 47 -219l-10 -536q0 -118 67 -127v-23l-227 -37q-21 -3 -36 -3q-45 0 -60 27t-15 87l13 664q0 97 -23 140.5t-86 43.5q-54 0 -79.5 -19t-41 -46t-27.5 -72q-24 -97 -24 -250.5 t-9.5 -253.5t-9.5 -175.5t33 -87.5v-26l-199 -31l-7 -1q-64 0 -70 267q-2 91 -2 215q0 250 127 408l-105 -12q-16 -2 -44 -2q-56 0 -56 67v7l8 286v6q0 59 -41 72v29l236 59q22 6 48.5 6t41 -20t14.5 -43l-6 -367q118 80 273.5 80t228.5 -63l12 225l273 41l-15 -219l350 26 q-8 -48 -8 -77z" />
<glyph unicode="&#x12b8;" horiz-adv-x="1460" d="M786 975q144 100 336 100q138 0 196 -61q60 -62 60 -217q0 -88 -20 -237q-39 -280 -39 -388l-1 -52q0 -28 10 -44t48 -25v-33l-205 -18q-16 -2 -48 -2q-72 0 -72 111q0 43 13 165t21.5 205.5t16.5 158.5q18 169 18 205t-2.5 63t-10.5 47q-18 44 -60.5 44t-76 -30.5 t-59.5 -81t-45 -115.5t-32.5 -134.5t-21.5 -138.5t-13 -127q-8 -93 -8 -155q0 -142 57 -156v-32l-199 -23q-23 -3 -44.5 -3t-39.5 10t-29 39q-18 50 -18 192.5t14.5 243t41.5 181.5q51 153 147 251l-141 -15q-30 -3 -47.5 -3t-26 3t-12.5 9.5t-4 18.5t2 30l28 323 q-31 -3 -58.5 -8t-53.5 -8q-13 -71 -81 -115.5t-194 -44.5q-58 0 -102 8q51 46 51 144q0 69 -28 105q-11 14 -29 32q71 47 198 47q88 0 150 -59q20 -19 33 -44q143 19 266 33.5t164 19.5t77 9q31 77 94 103q58 24 203 24q20 0 52 -12q-23 -58 -23 -117t53 -123 q-31 -34 -146 -48q-30 -3 -62.5 -3t-60.5 6.5t-47 19.5q-29 20 -56 78l-103 -12z" />
<glyph unicode="&#x12b9;" horiz-adv-x="1913" d="M786 975q144 100 336 100q138 0 196 -61q60 -62 60 -217v-28t-2 -28l414 70q0 -140 44 -199q14 -18 30 -32q-56 -62 -162 -62q-130 0 -179 90q-17 32 -20 76l-133 -22q-6 -58 -14.5 -121t-17.5 -127q-19 -145 -19 -242l-1 -52q0 -28 10 -44t48 -25v-33l-205 -18 q-16 -2 -48 -2q-72 0 -72 111q0 43 13 165t21.5 205.5t16.5 158.5q18 169 18 205t-2.5 63t-10.5 47q-18 44 -60.5 44t-76 -30.5t-59.5 -81t-45 -115.5t-32.5 -134.5t-21.5 -138.5t-13 -127q-8 -93 -8 -155q0 -142 57 -156v-32l-199 -23q-23 -3 -44.5 -3t-39.5 10t-29 39 q-18 50 -18 192.5t14.5 243t41.5 181.5q51 153 147 251l-141 -15q-30 -3 -47.5 -3t-26 3t-12.5 9.5t-4 18.5t2 30l28 323q-31 -3 -58.5 -8t-53.5 -8q-13 -71 -81 -115.5t-194 -44.5q-58 0 -102 8q51 46 51 144q0 69 -28 105q-11 14 -29 32q71 47 198 47q88 0 150 -59 q20 -19 33 -44q143 19 266 33.5t164 19.5t77 9q31 77 94 103q58 24 203 24q20 0 52 -12q-23 -58 -23 -117t53 -123q-31 -34 -146 -48q-30 -3 -62.5 -3t-60.5 6.5t-47 19.5q-29 20 -56 78l-103 -12z" />
<glyph unicode="&#x12ba;" horiz-adv-x="1937" d="M1800 94q0 -94 66 -164q-77 -49 -203 -49q-154 0 -166 142l-326 -23q-69 -4 -89 12q-31 27 -31 97q0 43 13 165t21.5 205.5t16.5 158.5q18 169 18 205t-2.5 63t-10.5 47q-18 44 -60.5 44t-76 -30.5t-59.5 -81t-45 -115.5t-32.5 -134.5t-21.5 -138.5t-13 -127 q-8 -93 -8 -155q0 -142 57 -156v-32l-199 -23q-23 -3 -44.5 -3t-39.5 10t-29 39q-18 50 -18 192.5t14.5 243t41.5 181.5q51 153 147 251l-141 -15q-30 -3 -47.5 -3t-26 3t-12.5 9.5t-4 18.5t2 30l28 323q-31 -3 -58.5 -8t-53.5 -8q-13 -71 -81 -115.5t-194 -44.5 q-58 0 -102 8q51 46 51 144q0 69 -28 105q-11 14 -29 32q71 47 198 47q88 0 150 -59q20 -19 33 -44q143 19 266 33.5t164 19.5t77 9q31 77 94 103q58 24 203 24q20 0 52 -12q-23 -58 -23 -117t53 -123q-31 -34 -146 -48q-30 -3 -62.5 -3t-60.5 6.5t-47 19.5q-29 20 -56 78 l-103 -12l-31 -344q144 100 336 100q138 0 196 -61q60 -62 60 -217q0 -88 -20 -237q-39 -280 -39 -347.5t3 -83.5t10 -25q10 -14 38 -14q42 0 135 10q23 56 92.5 87.5t171.5 31.5q38 0 68 -20q-23 -17 -30 -54t-7 -51z" />
<glyph unicode="&#x12bb;" horiz-adv-x="1460" d="M786 975q137 100 336 100q138 0 196 -61q60 -62 60 -217q0 -88 -20 -237q-39 -280 -39 -388l-1 -52q0 -28 10 -44t48 -25v-33l-205 -18q-30 -3 -49.5 -3t-33 4.5t-21.5 16.5q-16 24 -16 68.5t5 102t13 132.5t16.5 158.5t16.5 158.5q18 169 18 205t-2.5 63t-10.5 47 q-18 44 -62 44t-79 -30.5t-60 -77.5t-41.5 -104t-26.5 -111q-17 -99 -17 -154q0 -105 64 -121v-30l-236 -23q-102 -10 -113 62q-4 22 -4 57t9.5 91.5t31.5 119.5q51 145 148 242l-141 -15q-30 -3 -47.5 -3t-26 3t-12.5 9.5t-4 18.5t2 30l28 323q-31 -3 -58.5 -8t-53.5 -8 q-13 -71 -81 -115.5t-194 -44.5q-58 0 -102 8q51 46 51 144q0 69 -28 105q-11 14 -29 32q71 47 198 47q88 0 150 -59q20 -19 33 -44q143 19 266 33.5t164 19.5t77 9q31 77 94 103q58 24 203 24q20 0 52 -12q-23 -58 -23 -117t53 -123q-31 -34 -146 -48q-30 -3 -62.5 -3 t-60.5 6.5t-47 19.5q-29 20 -56 78l-103 -12z" />
<glyph unicode="&#x12bc;" horiz-adv-x="1829" d="M786 975q144 100 336 100q136 0 201.5 -66.5t65.5 -189.5q0 -52 -48 -436q38 4 105 15q117 18 149.5 18t62 -8t50.5 -28q41 -40 41 -118t-18 -116t-49 -61q-55 -42 -158 -46l-176 -10q-48 -3 -96 -12q-117 -22 -146 -17t-38 16q-17 21 -17 65t3 81t8 87.5t11 111 t12.5 123t12.5 122.5l11 110q11 108 11 135.5t-2.5 54.5t-10.5 47q-18 44 -60.5 44t-76 -30.5t-59.5 -81t-45 -115.5t-32.5 -134.5t-21.5 -138.5t-13 -127q-8 -93 -8 -155q0 -142 57 -156v-32l-199 -23q-23 -3 -44.5 -3t-39.5 10t-29 39q-18 50 -18 192.5t14.5 243 t41.5 181.5q51 153 147 251l-141 -15q-30 -3 -47.5 -3t-26 3t-12.5 9.5t-4 18.5t2 30l28 323q-31 -3 -58.5 -8t-53.5 -8q-13 -71 -81 -115.5t-194 -44.5q-58 0 -102 8q51 46 51 144q0 69 -28 105q-11 14 -29 32q71 47 198 47q88 0 150 -59q20 -19 33 -44q143 19 266 33.5 t164 19.5t77 9q31 77 94 103q58 24 203 24q20 0 52 -12q-23 -58 -23 -117t53 -123q-31 -34 -146 -48q-30 -3 -62.5 -3t-60.5 6.5t-47 19.5q-29 20 -56 78l-103 -12zM1489 213q0 113 -88 113q-16 0 -34 -4t-34 -7q-12 -96 -12 -123.5t2 -45.5t9 -30q16 -26 60.5 -26 t70.5 31.5t26 91.5z" />
<glyph unicode="&#x12bd;" horiz-adv-x="1624" d="M1266 1505q-23 -55 -23 -115t53 -124q-32 -35 -146 -48q-30 -4 -62.5 -4t-60.5 6.5t-47 19.5q-29 20 -56 79l-103 -12l-33 -365q172 117 447 117q148 0 221 -61q92 -77 92 -269q0 -83 -24 -221q-47 -262 -47 -329t6.5 -81.5t27.5 -19.5v-35l-208 -25q-32 -4 -59 -4 t-37.5 16.5t-10.5 52.5t6 90.5t15.5 124t20.5 146.5t20 148q22 159 22 209q0 178 -139 178q-110 0 -182 -86q-56 -67 -85 -180l117 -2l-141 -484q-19 -66 -20 -96t6 -46t36 -24v-26l-206 -31q-16 -2 -41.5 -2t-44.5 25t-19 86.5t10 127t31 131.5q48 145 137 255l-178 6 q64 171 182 274l-143 -16q-32 -4 -52.5 -4t-29 7.5t-8.5 27.5q0 10 2 26l29 324q-50 -5 -129 -17q-13 -71 -81 -115t-194 -44q-58 0 -102 8q51 46 51 143q0 69 -28 105q-11 14 -29 32q43 31 148 44q28 4 53 4t52 -7t51 -20q52 -28 77 -76q149 20 269.5 34t161.5 19t77 9 q31 77 94 103q57 24 202 24q9 0 18 -2q23 -7 34 -11z" />
<glyph unicode="&#x12be;" horiz-adv-x="1501" d="M1378 797l-20 -267q0 -53 11 -80.5t46 -39.5v-33l-205 -19q-8 -1 -16 -1h-14q-50 0 -70 24t-20 71.5t4.5 99t10.5 106.5q15 138 15 179.5t-2.5 68.5t-10.5 47q-18 44 -60.5 44t-76 -30.5t-59.5 -81t-45 -115.5t-32.5 -134.5t-21.5 -138.5t-13 -127q-8 -93 -8 -155 q0 -142 57 -156v-32l-199 -23q-23 -3 -44.5 -3t-39.5 10t-29 39q-18 50 -18 192.5t14.5 243t41.5 181.5q51 153 147 251l-141 -15q-30 -3 -47.5 -3t-26 3t-12.5 9.5t-4 18.5t2 30l28 323q-31 -3 -58.5 -8t-53.5 -8q-13 -71 -81 -115.5t-194 -44.5q-58 0 -102 8q51 46 51 144 q0 69 -28 105q-11 14 -29 32q71 47 198 47q88 0 150 -59q20 -19 33 -44q143 19 266 33.5t164 19.5t77 9q31 77 94 103q58 24 203 24q20 0 52 -12q-23 -58 -23 -117t53 -123q-31 -34 -146 -48q-30 -3 -62.5 -3t-60.5 6.5t-47 19.5q-29 20 -56 78l-103 -12l-31 -344 q144 100 336 100q138 0 196 -61q60 -62 60 -217z" />
<glyph unicode="&#x12c0;" horiz-adv-x="2183" d="M1872 775l55 1q199 0 199 -205q0 -101 -44 -168q-45 -69 -118 -69q-50 0 -94 11t-56.5 11t-35 -6.5t-50.5 -13.5q-77 -21 -109 -21t-57 8.5t-44 26.5q-41 39 -41 115q0 115 79 203h-170l-32 -537q0 -46 37 -49v-27l-195 -37q-22 -4 -54 -4q-67 0 -67 111l58 723 q0 93 -12 115t-29 28t-51 6t-64.5 -30t-53.5 -79.5t-39 -113.5t-27 -132.5t-17 -136.5t-9 -125q-4 -76 -4 -153.5t8 -111t35 -39.5v-33l-192 -37q-19 -4 -42.5 -4t-43.5 13.5t-32 45.5q-25 63 -25 224q0 420 170 616l-127 -12q-32 -3 -48 -3t-24.5 3t-12.5 9q-6 10 -4 48 l13 318q-31 -3 -59 -8.5t-54 -8.5q-16 -65 -87 -109q-70 -42 -167 -42q-65 0 -108 18q49 44 49 131q0 70 -28 105q-12 14 -30 32q68 50 205 50q86 0 112.5 -19.5t35.5 -39.5t16 -48q197 29 255 36.5t101 13.5q70 10 162 20q26 124 169 150q51 9 91 9t56.5 -5.5t23.5 -8.5 q-26 -72 -26 -108q0 -85 63 -136q-73 -67 -201 -67q-80 0 -105 15q-37 22 -63 77l-114 -14l-15 -330q136 98 338 98q143 0 202 -55q67 -62 67 -223v-28q0 -15 -2 -32h223q64 54 141 54l98 -17zM1747 489q0 -61 53 -61q33 0 62 62q28 60 28 109.5t-4 63.5t-11 21 q-11 12 -33.5 12t-36.5 -13.5t-24.5 -34t-17 -45t-9.5 -47.5q-7 -43 -7 -67z" />
<glyph unicode="&#x12c2;" horiz-adv-x="2333" d="M1546 860v31l240 45q16 3 34.5 3t33 -7.5t22.5 -19.5q14 -25 8 -66l-45 -297l361 4q3 -114 49 -208q15 -31 35 -52q-57 -27 -119.5 -27t-105.5 12.5t-77 37.5q-73 55 -73 149l-283 -4q-57 -2 -74 14q-26 23 -26 57t12 82h-154l-30 -483q0 -46 37 -49v-27l-195 -37 q-22 -4 -54 -4q-67 0 -67 111l58 723q0 93 -12 115t-29 28t-51 6t-64.5 -30t-53.5 -79.5t-39 -113.5t-27 -132.5t-17 -136.5t-9 -125q-4 -76 -4 -153.5t8 -111t35 -39.5v-33l-192 -37q-19 -4 -42.5 -4t-43.5 13.5t-32 45.5q-25 63 -25 224q0 420 170 616l-127 -12 q-32 -3 -48 -3t-24.5 3t-12.5 9q-6 10 -4 48l13 318q-31 -3 -59 -8.5t-54 -8.5q-16 -65 -87 -109q-70 -42 -167 -42q-65 0 -108 18q49 44 49 131q0 70 -28 105q-12 14 -30 32q68 50 205 50q86 0 112.5 -19.5t35.5 -39.5t16 -48q197 29 255 36.5t101 13.5q70 10 162 20 q26 124 169 150q51 9 91 9t56.5 -5.5t23.5 -8.5q-26 -72 -26 -108q0 -85 63 -136q-73 -67 -201 -67q-80 0 -105 15q-37 22 -63 77l-114 -14l-15 -330q136 98 338 98q143 0 202 -55q67 -62 67 -223q0 -30 -5 -115h162l17 100q2 10 2 42.5t-21 35.5z" />
<glyph unicode="&#x12c3;" horiz-adv-x="1653" d="M1556 80q0 -121 50 -164q-34 -25 -94 -25t-103 14t-77 39q-71 55 -77 138l-413 -31q-12 -98 -96 -157q-82 -58 -191 -58q-31 0 -50 1.5t-32 2.5q76 58 76 203q0 25 -4 61l366 27l101 649q12 102 12 176q0 97 -84 97q-62 0 -112 -87q-61 -109 -82 -306q-5 -54 -5 -102.5 t19 -75.5t45 -33v-27q-176 -12 -219 -12q-57 0 -76 18q-33 34 -33 106.5t8 135.5t26 120q38 121 118 195l-156 -16q-9 -2 -16.5 3.5t-7.5 16.5l-7 240l-374 -19q4 28 4 92t-47 181q40 8 113 8t115 -10t67 -33q49 -44 47 -154l395 23q11 191 163 217q47 8 81 8q50 0 86 -8 q-37 -91 -37 -167.5t14 -104.5l-379 -19l6 -209q122 70 297 70q166 0 237 -91q54 -68 54 -188q0 -62 -20 -172l-82 -501l391 28q-17 -48 -17 -100z" />
<glyph unicode="&#x12c4;" horiz-adv-x="1855" d="M1368 406q180 20 225 20t78.5 -8t56.5 -28q46 -40 46 -136q0 -122 -111 -174q-64 -30 -103 -33t-59 -3h-41q-33 0 -69.5 -10.5t-62.5 -17.5q-68 -16 -96.5 -16t-80.5 4q-90 -29 -227 -100q4 -34 4 -78.5t-17.5 -86.5t-50.5 -69q-58 -46 -186 -57q6 24 6 52q0 93 -55 177 q263 133 446 211q17 200 27 317.5t15.5 187.5t10.5 129q9 125 9 166t-4 70.5t-14 46.5q-18 29 -65 29t-76 -28t-50.5 -74.5t-37 -106.5t-26 -124.5t-17 -128t-9.5 -117.5q-5 -90 -5 -128.5t4 -61t11 -42.5q16 -43 39 -49v-33l-193 -36q-13 -2 -23.5 -4t-29 -2t-38 12 t-31.5 42q-25 59 -25 238.5t45 320t121 228.5l-134 -14q-30 -3 -54 -3t-30 12.5t-4 47.5l13 318q-31 -3 -59 -8.5t-54 -8.5q-16 -65 -87 -109q-70 -42 -167 -42q-65 0 -108 18q49 44 49 131q0 68 -29 105q-11 14 -29 32q49 36 148 48q159 18 221 -105q197 29 255 36.5 t101 13.5q70 10 162 20q26 124 169 150q51 9 91 9q41 0 57 -5.5t23 -8.5q-26 -72 -26 -108q0 -85 63 -136q-73 -67 -201 -67q-72 0 -101 21q-36 24 -67 71l-114 -14l-17 -336q139 104 336 104q143 0 205 -55q70 -64 70 -225q0 -106 -9.5 -223t-13.5 -168zM1503 229 q0 113 -84 113q-17 0 -57 -8q-6 -95 -9.5 -135.5t1.5 -54.5q14 -35 63.5 -35t67.5 32t18 88z" />
</font>
</defs>
</svg>
